G04 #@! TF.GenerationSoftware,KiCad,Pcbnew,5.0.1*
G04 #@! TF.CreationDate,2019-01-16T19:26:08-05:00*
G04 #@! TF.ProjectId,main,6D61696E2E6B696361645F7063620000,rev?*
G04 #@! TF.SameCoordinates,Original*
G04 #@! TF.FileFunction,Legend,Top*
G04 #@! TF.FilePolarity,Positive*
%FSLAX46Y46*%
G04 Gerber Fmt 4.6, Leading zero omitted, Abs format (unit mm)*
G04 Created by KiCad (PCBNEW 5.0.1) date Wed 16 Jan 2019 07:26:08 PM EST*
%MOMM*%
%LPD*%
G01*
G04 APERTURE LIST*
%ADD10C,1.000000*%
%ADD11C,0.150000*%
%ADD12C,0.120000*%
G04 APERTURE END LIST*
D10*
X15000000Y-15000000D02*
X115000000Y-15000000D01*
X115000000Y-15000000D02*
X115000000Y-115000000D01*
X15000000Y-115000000D02*
X115000000Y-115000000D01*
X15000000Y-15000000D02*
X15000000Y-115000000D01*
D11*
G04 #@! TO.C,J6*
X90250000Y-144930000D02*
X98250000Y-144930000D01*
X98250000Y-139580000D02*
X98250000Y-144940000D01*
X90250000Y-139580000D02*
X90250000Y-144930000D01*
X90605000Y-136520000D02*
X97895000Y-136520000D01*
X97895000Y-136520000D02*
X97895000Y-139580000D01*
X90605000Y-136520000D02*
X90605000Y-139580000D01*
X97895000Y-139580000D02*
X98250000Y-139580000D01*
X90605000Y-139580000D02*
X90250000Y-139580000D01*
D12*
G04 #@! TO.C,R1*
X116760000Y-137700279D02*
X116760000Y-137374721D01*
X115740000Y-137700279D02*
X115740000Y-137374721D01*
G04 #@! TO.C,C4*
X119660000Y-137647936D02*
X119660000Y-138852064D01*
X117840000Y-137647936D02*
X117840000Y-138852064D01*
G04 #@! TO.C,C22*
X118960000Y-143258578D02*
X118960000Y-142741422D01*
X117540000Y-143258578D02*
X117540000Y-142741422D01*
G04 #@! TO.C,C13*
X115040000Y-143258578D02*
X115040000Y-142741422D01*
X116460000Y-143258578D02*
X116460000Y-142741422D01*
G04 #@! TO.C,C11*
X139960000Y-125008578D02*
X139960000Y-124491422D01*
X138540000Y-125008578D02*
X138540000Y-124491422D01*
G04 #@! TO.C,C10*
X102040000Y-145758578D02*
X102040000Y-145241422D01*
X103460000Y-145758578D02*
X103460000Y-145241422D01*
G04 #@! TO.C,C7*
X136991422Y-128460000D02*
X137508578Y-128460000D01*
X136991422Y-127040000D02*
X137508578Y-127040000D01*
G04 #@! TO.C,C1*
X124991422Y-146540000D02*
X125508578Y-146540000D01*
X124991422Y-147960000D02*
X125508578Y-147960000D01*
G04 #@! TO.C,C23*
X94491422Y-133960000D02*
X95008578Y-133960000D01*
X94491422Y-132540000D02*
X95008578Y-132540000D01*
G04 #@! TO.C,C2*
X129508578Y-147960000D02*
X128991422Y-147960000D01*
X129508578Y-146540000D02*
X128991422Y-146540000D01*
G04 #@! TO.C,C6*
X137147936Y-132340000D02*
X138352064Y-132340000D01*
X137147936Y-134160000D02*
X138352064Y-134160000D01*
G04 #@! TO.C,C5*
X137660000Y-124852064D02*
X137660000Y-123647936D01*
X135840000Y-124852064D02*
X135840000Y-123647936D01*
G04 #@! TO.C,C8*
X124340000Y-121852064D02*
X124340000Y-120647936D01*
X126160000Y-121852064D02*
X126160000Y-120647936D01*
G04 #@! TO.C,C9*
X122852064Y-137090000D02*
X121647936Y-137090000D01*
X122852064Y-138910000D02*
X121647936Y-138910000D01*
G04 #@! TO.C,C3*
X119297936Y-122660000D02*
X120502064Y-122660000D01*
X119297936Y-120840000D02*
X120502064Y-120840000D01*
G04 #@! TO.C,C12*
X132147936Y-138340000D02*
X133352064Y-138340000D01*
X132147936Y-140160000D02*
X133352064Y-140160000D01*
G04 #@! TO.C,C14*
X129061673Y-112160000D02*
X130265801Y-112160000D01*
X129061673Y-110340000D02*
X130265801Y-110340000D01*
G04 #@! TO.C,C15*
X102120000Y-126472064D02*
X102120000Y-125267936D01*
X103940000Y-126472064D02*
X103940000Y-125267936D01*
G04 #@! TO.C,C17*
X90852064Y-131840000D02*
X89647936Y-131840000D01*
X90852064Y-133660000D02*
X89647936Y-133660000D01*
G04 #@! TO.C,C18*
X119852064Y-135160000D02*
X118647936Y-135160000D01*
X119852064Y-133340000D02*
X118647936Y-133340000D01*
G04 #@! TO.C,C20*
X116647936Y-145090000D02*
X117852064Y-145090000D01*
X116647936Y-146910000D02*
X117852064Y-146910000D01*
G04 #@! TO.C,C21*
X118364145Y-112409442D02*
X118364145Y-111205314D01*
X116544145Y-112409442D02*
X116544145Y-111205314D01*
G04 #@! TO.C,C16*
X103132064Y-138430000D02*
X101927936Y-138430000D01*
X103132064Y-136610000D02*
X101927936Y-136610000D01*
G04 #@! TO.C,J5*
X112850000Y-135485000D02*
X113672470Y-135485000D01*
X115557530Y-135485000D02*
X116380000Y-135485000D01*
X114287530Y-135485000D02*
X114942470Y-135485000D01*
X112850000Y-130470000D02*
X112850000Y-135485000D01*
X116380000Y-129015000D02*
X116380000Y-135485000D01*
X112850000Y-130470000D02*
X113416529Y-130470000D01*
X114543471Y-130470000D02*
X114686529Y-130470000D01*
X114740000Y-130416529D02*
X114740000Y-130273471D01*
X114740000Y-129146529D02*
X114740000Y-129015000D01*
X114740000Y-129015000D02*
X114942470Y-129015000D01*
X115557530Y-129015000D02*
X116380000Y-129015000D01*
X112850000Y-129710000D02*
X112850000Y-128950000D01*
X112850000Y-128950000D02*
X113980000Y-128950000D01*
G04 #@! TO.C,J2*
X103240000Y-118000000D02*
X103240000Y-117050000D01*
X103240000Y-117050000D02*
X104000000Y-117050000D01*
X104635000Y-117240000D02*
X104635000Y-117050000D01*
X104635000Y-117050000D02*
X108505000Y-117050000D01*
X108505000Y-118962470D02*
X108505000Y-118307530D01*
X108505000Y-120220000D02*
X108505000Y-119577530D01*
X108505000Y-117692470D02*
X108505000Y-117050000D01*
X103305000Y-120220000D02*
X108505000Y-120220000D01*
X103305000Y-118962470D02*
X103305000Y-118760000D01*
X103305000Y-120220000D02*
X103305000Y-119577530D01*
G04 #@! TO.C,J1*
X120220000Y-26695000D02*
X119577530Y-26695000D01*
X118962470Y-26695000D02*
X118760000Y-26695000D01*
X120220000Y-26695000D02*
X120220000Y-21495000D01*
X117692470Y-21495000D02*
X117050000Y-21495000D01*
X120220000Y-21495000D02*
X119577530Y-21495000D01*
X118962470Y-21495000D02*
X118307530Y-21495000D01*
X117050000Y-25365000D02*
X117050000Y-21495000D01*
X117240000Y-25365000D02*
X117050000Y-25365000D01*
X117050000Y-26760000D02*
X117050000Y-26000000D01*
X118000000Y-26760000D02*
X117050000Y-26760000D01*
G04 #@! TO.C,J3*
X108260000Y-7000000D02*
X108260000Y-7950000D01*
X108260000Y-7950000D02*
X107500000Y-7950000D01*
X106865000Y-7760000D02*
X106865000Y-7950000D01*
X106865000Y-7950000D02*
X102995000Y-7950000D01*
X102995000Y-6037530D02*
X102995000Y-6692470D01*
X102995000Y-4780000D02*
X102995000Y-5422470D01*
X102995000Y-7307530D02*
X102995000Y-7950000D01*
X108195000Y-4780000D02*
X102995000Y-4780000D01*
X108195000Y-6037530D02*
X108195000Y-6240000D01*
X108195000Y-4780000D02*
X108195000Y-5422470D01*
G04 #@! TO.C,J4*
X4780000Y-21805000D02*
X5422470Y-21805000D01*
X6037530Y-21805000D02*
X6240000Y-21805000D01*
X4780000Y-21805000D02*
X4780000Y-27005000D01*
X7307530Y-27005000D02*
X7950000Y-27005000D01*
X4780000Y-27005000D02*
X5422470Y-27005000D01*
X6037530Y-27005000D02*
X6692470Y-27005000D01*
X7950000Y-23135000D02*
X7950000Y-27005000D01*
X7760000Y-23135000D02*
X7950000Y-23135000D01*
X7950000Y-21740000D02*
X7950000Y-22500000D01*
X7000000Y-21740000D02*
X7950000Y-21740000D01*
G04 #@! TO.C,Y1*
X124065000Y-140725000D02*
X130315000Y-140725000D01*
X124065000Y-145775000D02*
X130315000Y-145775000D01*
X124065000Y-145775000D02*
G75*
G02X124065000Y-140725000I0J2525000D01*
G01*
X130315000Y-145775000D02*
G75*
G03X130315000Y-140725000I0J2525000D01*
G01*
G04 #@! TO.C,FB1*
X128540000Y-139008578D02*
X128540000Y-138491422D01*
X129960000Y-139008578D02*
X129960000Y-138491422D01*
G04 #@! TO.C,FB2*
X129258578Y-107918900D02*
X128741422Y-107918900D01*
X129258578Y-109338900D02*
X128741422Y-109338900D01*
G04 #@! TO.C,FB3*
X100740000Y-126011422D02*
X100740000Y-126528578D01*
X99320000Y-126011422D02*
X99320000Y-126528578D01*
G04 #@! TO.C,D1*
X136015000Y-138950000D02*
X136015000Y-141235000D01*
X136015000Y-141235000D02*
X137485000Y-141235000D01*
X137485000Y-141235000D02*
X137485000Y-138950000D01*
G04 #@! TO.C,D2*
X140485000Y-141235000D02*
X140485000Y-138950000D01*
X139015000Y-141235000D02*
X140485000Y-141235000D01*
X139015000Y-138950000D02*
X139015000Y-141235000D01*
G04 #@! TO.C,D3*
X142015000Y-138950000D02*
X142015000Y-141235000D01*
X142015000Y-141235000D02*
X143485000Y-141235000D01*
X143485000Y-141235000D02*
X143485000Y-138950000D01*
G04 #@! TO.C,D4*
X146485000Y-141235000D02*
X146485000Y-138950000D01*
X145015000Y-141235000D02*
X146485000Y-141235000D01*
X145015000Y-138950000D02*
X145015000Y-141235000D01*
G04 #@! TO.C,D5*
X88015000Y-135662500D02*
X88015000Y-137947500D01*
X88015000Y-137947500D02*
X89485000Y-137947500D01*
X89485000Y-137947500D02*
X89485000Y-135662500D01*
G04 #@! TO.C,X1*
X119400000Y-120325000D02*
X119400000Y-117175000D01*
X119400000Y-117175000D02*
X115600000Y-117175000D01*
D11*
G04 #@! TO.C,U1*
X123275000Y-135425000D02*
X124275000Y-135425000D01*
X123275000Y-125075000D02*
X124350000Y-125075000D01*
X133625000Y-125075000D02*
X132550000Y-125075000D01*
X133625000Y-135425000D02*
X132550000Y-135425000D01*
X123275000Y-135425000D02*
X123275000Y-134350000D01*
X133625000Y-135425000D02*
X133625000Y-134350000D01*
X133625000Y-125075000D02*
X133625000Y-126150000D01*
X123275000Y-125075000D02*
X123275000Y-126150000D01*
X124275000Y-135425000D02*
X124275000Y-136450000D01*
G04 #@! TO.C,U3*
X120879145Y-109282378D02*
X119479145Y-109282378D01*
X120879145Y-114382378D02*
X125029145Y-114382378D01*
X120879145Y-109232378D02*
X125029145Y-109232378D01*
X120879145Y-114382378D02*
X120879145Y-114237378D01*
X125029145Y-114382378D02*
X125029145Y-114237378D01*
X125029145Y-109232378D02*
X125029145Y-109377378D01*
X120879145Y-109232378D02*
X120879145Y-109282378D01*
G04 #@! TO.C,U4*
X100455000Y-134595000D02*
X100505000Y-134595000D01*
X100455000Y-130445000D02*
X100600000Y-130445000D01*
X105605000Y-130445000D02*
X105460000Y-130445000D01*
X105605000Y-134595000D02*
X105460000Y-134595000D01*
X100455000Y-134595000D02*
X100455000Y-130445000D01*
X105605000Y-134595000D02*
X105605000Y-130445000D01*
X100505000Y-134595000D02*
X100505000Y-135995000D01*
D12*
G04 #@! TO.C,U2*
X104170000Y-142730000D02*
X114410000Y-142730000D01*
X104170000Y-147371000D02*
X114410000Y-147371000D01*
X104170000Y-142730000D02*
X104170000Y-147371000D01*
X114410000Y-142730000D02*
X114410000Y-147371000D01*
X104170000Y-144240000D02*
X114410000Y-144240000D01*
X107440000Y-142730000D02*
X107440000Y-144240000D01*
X111141000Y-142730000D02*
X111141000Y-144240000D01*
G04 #@! TO.C,R2*
X120162779Y-132260000D02*
X119837221Y-132260000D01*
X120162779Y-131240000D02*
X119837221Y-131240000D01*
G04 #@! TO.C,R3*
X121010000Y-118912779D02*
X121010000Y-118587221D01*
X119990000Y-118912779D02*
X119990000Y-118587221D01*
G04 #@! TO.C,R4*
X136240000Y-143412779D02*
X136240000Y-143087221D01*
X137260000Y-143412779D02*
X137260000Y-143087221D01*
G04 #@! TO.C,R5*
X140260000Y-143412779D02*
X140260000Y-143087221D01*
X139240000Y-143412779D02*
X139240000Y-143087221D01*
G04 #@! TO.C,R6*
X142240000Y-143412779D02*
X142240000Y-143087221D01*
X143260000Y-143412779D02*
X143260000Y-143087221D01*
G04 #@! TO.C,R7*
X146260000Y-143412779D02*
X146260000Y-143087221D01*
X145240000Y-143412779D02*
X145240000Y-143087221D01*
G04 #@! TO.C,R8*
X86240000Y-136912779D02*
X86240000Y-136587221D01*
X87260000Y-136912779D02*
X87260000Y-136587221D01*
G04 #@! TO.C,J6*
D11*
X92166666Y-147040380D02*
X92166666Y-147754666D01*
X92119047Y-147897523D01*
X92023809Y-147992761D01*
X91880952Y-148040380D01*
X91785714Y-148040380D01*
X93071428Y-147040380D02*
X92880952Y-147040380D01*
X92785714Y-147088000D01*
X92738095Y-147135619D01*
X92642857Y-147278476D01*
X92595238Y-147468952D01*
X92595238Y-147849904D01*
X92642857Y-147945142D01*
X92690476Y-147992761D01*
X92785714Y-148040380D01*
X92976190Y-148040380D01*
X93071428Y-147992761D01*
X93119047Y-147945142D01*
X93166666Y-147849904D01*
X93166666Y-147611809D01*
X93119047Y-147516571D01*
X93071428Y-147468952D01*
X92976190Y-147421333D01*
X92785714Y-147421333D01*
X92690476Y-147468952D01*
X92642857Y-147516571D01*
X92595238Y-147611809D01*
G04 #@! TO.C,H4*
X18238095Y-15252380D02*
X18238095Y-14252380D01*
X18238095Y-14728571D02*
X18809523Y-14728571D01*
X18809523Y-15252380D02*
X18809523Y-14252380D01*
X19714285Y-14585714D02*
X19714285Y-15252380D01*
X19476190Y-14204761D02*
X19238095Y-14919047D01*
X19857142Y-14919047D01*
G04 #@! TO.C,H3*
X64238095Y-7252380D02*
X64238095Y-6252380D01*
X64238095Y-6728571D02*
X64809523Y-6728571D01*
X64809523Y-7252380D02*
X64809523Y-6252380D01*
X65190476Y-6252380D02*
X65809523Y-6252380D01*
X65476190Y-6633333D01*
X65619047Y-6633333D01*
X65714285Y-6680952D01*
X65761904Y-6728571D01*
X65809523Y-6823809D01*
X65809523Y-7061904D01*
X65761904Y-7157142D01*
X65714285Y-7204761D01*
X65619047Y-7252380D01*
X65333333Y-7252380D01*
X65238095Y-7204761D01*
X65190476Y-7157142D01*
G04 #@! TO.C,H2*
X19238095Y-7252380D02*
X19238095Y-6252380D01*
X19238095Y-6728571D02*
X19809523Y-6728571D01*
X19809523Y-7252380D02*
X19809523Y-6252380D01*
X20238095Y-6347619D02*
X20285714Y-6300000D01*
X20380952Y-6252380D01*
X20619047Y-6252380D01*
X20714285Y-6300000D01*
X20761904Y-6347619D01*
X20809523Y-6442857D01*
X20809523Y-6538095D01*
X20761904Y-6680952D01*
X20190476Y-7252380D01*
X20809523Y-7252380D01*
G04 #@! TO.C,H1*
X64238095Y-115252380D02*
X64238095Y-114252380D01*
X64238095Y-114728571D02*
X64809523Y-114728571D01*
X64809523Y-115252380D02*
X64809523Y-114252380D01*
X65809523Y-115252380D02*
X65238095Y-115252380D01*
X65523809Y-115252380D02*
X65523809Y-114252380D01*
X65428571Y-114395238D01*
X65333333Y-114490476D01*
X65238095Y-114538095D01*
G04 #@! TO.C,H5*
X10238095Y-106252380D02*
X10238095Y-105252380D01*
X10238095Y-105728571D02*
X10809523Y-105728571D01*
X10809523Y-106252380D02*
X10809523Y-105252380D01*
X11761904Y-105252380D02*
X11285714Y-105252380D01*
X11238095Y-105728571D01*
X11285714Y-105680952D01*
X11380952Y-105633333D01*
X11619047Y-105633333D01*
X11714285Y-105680952D01*
X11761904Y-105728571D01*
X11809523Y-105823809D01*
X11809523Y-106061904D01*
X11761904Y-106157142D01*
X11714285Y-106204761D01*
X11619047Y-106252380D01*
X11380952Y-106252380D01*
X11285714Y-106204761D01*
X11238095Y-106157142D01*
G04 #@! TO.C,H7*
X10238095Y-61252380D02*
X10238095Y-60252380D01*
X10238095Y-60728571D02*
X10809523Y-60728571D01*
X10809523Y-61252380D02*
X10809523Y-60252380D01*
X11190476Y-60252380D02*
X11857142Y-60252380D01*
X11428571Y-61252380D01*
G04 #@! TO.C,H8*
X118238095Y-61252380D02*
X118238095Y-60252380D01*
X118238095Y-60728571D02*
X118809523Y-60728571D01*
X118809523Y-61252380D02*
X118809523Y-60252380D01*
X119428571Y-60680952D02*
X119333333Y-60633333D01*
X119285714Y-60585714D01*
X119238095Y-60490476D01*
X119238095Y-60442857D01*
X119285714Y-60347619D01*
X119333333Y-60300000D01*
X119428571Y-60252380D01*
X119619047Y-60252380D01*
X119714285Y-60300000D01*
X119761904Y-60347619D01*
X119809523Y-60442857D01*
X119809523Y-60490476D01*
X119761904Y-60585714D01*
X119714285Y-60633333D01*
X119619047Y-60680952D01*
X119428571Y-60680952D01*
X119333333Y-60728571D01*
X119285714Y-60776190D01*
X119238095Y-60871428D01*
X119238095Y-61061904D01*
X119285714Y-61157142D01*
X119333333Y-61204761D01*
X119428571Y-61252380D01*
X119619047Y-61252380D01*
X119714285Y-61204761D01*
X119761904Y-61157142D01*
X119809523Y-61061904D01*
X119809523Y-60871428D01*
X119761904Y-60776190D01*
X119714285Y-60728571D01*
X119619047Y-60680952D01*
G04 #@! TO.C,H10*
X18761904Y-115252380D02*
X18761904Y-114252380D01*
X18761904Y-114728571D02*
X19333333Y-114728571D01*
X19333333Y-115252380D02*
X19333333Y-114252380D01*
X20333333Y-115252380D02*
X19761904Y-115252380D01*
X20047619Y-115252380D02*
X20047619Y-114252380D01*
X19952380Y-114395238D01*
X19857142Y-114490476D01*
X19761904Y-114538095D01*
X20952380Y-114252380D02*
X21047619Y-114252380D01*
X21142857Y-114300000D01*
X21190476Y-114347619D01*
X21238095Y-114442857D01*
X21285714Y-114633333D01*
X21285714Y-114871428D01*
X21238095Y-115061904D01*
X21190476Y-115157142D01*
X21142857Y-115204761D01*
X21047619Y-115252380D01*
X20952380Y-115252380D01*
X20857142Y-115204761D01*
X20809523Y-115157142D01*
X20761904Y-115061904D01*
X20714285Y-114871428D01*
X20714285Y-114633333D01*
X20761904Y-114442857D01*
X20809523Y-114347619D01*
X20857142Y-114300000D01*
X20952380Y-114252380D01*
G04 #@! TO.C,H11*
X109761904Y-15252380D02*
X109761904Y-14252380D01*
X109761904Y-14728571D02*
X110333333Y-14728571D01*
X110333333Y-15252380D02*
X110333333Y-14252380D01*
X111333333Y-15252380D02*
X110761904Y-15252380D01*
X111047619Y-15252380D02*
X111047619Y-14252380D01*
X110952380Y-14395238D01*
X110857142Y-14490476D01*
X110761904Y-14538095D01*
X112285714Y-15252380D02*
X111714285Y-15252380D01*
X112000000Y-15252380D02*
X112000000Y-14252380D01*
X111904761Y-14395238D01*
X111809523Y-14490476D01*
X111714285Y-14538095D01*
G04 #@! TO.C,H6*
X18238095Y-107252380D02*
X18238095Y-106252380D01*
X18238095Y-106728571D02*
X18809523Y-106728571D01*
X18809523Y-107252380D02*
X18809523Y-106252380D01*
X19714285Y-106252380D02*
X19523809Y-106252380D01*
X19428571Y-106300000D01*
X19380952Y-106347619D01*
X19285714Y-106490476D01*
X19238095Y-106680952D01*
X19238095Y-107061904D01*
X19285714Y-107157142D01*
X19333333Y-107204761D01*
X19428571Y-107252380D01*
X19619047Y-107252380D01*
X19714285Y-107204761D01*
X19761904Y-107157142D01*
X19809523Y-107061904D01*
X19809523Y-106823809D01*
X19761904Y-106728571D01*
X19714285Y-106680952D01*
X19619047Y-106633333D01*
X19428571Y-106633333D01*
X19333333Y-106680952D01*
X19285714Y-106728571D01*
X19238095Y-106823809D01*
G04 #@! TO.C,R1*
X115272380Y-137704166D02*
X114796190Y-138037500D01*
X115272380Y-138275595D02*
X114272380Y-138275595D01*
X114272380Y-137894642D01*
X114320000Y-137799404D01*
X114367619Y-137751785D01*
X114462857Y-137704166D01*
X114605714Y-137704166D01*
X114700952Y-137751785D01*
X114748571Y-137799404D01*
X114796190Y-137894642D01*
X114796190Y-138275595D01*
X115272380Y-136751785D02*
X115272380Y-137323214D01*
X115272380Y-137037500D02*
X114272380Y-137037500D01*
X114415238Y-137132738D01*
X114510476Y-137227976D01*
X114558095Y-137323214D01*
G04 #@! TO.C,C4*
X120927142Y-138416666D02*
X120974761Y-138464285D01*
X121022380Y-138607142D01*
X121022380Y-138702380D01*
X120974761Y-138845238D01*
X120879523Y-138940476D01*
X120784285Y-138988095D01*
X120593809Y-139035714D01*
X120450952Y-139035714D01*
X120260476Y-138988095D01*
X120165238Y-138940476D01*
X120070000Y-138845238D01*
X120022380Y-138702380D01*
X120022380Y-138607142D01*
X120070000Y-138464285D01*
X120117619Y-138416666D01*
X120355714Y-137559523D02*
X121022380Y-137559523D01*
X119974761Y-137797619D02*
X120689047Y-138035714D01*
X120689047Y-137416666D01*
G04 #@! TO.C,C22*
X116957142Y-143642857D02*
X117004761Y-143690476D01*
X117052380Y-143833333D01*
X117052380Y-143928571D01*
X117004761Y-144071428D01*
X116909523Y-144166666D01*
X116814285Y-144214285D01*
X116623809Y-144261904D01*
X116480952Y-144261904D01*
X116290476Y-144214285D01*
X116195238Y-144166666D01*
X116100000Y-144071428D01*
X116052380Y-143928571D01*
X116052380Y-143833333D01*
X116100000Y-143690476D01*
X116147619Y-143642857D01*
X116147619Y-143261904D02*
X116100000Y-143214285D01*
X116052380Y-143119047D01*
X116052380Y-142880952D01*
X116100000Y-142785714D01*
X116147619Y-142738095D01*
X116242857Y-142690476D01*
X116338095Y-142690476D01*
X116480952Y-142738095D01*
X117052380Y-143309523D01*
X117052380Y-142690476D01*
X116147619Y-142309523D02*
X116100000Y-142261904D01*
X116052380Y-142166666D01*
X116052380Y-141928571D01*
X116100000Y-141833333D01*
X116147619Y-141785714D01*
X116242857Y-141738095D01*
X116338095Y-141738095D01*
X116480952Y-141785714D01*
X117052380Y-142357142D01*
X117052380Y-141738095D01*
G04 #@! TO.C,C13*
X114457142Y-143642857D02*
X114504761Y-143690476D01*
X114552380Y-143833333D01*
X114552380Y-143928571D01*
X114504761Y-144071428D01*
X114409523Y-144166666D01*
X114314285Y-144214285D01*
X114123809Y-144261904D01*
X113980952Y-144261904D01*
X113790476Y-144214285D01*
X113695238Y-144166666D01*
X113600000Y-144071428D01*
X113552380Y-143928571D01*
X113552380Y-143833333D01*
X113600000Y-143690476D01*
X113647619Y-143642857D01*
X114552380Y-142690476D02*
X114552380Y-143261904D01*
X114552380Y-142976190D02*
X113552380Y-142976190D01*
X113695238Y-143071428D01*
X113790476Y-143166666D01*
X113838095Y-143261904D01*
X113552380Y-142357142D02*
X113552380Y-141738095D01*
X113933333Y-142071428D01*
X113933333Y-141928571D01*
X113980952Y-141833333D01*
X114028571Y-141785714D01*
X114123809Y-141738095D01*
X114361904Y-141738095D01*
X114457142Y-141785714D01*
X114504761Y-141833333D01*
X114552380Y-141928571D01*
X114552380Y-142214285D01*
X114504761Y-142309523D01*
X114457142Y-142357142D01*
G04 #@! TO.C,C11*
X137957142Y-125392857D02*
X138004761Y-125440476D01*
X138052380Y-125583333D01*
X138052380Y-125678571D01*
X138004761Y-125821428D01*
X137909523Y-125916666D01*
X137814285Y-125964285D01*
X137623809Y-126011904D01*
X137480952Y-126011904D01*
X137290476Y-125964285D01*
X137195238Y-125916666D01*
X137100000Y-125821428D01*
X137052380Y-125678571D01*
X137052380Y-125583333D01*
X137100000Y-125440476D01*
X137147619Y-125392857D01*
X138052380Y-124440476D02*
X138052380Y-125011904D01*
X138052380Y-124726190D02*
X137052380Y-124726190D01*
X137195238Y-124821428D01*
X137290476Y-124916666D01*
X137338095Y-125011904D01*
X138052380Y-123488095D02*
X138052380Y-124059523D01*
X138052380Y-123773809D02*
X137052380Y-123773809D01*
X137195238Y-123869047D01*
X137290476Y-123964285D01*
X137338095Y-124059523D01*
G04 #@! TO.C,C10*
X101457142Y-146142857D02*
X101504761Y-146190476D01*
X101552380Y-146333333D01*
X101552380Y-146428571D01*
X101504761Y-146571428D01*
X101409523Y-146666666D01*
X101314285Y-146714285D01*
X101123809Y-146761904D01*
X100980952Y-146761904D01*
X100790476Y-146714285D01*
X100695238Y-146666666D01*
X100600000Y-146571428D01*
X100552380Y-146428571D01*
X100552380Y-146333333D01*
X100600000Y-146190476D01*
X100647619Y-146142857D01*
X101552380Y-145190476D02*
X101552380Y-145761904D01*
X101552380Y-145476190D02*
X100552380Y-145476190D01*
X100695238Y-145571428D01*
X100790476Y-145666666D01*
X100838095Y-145761904D01*
X100552380Y-144571428D02*
X100552380Y-144476190D01*
X100600000Y-144380952D01*
X100647619Y-144333333D01*
X100742857Y-144285714D01*
X100933333Y-144238095D01*
X101171428Y-144238095D01*
X101361904Y-144285714D01*
X101457142Y-144333333D01*
X101504761Y-144380952D01*
X101552380Y-144476190D01*
X101552380Y-144571428D01*
X101504761Y-144666666D01*
X101457142Y-144714285D01*
X101361904Y-144761904D01*
X101171428Y-144809523D01*
X100933333Y-144809523D01*
X100742857Y-144761904D01*
X100647619Y-144714285D01*
X100600000Y-144666666D01*
X100552380Y-144571428D01*
G04 #@! TO.C,C7*
X137083333Y-126457142D02*
X137035714Y-126504761D01*
X136892857Y-126552380D01*
X136797619Y-126552380D01*
X136654761Y-126504761D01*
X136559523Y-126409523D01*
X136511904Y-126314285D01*
X136464285Y-126123809D01*
X136464285Y-125980952D01*
X136511904Y-125790476D01*
X136559523Y-125695238D01*
X136654761Y-125600000D01*
X136797619Y-125552380D01*
X136892857Y-125552380D01*
X137035714Y-125600000D01*
X137083333Y-125647619D01*
X137416666Y-125552380D02*
X138083333Y-125552380D01*
X137654761Y-126552380D01*
G04 #@! TO.C,C1*
X125083333Y-145957142D02*
X125035714Y-146004761D01*
X124892857Y-146052380D01*
X124797619Y-146052380D01*
X124654761Y-146004761D01*
X124559523Y-145909523D01*
X124511904Y-145814285D01*
X124464285Y-145623809D01*
X124464285Y-145480952D01*
X124511904Y-145290476D01*
X124559523Y-145195238D01*
X124654761Y-145100000D01*
X124797619Y-145052380D01*
X124892857Y-145052380D01*
X125035714Y-145100000D01*
X125083333Y-145147619D01*
X126035714Y-146052380D02*
X125464285Y-146052380D01*
X125750000Y-146052380D02*
X125750000Y-145052380D01*
X125654761Y-145195238D01*
X125559523Y-145290476D01*
X125464285Y-145338095D01*
G04 #@! TO.C,C23*
X94107142Y-131957142D02*
X94059523Y-132004761D01*
X93916666Y-132052380D01*
X93821428Y-132052380D01*
X93678571Y-132004761D01*
X93583333Y-131909523D01*
X93535714Y-131814285D01*
X93488095Y-131623809D01*
X93488095Y-131480952D01*
X93535714Y-131290476D01*
X93583333Y-131195238D01*
X93678571Y-131100000D01*
X93821428Y-131052380D01*
X93916666Y-131052380D01*
X94059523Y-131100000D01*
X94107142Y-131147619D01*
X94488095Y-131147619D02*
X94535714Y-131100000D01*
X94630952Y-131052380D01*
X94869047Y-131052380D01*
X94964285Y-131100000D01*
X95011904Y-131147619D01*
X95059523Y-131242857D01*
X95059523Y-131338095D01*
X95011904Y-131480952D01*
X94440476Y-132052380D01*
X95059523Y-132052380D01*
X95392857Y-131052380D02*
X96011904Y-131052380D01*
X95678571Y-131433333D01*
X95821428Y-131433333D01*
X95916666Y-131480952D01*
X95964285Y-131528571D01*
X96011904Y-131623809D01*
X96011904Y-131861904D01*
X95964285Y-131957142D01*
X95916666Y-132004761D01*
X95821428Y-132052380D01*
X95535714Y-132052380D01*
X95440476Y-132004761D01*
X95392857Y-131957142D01*
G04 #@! TO.C,C2*
X129083333Y-149257142D02*
X129035714Y-149304761D01*
X128892857Y-149352380D01*
X128797619Y-149352380D01*
X128654761Y-149304761D01*
X128559523Y-149209523D01*
X128511904Y-149114285D01*
X128464285Y-148923809D01*
X128464285Y-148780952D01*
X128511904Y-148590476D01*
X128559523Y-148495238D01*
X128654761Y-148400000D01*
X128797619Y-148352380D01*
X128892857Y-148352380D01*
X129035714Y-148400000D01*
X129083333Y-148447619D01*
X129464285Y-148447619D02*
X129511904Y-148400000D01*
X129607142Y-148352380D01*
X129845238Y-148352380D01*
X129940476Y-148400000D01*
X129988095Y-148447619D01*
X130035714Y-148542857D01*
X130035714Y-148638095D01*
X129988095Y-148780952D01*
X129416666Y-149352380D01*
X130035714Y-149352380D01*
G04 #@! TO.C,C6*
X137583333Y-131787142D02*
X137535714Y-131834761D01*
X137392857Y-131882380D01*
X137297619Y-131882380D01*
X137154761Y-131834761D01*
X137059523Y-131739523D01*
X137011904Y-131644285D01*
X136964285Y-131453809D01*
X136964285Y-131310952D01*
X137011904Y-131120476D01*
X137059523Y-131025238D01*
X137154761Y-130930000D01*
X137297619Y-130882380D01*
X137392857Y-130882380D01*
X137535714Y-130930000D01*
X137583333Y-130977619D01*
X138440476Y-130882380D02*
X138250000Y-130882380D01*
X138154761Y-130930000D01*
X138107142Y-130977619D01*
X138011904Y-131120476D01*
X137964285Y-131310952D01*
X137964285Y-131691904D01*
X138011904Y-131787142D01*
X138059523Y-131834761D01*
X138154761Y-131882380D01*
X138345238Y-131882380D01*
X138440476Y-131834761D01*
X138488095Y-131787142D01*
X138535714Y-131691904D01*
X138535714Y-131453809D01*
X138488095Y-131358571D01*
X138440476Y-131310952D01*
X138345238Y-131263333D01*
X138154761Y-131263333D01*
X138059523Y-131310952D01*
X138011904Y-131358571D01*
X137964285Y-131453809D01*
G04 #@! TO.C,C5*
X135287142Y-124416666D02*
X135334761Y-124464285D01*
X135382380Y-124607142D01*
X135382380Y-124702380D01*
X135334761Y-124845238D01*
X135239523Y-124940476D01*
X135144285Y-124988095D01*
X134953809Y-125035714D01*
X134810952Y-125035714D01*
X134620476Y-124988095D01*
X134525238Y-124940476D01*
X134430000Y-124845238D01*
X134382380Y-124702380D01*
X134382380Y-124607142D01*
X134430000Y-124464285D01*
X134477619Y-124416666D01*
X134382380Y-123511904D02*
X134382380Y-123988095D01*
X134858571Y-124035714D01*
X134810952Y-123988095D01*
X134763333Y-123892857D01*
X134763333Y-123654761D01*
X134810952Y-123559523D01*
X134858571Y-123511904D01*
X134953809Y-123464285D01*
X135191904Y-123464285D01*
X135287142Y-123511904D01*
X135334761Y-123559523D01*
X135382380Y-123654761D01*
X135382380Y-123892857D01*
X135334761Y-123988095D01*
X135287142Y-124035714D01*
G04 #@! TO.C,C8*
X123787142Y-121416666D02*
X123834761Y-121464285D01*
X123882380Y-121607142D01*
X123882380Y-121702380D01*
X123834761Y-121845238D01*
X123739523Y-121940476D01*
X123644285Y-121988095D01*
X123453809Y-122035714D01*
X123310952Y-122035714D01*
X123120476Y-121988095D01*
X123025238Y-121940476D01*
X122930000Y-121845238D01*
X122882380Y-121702380D01*
X122882380Y-121607142D01*
X122930000Y-121464285D01*
X122977619Y-121416666D01*
X123310952Y-120845238D02*
X123263333Y-120940476D01*
X123215714Y-120988095D01*
X123120476Y-121035714D01*
X123072857Y-121035714D01*
X122977619Y-120988095D01*
X122930000Y-120940476D01*
X122882380Y-120845238D01*
X122882380Y-120654761D01*
X122930000Y-120559523D01*
X122977619Y-120511904D01*
X123072857Y-120464285D01*
X123120476Y-120464285D01*
X123215714Y-120511904D01*
X123263333Y-120559523D01*
X123310952Y-120654761D01*
X123310952Y-120845238D01*
X123358571Y-120940476D01*
X123406190Y-120988095D01*
X123501428Y-121035714D01*
X123691904Y-121035714D01*
X123787142Y-120988095D01*
X123834761Y-120940476D01*
X123882380Y-120845238D01*
X123882380Y-120654761D01*
X123834761Y-120559523D01*
X123787142Y-120511904D01*
X123691904Y-120464285D01*
X123501428Y-120464285D01*
X123406190Y-120511904D01*
X123358571Y-120559523D01*
X123310952Y-120654761D01*
G04 #@! TO.C,C9*
X122083333Y-140177142D02*
X122035714Y-140224761D01*
X121892857Y-140272380D01*
X121797619Y-140272380D01*
X121654761Y-140224761D01*
X121559523Y-140129523D01*
X121511904Y-140034285D01*
X121464285Y-139843809D01*
X121464285Y-139700952D01*
X121511904Y-139510476D01*
X121559523Y-139415238D01*
X121654761Y-139320000D01*
X121797619Y-139272380D01*
X121892857Y-139272380D01*
X122035714Y-139320000D01*
X122083333Y-139367619D01*
X122559523Y-140272380D02*
X122750000Y-140272380D01*
X122845238Y-140224761D01*
X122892857Y-140177142D01*
X122988095Y-140034285D01*
X123035714Y-139843809D01*
X123035714Y-139462857D01*
X122988095Y-139367619D01*
X122940476Y-139320000D01*
X122845238Y-139272380D01*
X122654761Y-139272380D01*
X122559523Y-139320000D01*
X122511904Y-139367619D01*
X122464285Y-139462857D01*
X122464285Y-139700952D01*
X122511904Y-139796190D01*
X122559523Y-139843809D01*
X122654761Y-139891428D01*
X122845238Y-139891428D01*
X122940476Y-139843809D01*
X122988095Y-139796190D01*
X123035714Y-139700952D01*
G04 #@! TO.C,C3*
X119733333Y-120287142D02*
X119685714Y-120334761D01*
X119542857Y-120382380D01*
X119447619Y-120382380D01*
X119304761Y-120334761D01*
X119209523Y-120239523D01*
X119161904Y-120144285D01*
X119114285Y-119953809D01*
X119114285Y-119810952D01*
X119161904Y-119620476D01*
X119209523Y-119525238D01*
X119304761Y-119430000D01*
X119447619Y-119382380D01*
X119542857Y-119382380D01*
X119685714Y-119430000D01*
X119733333Y-119477619D01*
X120066666Y-119382380D02*
X120685714Y-119382380D01*
X120352380Y-119763333D01*
X120495238Y-119763333D01*
X120590476Y-119810952D01*
X120638095Y-119858571D01*
X120685714Y-119953809D01*
X120685714Y-120191904D01*
X120638095Y-120287142D01*
X120590476Y-120334761D01*
X120495238Y-120382380D01*
X120209523Y-120382380D01*
X120114285Y-120334761D01*
X120066666Y-120287142D01*
G04 #@! TO.C,C12*
X132107142Y-137787142D02*
X132059523Y-137834761D01*
X131916666Y-137882380D01*
X131821428Y-137882380D01*
X131678571Y-137834761D01*
X131583333Y-137739523D01*
X131535714Y-137644285D01*
X131488095Y-137453809D01*
X131488095Y-137310952D01*
X131535714Y-137120476D01*
X131583333Y-137025238D01*
X131678571Y-136930000D01*
X131821428Y-136882380D01*
X131916666Y-136882380D01*
X132059523Y-136930000D01*
X132107142Y-136977619D01*
X133059523Y-137882380D02*
X132488095Y-137882380D01*
X132773809Y-137882380D02*
X132773809Y-136882380D01*
X132678571Y-137025238D01*
X132583333Y-137120476D01*
X132488095Y-137168095D01*
X133440476Y-136977619D02*
X133488095Y-136930000D01*
X133583333Y-136882380D01*
X133821428Y-136882380D01*
X133916666Y-136930000D01*
X133964285Y-136977619D01*
X134011904Y-137072857D01*
X134011904Y-137168095D01*
X133964285Y-137310952D01*
X133392857Y-137882380D01*
X134011904Y-137882380D01*
G04 #@! TO.C,C14*
X129020879Y-109787142D02*
X128973260Y-109834761D01*
X128830403Y-109882380D01*
X128735165Y-109882380D01*
X128592308Y-109834761D01*
X128497070Y-109739523D01*
X128449451Y-109644285D01*
X128401832Y-109453809D01*
X128401832Y-109310952D01*
X128449451Y-109120476D01*
X128497070Y-109025238D01*
X128592308Y-108930000D01*
X128735165Y-108882380D01*
X128830403Y-108882380D01*
X128973260Y-108930000D01*
X129020879Y-108977619D01*
X129973260Y-109882380D02*
X129401832Y-109882380D01*
X129687546Y-109882380D02*
X129687546Y-108882380D01*
X129592308Y-109025238D01*
X129497070Y-109120476D01*
X129401832Y-109168095D01*
X130830403Y-109215714D02*
X130830403Y-109882380D01*
X130592308Y-108834761D02*
X130354213Y-109549047D01*
X130973260Y-109549047D01*
G04 #@! TO.C,C15*
X101567142Y-126512857D02*
X101614761Y-126560476D01*
X101662380Y-126703333D01*
X101662380Y-126798571D01*
X101614761Y-126941428D01*
X101519523Y-127036666D01*
X101424285Y-127084285D01*
X101233809Y-127131904D01*
X101090952Y-127131904D01*
X100900476Y-127084285D01*
X100805238Y-127036666D01*
X100710000Y-126941428D01*
X100662380Y-126798571D01*
X100662380Y-126703333D01*
X100710000Y-126560476D01*
X100757619Y-126512857D01*
X101662380Y-125560476D02*
X101662380Y-126131904D01*
X101662380Y-125846190D02*
X100662380Y-125846190D01*
X100805238Y-125941428D01*
X100900476Y-126036666D01*
X100948095Y-126131904D01*
X100662380Y-124655714D02*
X100662380Y-125131904D01*
X101138571Y-125179523D01*
X101090952Y-125131904D01*
X101043333Y-125036666D01*
X101043333Y-124798571D01*
X101090952Y-124703333D01*
X101138571Y-124655714D01*
X101233809Y-124608095D01*
X101471904Y-124608095D01*
X101567142Y-124655714D01*
X101614761Y-124703333D01*
X101662380Y-124798571D01*
X101662380Y-125036666D01*
X101614761Y-125131904D01*
X101567142Y-125179523D01*
G04 #@! TO.C,C17*
X89607142Y-134927142D02*
X89559523Y-134974761D01*
X89416666Y-135022380D01*
X89321428Y-135022380D01*
X89178571Y-134974761D01*
X89083333Y-134879523D01*
X89035714Y-134784285D01*
X88988095Y-134593809D01*
X88988095Y-134450952D01*
X89035714Y-134260476D01*
X89083333Y-134165238D01*
X89178571Y-134070000D01*
X89321428Y-134022380D01*
X89416666Y-134022380D01*
X89559523Y-134070000D01*
X89607142Y-134117619D01*
X90559523Y-135022380D02*
X89988095Y-135022380D01*
X90273809Y-135022380D02*
X90273809Y-134022380D01*
X90178571Y-134165238D01*
X90083333Y-134260476D01*
X89988095Y-134308095D01*
X90892857Y-134022380D02*
X91559523Y-134022380D01*
X91130952Y-135022380D01*
G04 #@! TO.C,C18*
X118607142Y-136427142D02*
X118559523Y-136474761D01*
X118416666Y-136522380D01*
X118321428Y-136522380D01*
X118178571Y-136474761D01*
X118083333Y-136379523D01*
X118035714Y-136284285D01*
X117988095Y-136093809D01*
X117988095Y-135950952D01*
X118035714Y-135760476D01*
X118083333Y-135665238D01*
X118178571Y-135570000D01*
X118321428Y-135522380D01*
X118416666Y-135522380D01*
X118559523Y-135570000D01*
X118607142Y-135617619D01*
X119559523Y-136522380D02*
X118988095Y-136522380D01*
X119273809Y-136522380D02*
X119273809Y-135522380D01*
X119178571Y-135665238D01*
X119083333Y-135760476D01*
X118988095Y-135808095D01*
X120130952Y-135950952D02*
X120035714Y-135903333D01*
X119988095Y-135855714D01*
X119940476Y-135760476D01*
X119940476Y-135712857D01*
X119988095Y-135617619D01*
X120035714Y-135570000D01*
X120130952Y-135522380D01*
X120321428Y-135522380D01*
X120416666Y-135570000D01*
X120464285Y-135617619D01*
X120511904Y-135712857D01*
X120511904Y-135760476D01*
X120464285Y-135855714D01*
X120416666Y-135903333D01*
X120321428Y-135950952D01*
X120130952Y-135950952D01*
X120035714Y-135998571D01*
X119988095Y-136046190D01*
X119940476Y-136141428D01*
X119940476Y-136331904D01*
X119988095Y-136427142D01*
X120035714Y-136474761D01*
X120130952Y-136522380D01*
X120321428Y-136522380D01*
X120416666Y-136474761D01*
X120464285Y-136427142D01*
X120511904Y-136331904D01*
X120511904Y-136141428D01*
X120464285Y-136046190D01*
X120416666Y-135998571D01*
X120321428Y-135950952D01*
G04 #@! TO.C,C20*
X116607142Y-144537142D02*
X116559523Y-144584761D01*
X116416666Y-144632380D01*
X116321428Y-144632380D01*
X116178571Y-144584761D01*
X116083333Y-144489523D01*
X116035714Y-144394285D01*
X115988095Y-144203809D01*
X115988095Y-144060952D01*
X116035714Y-143870476D01*
X116083333Y-143775238D01*
X116178571Y-143680000D01*
X116321428Y-143632380D01*
X116416666Y-143632380D01*
X116559523Y-143680000D01*
X116607142Y-143727619D01*
X116988095Y-143727619D02*
X117035714Y-143680000D01*
X117130952Y-143632380D01*
X117369047Y-143632380D01*
X117464285Y-143680000D01*
X117511904Y-143727619D01*
X117559523Y-143822857D01*
X117559523Y-143918095D01*
X117511904Y-144060952D01*
X116940476Y-144632380D01*
X117559523Y-144632380D01*
X118178571Y-143632380D02*
X118273809Y-143632380D01*
X118369047Y-143680000D01*
X118416666Y-143727619D01*
X118464285Y-143822857D01*
X118511904Y-144013333D01*
X118511904Y-144251428D01*
X118464285Y-144441904D01*
X118416666Y-144537142D01*
X118369047Y-144584761D01*
X118273809Y-144632380D01*
X118178571Y-144632380D01*
X118083333Y-144584761D01*
X118035714Y-144537142D01*
X117988095Y-144441904D01*
X117940476Y-144251428D01*
X117940476Y-144013333D01*
X117988095Y-143822857D01*
X118035714Y-143727619D01*
X118083333Y-143680000D01*
X118178571Y-143632380D01*
G04 #@! TO.C,C21*
X115991287Y-112450235D02*
X116038906Y-112497854D01*
X116086525Y-112640711D01*
X116086525Y-112735949D01*
X116038906Y-112878806D01*
X115943668Y-112974044D01*
X115848430Y-113021663D01*
X115657954Y-113069282D01*
X115515097Y-113069282D01*
X115324621Y-113021663D01*
X115229383Y-112974044D01*
X115134145Y-112878806D01*
X115086525Y-112735949D01*
X115086525Y-112640711D01*
X115134145Y-112497854D01*
X115181764Y-112450235D01*
X115181764Y-112069282D02*
X115134145Y-112021663D01*
X115086525Y-111926425D01*
X115086525Y-111688330D01*
X115134145Y-111593092D01*
X115181764Y-111545473D01*
X115277002Y-111497854D01*
X115372240Y-111497854D01*
X115515097Y-111545473D01*
X116086525Y-112116901D01*
X116086525Y-111497854D01*
X116086525Y-110545473D02*
X116086525Y-111116901D01*
X116086525Y-110831187D02*
X115086525Y-110831187D01*
X115229383Y-110926425D01*
X115324621Y-111021663D01*
X115372240Y-111116901D01*
G04 #@! TO.C,C16*
X101887142Y-139697142D02*
X101839523Y-139744761D01*
X101696666Y-139792380D01*
X101601428Y-139792380D01*
X101458571Y-139744761D01*
X101363333Y-139649523D01*
X101315714Y-139554285D01*
X101268095Y-139363809D01*
X101268095Y-139220952D01*
X101315714Y-139030476D01*
X101363333Y-138935238D01*
X101458571Y-138840000D01*
X101601428Y-138792380D01*
X101696666Y-138792380D01*
X101839523Y-138840000D01*
X101887142Y-138887619D01*
X102839523Y-139792380D02*
X102268095Y-139792380D01*
X102553809Y-139792380D02*
X102553809Y-138792380D01*
X102458571Y-138935238D01*
X102363333Y-139030476D01*
X102268095Y-139078095D01*
X103696666Y-138792380D02*
X103506190Y-138792380D01*
X103410952Y-138840000D01*
X103363333Y-138887619D01*
X103268095Y-139030476D01*
X103220476Y-139220952D01*
X103220476Y-139601904D01*
X103268095Y-139697142D01*
X103315714Y-139744761D01*
X103410952Y-139792380D01*
X103601428Y-139792380D01*
X103696666Y-139744761D01*
X103744285Y-139697142D01*
X103791904Y-139601904D01*
X103791904Y-139363809D01*
X103744285Y-139268571D01*
X103696666Y-139220952D01*
X103601428Y-139173333D01*
X103410952Y-139173333D01*
X103315714Y-139220952D01*
X103268095Y-139268571D01*
X103220476Y-139363809D01*
G04 #@! TO.C,J5*
X114281666Y-127467380D02*
X114281666Y-128181666D01*
X114234047Y-128324523D01*
X114138809Y-128419761D01*
X113995952Y-128467380D01*
X113900714Y-128467380D01*
X115234047Y-127467380D02*
X114757857Y-127467380D01*
X114710238Y-127943571D01*
X114757857Y-127895952D01*
X114853095Y-127848333D01*
X115091190Y-127848333D01*
X115186428Y-127895952D01*
X115234047Y-127943571D01*
X115281666Y-128038809D01*
X115281666Y-128276904D01*
X115234047Y-128372142D01*
X115186428Y-128419761D01*
X115091190Y-128467380D01*
X114853095Y-128467380D01*
X114757857Y-128419761D01*
X114710238Y-128372142D01*
G04 #@! TO.C,J2*
X101317380Y-118968333D02*
X102031666Y-118968333D01*
X102174523Y-119015952D01*
X102269761Y-119111190D01*
X102317380Y-119254047D01*
X102317380Y-119349285D01*
X101412619Y-118539761D02*
X101365000Y-118492142D01*
X101317380Y-118396904D01*
X101317380Y-118158809D01*
X101365000Y-118063571D01*
X101412619Y-118015952D01*
X101507857Y-117968333D01*
X101603095Y-117968333D01*
X101745952Y-118015952D01*
X102317380Y-118587380D01*
X102317380Y-117968333D01*
G04 #@! TO.C,J1*
X118301666Y-27587380D02*
X118301666Y-28301666D01*
X118254047Y-28444523D01*
X118158809Y-28539761D01*
X118015952Y-28587380D01*
X117920714Y-28587380D01*
X119301666Y-28587380D02*
X118730238Y-28587380D01*
X119015952Y-28587380D02*
X119015952Y-27587380D01*
X118920714Y-27730238D01*
X118825476Y-27825476D01*
X118730238Y-27873095D01*
G04 #@! TO.C,J3*
X109087380Y-6698333D02*
X109801666Y-6698333D01*
X109944523Y-6745952D01*
X110039761Y-6841190D01*
X110087380Y-6984047D01*
X110087380Y-7079285D01*
X109087380Y-6317380D02*
X109087380Y-5698333D01*
X109468333Y-6031666D01*
X109468333Y-5888809D01*
X109515952Y-5793571D01*
X109563571Y-5745952D01*
X109658809Y-5698333D01*
X109896904Y-5698333D01*
X109992142Y-5745952D01*
X110039761Y-5793571D01*
X110087380Y-5888809D01*
X110087380Y-6174523D01*
X110039761Y-6269761D01*
X109992142Y-6317380D01*
G04 #@! TO.C,J4*
X6031666Y-19817380D02*
X6031666Y-20531666D01*
X5984047Y-20674523D01*
X5888809Y-20769761D01*
X5745952Y-20817380D01*
X5650714Y-20817380D01*
X6936428Y-20150714D02*
X6936428Y-20817380D01*
X6698333Y-19769761D02*
X6460238Y-20484047D01*
X7079285Y-20484047D01*
G04 #@! TO.C,Y1*
X126713809Y-139701190D02*
X126713809Y-140177380D01*
X126380476Y-139177380D02*
X126713809Y-139701190D01*
X127047142Y-139177380D01*
X127904285Y-140177380D02*
X127332857Y-140177380D01*
X127618571Y-140177380D02*
X127618571Y-139177380D01*
X127523333Y-139320238D01*
X127428095Y-139415476D01*
X127332857Y-139463095D01*
G04 #@! TO.C,FB1*
X127528571Y-139583333D02*
X127528571Y-139916666D01*
X128052380Y-139916666D02*
X127052380Y-139916666D01*
X127052380Y-139440476D01*
X127528571Y-138726190D02*
X127576190Y-138583333D01*
X127623809Y-138535714D01*
X127719047Y-138488095D01*
X127861904Y-138488095D01*
X127957142Y-138535714D01*
X128004761Y-138583333D01*
X128052380Y-138678571D01*
X128052380Y-139059523D01*
X127052380Y-139059523D01*
X127052380Y-138726190D01*
X127100000Y-138630952D01*
X127147619Y-138583333D01*
X127242857Y-138535714D01*
X127338095Y-138535714D01*
X127433333Y-138583333D01*
X127480952Y-138630952D01*
X127528571Y-138726190D01*
X127528571Y-139059523D01*
X128052380Y-137535714D02*
X128052380Y-138107142D01*
X128052380Y-137821428D02*
X127052380Y-137821428D01*
X127195238Y-137916666D01*
X127290476Y-138011904D01*
X127338095Y-138107142D01*
G04 #@! TO.C,FB2*
X128166666Y-110207471D02*
X127833333Y-110207471D01*
X127833333Y-110731280D02*
X127833333Y-109731280D01*
X128309523Y-109731280D01*
X129023809Y-110207471D02*
X129166666Y-110255090D01*
X129214285Y-110302709D01*
X129261904Y-110397947D01*
X129261904Y-110540804D01*
X129214285Y-110636042D01*
X129166666Y-110683661D01*
X129071428Y-110731280D01*
X128690476Y-110731280D01*
X128690476Y-109731280D01*
X129023809Y-109731280D01*
X129119047Y-109778900D01*
X129166666Y-109826519D01*
X129214285Y-109921757D01*
X129214285Y-110016995D01*
X129166666Y-110112233D01*
X129119047Y-110159852D01*
X129023809Y-110207471D01*
X128690476Y-110207471D01*
X129642857Y-109826519D02*
X129690476Y-109778900D01*
X129785714Y-109731280D01*
X130023809Y-109731280D01*
X130119047Y-109778900D01*
X130166666Y-109826519D01*
X130214285Y-109921757D01*
X130214285Y-110016995D01*
X130166666Y-110159852D01*
X129595238Y-110731280D01*
X130214285Y-110731280D01*
G04 #@! TO.C,FB3*
X101608571Y-127103333D02*
X101608571Y-127436666D01*
X102132380Y-127436666D02*
X101132380Y-127436666D01*
X101132380Y-126960476D01*
X101608571Y-126246190D02*
X101656190Y-126103333D01*
X101703809Y-126055714D01*
X101799047Y-126008095D01*
X101941904Y-126008095D01*
X102037142Y-126055714D01*
X102084761Y-126103333D01*
X102132380Y-126198571D01*
X102132380Y-126579523D01*
X101132380Y-126579523D01*
X101132380Y-126246190D01*
X101180000Y-126150952D01*
X101227619Y-126103333D01*
X101322857Y-126055714D01*
X101418095Y-126055714D01*
X101513333Y-126103333D01*
X101560952Y-126150952D01*
X101608571Y-126246190D01*
X101608571Y-126579523D01*
X101132380Y-125674761D02*
X101132380Y-125055714D01*
X101513333Y-125389047D01*
X101513333Y-125246190D01*
X101560952Y-125150952D01*
X101608571Y-125103333D01*
X101703809Y-125055714D01*
X101941904Y-125055714D01*
X102037142Y-125103333D01*
X102084761Y-125150952D01*
X102132380Y-125246190D01*
X102132380Y-125531904D01*
X102084761Y-125627142D01*
X102037142Y-125674761D01*
G04 #@! TO.C,D1*
X135772380Y-140488095D02*
X134772380Y-140488095D01*
X134772380Y-140250000D01*
X134820000Y-140107142D01*
X134915238Y-140011904D01*
X135010476Y-139964285D01*
X135200952Y-139916666D01*
X135343809Y-139916666D01*
X135534285Y-139964285D01*
X135629523Y-140011904D01*
X135724761Y-140107142D01*
X135772380Y-140250000D01*
X135772380Y-140488095D01*
X135772380Y-138964285D02*
X135772380Y-139535714D01*
X135772380Y-139250000D02*
X134772380Y-139250000D01*
X134915238Y-139345238D01*
X135010476Y-139440476D01*
X135058095Y-139535714D01*
G04 #@! TO.C,D2*
X138772380Y-140488095D02*
X137772380Y-140488095D01*
X137772380Y-140250000D01*
X137820000Y-140107142D01*
X137915238Y-140011904D01*
X138010476Y-139964285D01*
X138200952Y-139916666D01*
X138343809Y-139916666D01*
X138534285Y-139964285D01*
X138629523Y-140011904D01*
X138724761Y-140107142D01*
X138772380Y-140250000D01*
X138772380Y-140488095D01*
X137867619Y-139535714D02*
X137820000Y-139488095D01*
X137772380Y-139392857D01*
X137772380Y-139154761D01*
X137820000Y-139059523D01*
X137867619Y-139011904D01*
X137962857Y-138964285D01*
X138058095Y-138964285D01*
X138200952Y-139011904D01*
X138772380Y-139583333D01*
X138772380Y-138964285D01*
G04 #@! TO.C,D3*
X141772380Y-140488095D02*
X140772380Y-140488095D01*
X140772380Y-140250000D01*
X140820000Y-140107142D01*
X140915238Y-140011904D01*
X141010476Y-139964285D01*
X141200952Y-139916666D01*
X141343809Y-139916666D01*
X141534285Y-139964285D01*
X141629523Y-140011904D01*
X141724761Y-140107142D01*
X141772380Y-140250000D01*
X141772380Y-140488095D01*
X140772380Y-139583333D02*
X140772380Y-138964285D01*
X141153333Y-139297619D01*
X141153333Y-139154761D01*
X141200952Y-139059523D01*
X141248571Y-139011904D01*
X141343809Y-138964285D01*
X141581904Y-138964285D01*
X141677142Y-139011904D01*
X141724761Y-139059523D01*
X141772380Y-139154761D01*
X141772380Y-139440476D01*
X141724761Y-139535714D01*
X141677142Y-139583333D01*
G04 #@! TO.C,D4*
X144772380Y-140488095D02*
X143772380Y-140488095D01*
X143772380Y-140250000D01*
X143820000Y-140107142D01*
X143915238Y-140011904D01*
X144010476Y-139964285D01*
X144200952Y-139916666D01*
X144343809Y-139916666D01*
X144534285Y-139964285D01*
X144629523Y-140011904D01*
X144724761Y-140107142D01*
X144772380Y-140250000D01*
X144772380Y-140488095D01*
X144105714Y-139059523D02*
X144772380Y-139059523D01*
X143724761Y-139297619D02*
X144439047Y-139535714D01*
X144439047Y-138916666D01*
G04 #@! TO.C,D5*
X87772380Y-137200595D02*
X86772380Y-137200595D01*
X86772380Y-136962500D01*
X86820000Y-136819642D01*
X86915238Y-136724404D01*
X87010476Y-136676785D01*
X87200952Y-136629166D01*
X87343809Y-136629166D01*
X87534285Y-136676785D01*
X87629523Y-136724404D01*
X87724761Y-136819642D01*
X87772380Y-136962500D01*
X87772380Y-137200595D01*
X86772380Y-135724404D02*
X86772380Y-136200595D01*
X87248571Y-136248214D01*
X87200952Y-136200595D01*
X87153333Y-136105357D01*
X87153333Y-135867261D01*
X87200952Y-135772023D01*
X87248571Y-135724404D01*
X87343809Y-135676785D01*
X87581904Y-135676785D01*
X87677142Y-135724404D01*
X87724761Y-135772023D01*
X87772380Y-135867261D01*
X87772380Y-136105357D01*
X87724761Y-136200595D01*
X87677142Y-136248214D01*
G04 #@! TO.C,X1*
X116690476Y-120652380D02*
X117357142Y-121652380D01*
X117357142Y-120652380D02*
X116690476Y-121652380D01*
X118261904Y-121652380D02*
X117690476Y-121652380D01*
X117976190Y-121652380D02*
X117976190Y-120652380D01*
X117880952Y-120795238D01*
X117785714Y-120890476D01*
X117690476Y-120938095D01*
G04 #@! TO.C,U1*
X120702380Y-131011904D02*
X121511904Y-131011904D01*
X121607142Y-130964285D01*
X121654761Y-130916666D01*
X121702380Y-130821428D01*
X121702380Y-130630952D01*
X121654761Y-130535714D01*
X121607142Y-130488095D01*
X121511904Y-130440476D01*
X120702380Y-130440476D01*
X121702380Y-129440476D02*
X121702380Y-130011904D01*
X121702380Y-129726190D02*
X120702380Y-129726190D01*
X120845238Y-129821428D01*
X120940476Y-129916666D01*
X120988095Y-130011904D01*
G04 #@! TO.C,U3*
X122192240Y-107759758D02*
X122192240Y-108569282D01*
X122239859Y-108664520D01*
X122287478Y-108712139D01*
X122382716Y-108759758D01*
X122573192Y-108759758D01*
X122668430Y-108712139D01*
X122716049Y-108664520D01*
X122763668Y-108569282D01*
X122763668Y-107759758D01*
X123144621Y-107759758D02*
X123763668Y-107759758D01*
X123430335Y-108140711D01*
X123573192Y-108140711D01*
X123668430Y-108188330D01*
X123716049Y-108235949D01*
X123763668Y-108331187D01*
X123763668Y-108569282D01*
X123716049Y-108664520D01*
X123668430Y-108712139D01*
X123573192Y-108759758D01*
X123287478Y-108759758D01*
X123192240Y-108712139D01*
X123144621Y-108664520D01*
G04 #@! TO.C,U4*
X98982380Y-133281904D02*
X99791904Y-133281904D01*
X99887142Y-133234285D01*
X99934761Y-133186666D01*
X99982380Y-133091428D01*
X99982380Y-132900952D01*
X99934761Y-132805714D01*
X99887142Y-132758095D01*
X99791904Y-132710476D01*
X98982380Y-132710476D01*
X99315714Y-131805714D02*
X99982380Y-131805714D01*
X98934761Y-132043809D02*
X99649047Y-132281904D01*
X99649047Y-131662857D01*
G04 #@! TO.C,U2*
X108528095Y-141182380D02*
X108528095Y-141991904D01*
X108575714Y-142087142D01*
X108623333Y-142134761D01*
X108718571Y-142182380D01*
X108909047Y-142182380D01*
X109004285Y-142134761D01*
X109051904Y-142087142D01*
X109099523Y-141991904D01*
X109099523Y-141182380D01*
X109528095Y-141277619D02*
X109575714Y-141230000D01*
X109670952Y-141182380D01*
X109909047Y-141182380D01*
X110004285Y-141230000D01*
X110051904Y-141277619D01*
X110099523Y-141372857D01*
X110099523Y-141468095D01*
X110051904Y-141610952D01*
X109480476Y-142182380D01*
X110099523Y-142182380D01*
G04 #@! TO.C,R2*
X119833333Y-133632380D02*
X119500000Y-133156190D01*
X119261904Y-133632380D02*
X119261904Y-132632380D01*
X119642857Y-132632380D01*
X119738095Y-132680000D01*
X119785714Y-132727619D01*
X119833333Y-132822857D01*
X119833333Y-132965714D01*
X119785714Y-133060952D01*
X119738095Y-133108571D01*
X119642857Y-133156190D01*
X119261904Y-133156190D01*
X120214285Y-132727619D02*
X120261904Y-132680000D01*
X120357142Y-132632380D01*
X120595238Y-132632380D01*
X120690476Y-132680000D01*
X120738095Y-132727619D01*
X120785714Y-132822857D01*
X120785714Y-132918095D01*
X120738095Y-133060952D01*
X120166666Y-133632380D01*
X120785714Y-133632380D01*
G04 #@! TO.C,R3*
X119522380Y-118916666D02*
X119046190Y-119250000D01*
X119522380Y-119488095D02*
X118522380Y-119488095D01*
X118522380Y-119107142D01*
X118570000Y-119011904D01*
X118617619Y-118964285D01*
X118712857Y-118916666D01*
X118855714Y-118916666D01*
X118950952Y-118964285D01*
X118998571Y-119011904D01*
X119046190Y-119107142D01*
X119046190Y-119488095D01*
X118522380Y-118583333D02*
X118522380Y-117964285D01*
X118903333Y-118297619D01*
X118903333Y-118154761D01*
X118950952Y-118059523D01*
X118998571Y-118011904D01*
X119093809Y-117964285D01*
X119331904Y-117964285D01*
X119427142Y-118011904D01*
X119474761Y-118059523D01*
X119522380Y-118154761D01*
X119522380Y-118440476D01*
X119474761Y-118535714D01*
X119427142Y-118583333D01*
G04 #@! TO.C,R4*
X135772380Y-143416666D02*
X135296190Y-143750000D01*
X135772380Y-143988095D02*
X134772380Y-143988095D01*
X134772380Y-143607142D01*
X134820000Y-143511904D01*
X134867619Y-143464285D01*
X134962857Y-143416666D01*
X135105714Y-143416666D01*
X135200952Y-143464285D01*
X135248571Y-143511904D01*
X135296190Y-143607142D01*
X135296190Y-143988095D01*
X135105714Y-142559523D02*
X135772380Y-142559523D01*
X134724761Y-142797619D02*
X135439047Y-143035714D01*
X135439047Y-142416666D01*
G04 #@! TO.C,R5*
X138772380Y-143416666D02*
X138296190Y-143750000D01*
X138772380Y-143988095D02*
X137772380Y-143988095D01*
X137772380Y-143607142D01*
X137820000Y-143511904D01*
X137867619Y-143464285D01*
X137962857Y-143416666D01*
X138105714Y-143416666D01*
X138200952Y-143464285D01*
X138248571Y-143511904D01*
X138296190Y-143607142D01*
X138296190Y-143988095D01*
X137772380Y-142511904D02*
X137772380Y-142988095D01*
X138248571Y-143035714D01*
X138200952Y-142988095D01*
X138153333Y-142892857D01*
X138153333Y-142654761D01*
X138200952Y-142559523D01*
X138248571Y-142511904D01*
X138343809Y-142464285D01*
X138581904Y-142464285D01*
X138677142Y-142511904D01*
X138724761Y-142559523D01*
X138772380Y-142654761D01*
X138772380Y-142892857D01*
X138724761Y-142988095D01*
X138677142Y-143035714D01*
G04 #@! TO.C,R6*
X141772380Y-143416666D02*
X141296190Y-143750000D01*
X141772380Y-143988095D02*
X140772380Y-143988095D01*
X140772380Y-143607142D01*
X140820000Y-143511904D01*
X140867619Y-143464285D01*
X140962857Y-143416666D01*
X141105714Y-143416666D01*
X141200952Y-143464285D01*
X141248571Y-143511904D01*
X141296190Y-143607142D01*
X141296190Y-143988095D01*
X140772380Y-142559523D02*
X140772380Y-142750000D01*
X140820000Y-142845238D01*
X140867619Y-142892857D01*
X141010476Y-142988095D01*
X141200952Y-143035714D01*
X141581904Y-143035714D01*
X141677142Y-142988095D01*
X141724761Y-142940476D01*
X141772380Y-142845238D01*
X141772380Y-142654761D01*
X141724761Y-142559523D01*
X141677142Y-142511904D01*
X141581904Y-142464285D01*
X141343809Y-142464285D01*
X141248571Y-142511904D01*
X141200952Y-142559523D01*
X141153333Y-142654761D01*
X141153333Y-142845238D01*
X141200952Y-142940476D01*
X141248571Y-142988095D01*
X141343809Y-143035714D01*
G04 #@! TO.C,R7*
X144772380Y-143416666D02*
X144296190Y-143750000D01*
X144772380Y-143988095D02*
X143772380Y-143988095D01*
X143772380Y-143607142D01*
X143820000Y-143511904D01*
X143867619Y-143464285D01*
X143962857Y-143416666D01*
X144105714Y-143416666D01*
X144200952Y-143464285D01*
X144248571Y-143511904D01*
X144296190Y-143607142D01*
X144296190Y-143988095D01*
X143772380Y-143083333D02*
X143772380Y-142416666D01*
X144772380Y-142845238D01*
G04 #@! TO.C,R8*
X85772380Y-136916666D02*
X85296190Y-137250000D01*
X85772380Y-137488095D02*
X84772380Y-137488095D01*
X84772380Y-137107142D01*
X84820000Y-137011904D01*
X84867619Y-136964285D01*
X84962857Y-136916666D01*
X85105714Y-136916666D01*
X85200952Y-136964285D01*
X85248571Y-137011904D01*
X85296190Y-137107142D01*
X85296190Y-137488095D01*
X85200952Y-136345238D02*
X85153333Y-136440476D01*
X85105714Y-136488095D01*
X85010476Y-136535714D01*
X84962857Y-136535714D01*
X84867619Y-136488095D01*
X84820000Y-136440476D01*
X84772380Y-136345238D01*
X84772380Y-136154761D01*
X84820000Y-136059523D01*
X84867619Y-136011904D01*
X84962857Y-135964285D01*
X85010476Y-135964285D01*
X85105714Y-136011904D01*
X85153333Y-136059523D01*
X85200952Y-136154761D01*
X85200952Y-136345238D01*
X85248571Y-136440476D01*
X85296190Y-136488095D01*
X85391428Y-136535714D01*
X85581904Y-136535714D01*
X85677142Y-136488095D01*
X85724761Y-136440476D01*
X85772380Y-136345238D01*
X85772380Y-136154761D01*
X85724761Y-136059523D01*
X85677142Y-136011904D01*
X85581904Y-135964285D01*
X85391428Y-135964285D01*
X85296190Y-136011904D01*
X85248571Y-136059523D01*
X85200952Y-136154761D01*
G04 #@! TD*
M02*
