G04 #@! TF.GenerationSoftware,KiCad,Pcbnew,5.0.1*
G04 #@! TF.CreationDate,2019-01-16T19:26:08-05:00*
G04 #@! TF.ProjectId,main,6D61696E2E6B696361645F7063620000,rev?*
G04 #@! TF.SameCoordinates,Original*
G04 #@! TF.FileFunction,Soldermask,Bot*
G04 #@! TF.FilePolarity,Negative*
%FSLAX46Y46*%
G04 Gerber Fmt 4.6, Leading zero omitted, Abs format (unit mm)*
G04 Created by KiCad (PCBNEW 5.0.1) date Wed 16 Jan 2019 07:26:08 PM EST*
%MOMM*%
%LPD*%
G01*
G04 APERTURE LIST*
%ADD10C,0.100000*%
G04 APERTURE END LIST*
D10*
G36*
X109486719Y-144963520D02*
X109675880Y-145020901D01*
X109850212Y-145114083D01*
X110003015Y-145239485D01*
X110128417Y-145392288D01*
X110221599Y-145566619D01*
X110278980Y-145755780D01*
X110293500Y-145903206D01*
X110293500Y-146096793D01*
X110278980Y-146244219D01*
X110221599Y-146433380D01*
X110128417Y-146607712D01*
X110003015Y-146760515D01*
X109850212Y-146885917D01*
X109675881Y-146979099D01*
X109486720Y-147036480D01*
X109290000Y-147055855D01*
X109093281Y-147036480D01*
X108904120Y-146979099D01*
X108729788Y-146885917D01*
X108576985Y-146760515D01*
X108451583Y-146607712D01*
X108358401Y-146433381D01*
X108301020Y-146244220D01*
X108286500Y-146096794D01*
X108286500Y-145903207D01*
X108301020Y-145755781D01*
X108358401Y-145566620D01*
X108451583Y-145392288D01*
X108576985Y-145239485D01*
X108729788Y-145114083D01*
X108904119Y-145020901D01*
X109093280Y-144963520D01*
X109290000Y-144944145D01*
X109486719Y-144963520D01*
X109486719Y-144963520D01*
G37*
G36*
X112026719Y-144963520D02*
X112215880Y-145020901D01*
X112390212Y-145114083D01*
X112543015Y-145239485D01*
X112668417Y-145392288D01*
X112761599Y-145566619D01*
X112818980Y-145755780D01*
X112833500Y-145903206D01*
X112833500Y-146096793D01*
X112818980Y-146244219D01*
X112761599Y-146433380D01*
X112668417Y-146607712D01*
X112543015Y-146760515D01*
X112390212Y-146885917D01*
X112215881Y-146979099D01*
X112026720Y-147036480D01*
X111830000Y-147055855D01*
X111633281Y-147036480D01*
X111444120Y-146979099D01*
X111269788Y-146885917D01*
X111116985Y-146760515D01*
X110991583Y-146607712D01*
X110898401Y-146433381D01*
X110841020Y-146244220D01*
X110826500Y-146096794D01*
X110826500Y-145903207D01*
X110841020Y-145755781D01*
X110898401Y-145566620D01*
X110991583Y-145392288D01*
X111116985Y-145239485D01*
X111269788Y-145114083D01*
X111444119Y-145020901D01*
X111633280Y-144963520D01*
X111830000Y-144944145D01*
X112026719Y-144963520D01*
X112026719Y-144963520D01*
G37*
G36*
X107753500Y-147051000D02*
X105746500Y-147051000D01*
X105746500Y-144949000D01*
X107753500Y-144949000D01*
X107753500Y-147051000D01*
X107753500Y-147051000D01*
G37*
G36*
X94498228Y-143411703D02*
X94653100Y-143475853D01*
X94792481Y-143568985D01*
X94911015Y-143687519D01*
X95004147Y-143826900D01*
X95068297Y-143981772D01*
X95101000Y-144146184D01*
X95101000Y-144313816D01*
X95068297Y-144478228D01*
X95004147Y-144633100D01*
X94911015Y-144772481D01*
X94792481Y-144891015D01*
X94653100Y-144984147D01*
X94498228Y-145048297D01*
X94333816Y-145081000D01*
X94166184Y-145081000D01*
X94001772Y-145048297D01*
X93846900Y-144984147D01*
X93707519Y-144891015D01*
X93588985Y-144772481D01*
X93495853Y-144633100D01*
X93431703Y-144478228D01*
X93399000Y-144313816D01*
X93399000Y-144146184D01*
X93431703Y-143981772D01*
X93495853Y-143826900D01*
X93588985Y-143687519D01*
X93707519Y-143568985D01*
X93846900Y-143475853D01*
X94001772Y-143411703D01*
X94166184Y-143379000D01*
X94333816Y-143379000D01*
X94498228Y-143411703D01*
X94498228Y-143411703D01*
G37*
G36*
X129863643Y-142479781D02*
X130009415Y-142540162D01*
X130140611Y-142627824D01*
X130252176Y-142739389D01*
X130339838Y-142870585D01*
X130400219Y-143016357D01*
X130431000Y-143171107D01*
X130431000Y-143328893D01*
X130400219Y-143483643D01*
X130339838Y-143629415D01*
X130252176Y-143760611D01*
X130140611Y-143872176D01*
X130009415Y-143959838D01*
X129863643Y-144020219D01*
X129708893Y-144051000D01*
X129551107Y-144051000D01*
X129396357Y-144020219D01*
X129250585Y-143959838D01*
X129119389Y-143872176D01*
X129007824Y-143760611D01*
X128920162Y-143629415D01*
X128859781Y-143483643D01*
X128829000Y-143328893D01*
X128829000Y-143171107D01*
X128859781Y-143016357D01*
X128920162Y-142870585D01*
X129007824Y-142739389D01*
X129119389Y-142627824D01*
X129250585Y-142540162D01*
X129396357Y-142479781D01*
X129551107Y-142449000D01*
X129708893Y-142449000D01*
X129863643Y-142479781D01*
X129863643Y-142479781D01*
G37*
G36*
X124983643Y-142479781D02*
X125129415Y-142540162D01*
X125260611Y-142627824D01*
X125372176Y-142739389D01*
X125459838Y-142870585D01*
X125520219Y-143016357D01*
X125551000Y-143171107D01*
X125551000Y-143328893D01*
X125520219Y-143483643D01*
X125459838Y-143629415D01*
X125372176Y-143760611D01*
X125260611Y-143872176D01*
X125129415Y-143959838D01*
X124983643Y-144020219D01*
X124828893Y-144051000D01*
X124671107Y-144051000D01*
X124516357Y-144020219D01*
X124370585Y-143959838D01*
X124239389Y-143872176D01*
X124127824Y-143760611D01*
X124040162Y-143629415D01*
X123979781Y-143483643D01*
X123949000Y-143328893D01*
X123949000Y-143171107D01*
X123979781Y-143016357D01*
X124040162Y-142870585D01*
X124127824Y-142739389D01*
X124239389Y-142627824D01*
X124370585Y-142540162D01*
X124516357Y-142479781D01*
X124671107Y-142449000D01*
X124828893Y-142449000D01*
X124983643Y-142479781D01*
X124983643Y-142479781D01*
G37*
G36*
X96277396Y-141085546D02*
X96450466Y-141157234D01*
X96606230Y-141261312D01*
X96738688Y-141393770D01*
X96842766Y-141549534D01*
X96914454Y-141722604D01*
X96951000Y-141906333D01*
X96951000Y-142093667D01*
X96914454Y-142277396D01*
X96842766Y-142450466D01*
X96738688Y-142606230D01*
X96606230Y-142738688D01*
X96450466Y-142842766D01*
X96277396Y-142914454D01*
X96093667Y-142951000D01*
X95906333Y-142951000D01*
X95722604Y-142914454D01*
X95549534Y-142842766D01*
X95393770Y-142738688D01*
X95261312Y-142606230D01*
X95157234Y-142450466D01*
X95085546Y-142277396D01*
X95049000Y-142093667D01*
X95049000Y-141906333D01*
X95085546Y-141722604D01*
X95157234Y-141549534D01*
X95261312Y-141393770D01*
X95393770Y-141261312D01*
X95549534Y-141157234D01*
X95722604Y-141085546D01*
X95906333Y-141049000D01*
X96093667Y-141049000D01*
X96277396Y-141085546D01*
X96277396Y-141085546D01*
G37*
G36*
X93451000Y-142951000D02*
X91549000Y-142951000D01*
X91549000Y-141049000D01*
X93451000Y-141049000D01*
X93451000Y-142951000D01*
X93451000Y-142951000D01*
G37*
G36*
X114531000Y-129387262D02*
X114533402Y-129411648D01*
X114540515Y-129435097D01*
X114552066Y-129456708D01*
X114567612Y-129475650D01*
X114586554Y-129491196D01*
X114608165Y-129502747D01*
X114631614Y-129509860D01*
X114656000Y-129512262D01*
X114680386Y-129509860D01*
X114703835Y-129502747D01*
X114725446Y-129491196D01*
X114744388Y-129475650D01*
X114766236Y-129446192D01*
X114789644Y-129402400D01*
X114858499Y-129318499D01*
X114942400Y-129249644D01*
X115038121Y-129198479D01*
X115141985Y-129166973D01*
X115222933Y-129159000D01*
X115277067Y-129159000D01*
X115358015Y-129166973D01*
X115461879Y-129198479D01*
X115557600Y-129249644D01*
X115641501Y-129318499D01*
X115710356Y-129402400D01*
X115761521Y-129498121D01*
X115793027Y-129601985D01*
X115803666Y-129710000D01*
X115793027Y-129818015D01*
X115761521Y-129921879D01*
X115710356Y-130017600D01*
X115641501Y-130101501D01*
X115557600Y-130170356D01*
X115461879Y-130221521D01*
X115449142Y-130225385D01*
X115426507Y-130234760D01*
X115406133Y-130248374D01*
X115388806Y-130265701D01*
X115375192Y-130286076D01*
X115365814Y-130308715D01*
X115361034Y-130332748D01*
X115361034Y-130357252D01*
X115365815Y-130381286D01*
X115375192Y-130403925D01*
X115388806Y-130424299D01*
X115406133Y-130441626D01*
X115426508Y-130455240D01*
X115449142Y-130464615D01*
X115461879Y-130468479D01*
X115557600Y-130519644D01*
X115641501Y-130588499D01*
X115710356Y-130672400D01*
X115761521Y-130768121D01*
X115793027Y-130871985D01*
X115803666Y-130980000D01*
X115793027Y-131088015D01*
X115761521Y-131191879D01*
X115710356Y-131287600D01*
X115641501Y-131371501D01*
X115557600Y-131440356D01*
X115461879Y-131491521D01*
X115449142Y-131495385D01*
X115426507Y-131504760D01*
X115406133Y-131518374D01*
X115388806Y-131535701D01*
X115375192Y-131556076D01*
X115365814Y-131578715D01*
X115361034Y-131602748D01*
X115361034Y-131627252D01*
X115365815Y-131651286D01*
X115375192Y-131673925D01*
X115388806Y-131694299D01*
X115406133Y-131711626D01*
X115426508Y-131725240D01*
X115449142Y-131734615D01*
X115461879Y-131738479D01*
X115557600Y-131789644D01*
X115641501Y-131858499D01*
X115710356Y-131942400D01*
X115761521Y-132038121D01*
X115793027Y-132141985D01*
X115803666Y-132250000D01*
X115793027Y-132358015D01*
X115761521Y-132461879D01*
X115710356Y-132557600D01*
X115641501Y-132641501D01*
X115557600Y-132710356D01*
X115461879Y-132761521D01*
X115449142Y-132765385D01*
X115426507Y-132774760D01*
X115406133Y-132788374D01*
X115388806Y-132805701D01*
X115375192Y-132826076D01*
X115365814Y-132848715D01*
X115361034Y-132872748D01*
X115361034Y-132897252D01*
X115365815Y-132921286D01*
X115375192Y-132943925D01*
X115388806Y-132964299D01*
X115406133Y-132981626D01*
X115426508Y-132995240D01*
X115449142Y-133004615D01*
X115461879Y-133008479D01*
X115557600Y-133059644D01*
X115641501Y-133128499D01*
X115710356Y-133212400D01*
X115761521Y-133308121D01*
X115793027Y-133411985D01*
X115803666Y-133520000D01*
X115793027Y-133628015D01*
X115761521Y-133731879D01*
X115710356Y-133827600D01*
X115641501Y-133911501D01*
X115557600Y-133980356D01*
X115461879Y-134031521D01*
X115449142Y-134035385D01*
X115426507Y-134044760D01*
X115406133Y-134058374D01*
X115388806Y-134075701D01*
X115375192Y-134096076D01*
X115365814Y-134118715D01*
X115361034Y-134142748D01*
X115361034Y-134167252D01*
X115365815Y-134191286D01*
X115375192Y-134213925D01*
X115388806Y-134234299D01*
X115406133Y-134251626D01*
X115426508Y-134265240D01*
X115449142Y-134274615D01*
X115461879Y-134278479D01*
X115557600Y-134329644D01*
X115641501Y-134398499D01*
X115710356Y-134482400D01*
X115761521Y-134578121D01*
X115793027Y-134681985D01*
X115803666Y-134790000D01*
X115793027Y-134898015D01*
X115761521Y-135001879D01*
X115710356Y-135097600D01*
X115641501Y-135181501D01*
X115557600Y-135250356D01*
X115461879Y-135301521D01*
X115358015Y-135333027D01*
X115277067Y-135341000D01*
X115222933Y-135341000D01*
X115141985Y-135333027D01*
X115038121Y-135301521D01*
X114942400Y-135250356D01*
X114858499Y-135181501D01*
X114789644Y-135097600D01*
X114738479Y-135001879D01*
X114734615Y-134989142D01*
X114725240Y-134966507D01*
X114711626Y-134946133D01*
X114694299Y-134928806D01*
X114673924Y-134915192D01*
X114651285Y-134905814D01*
X114627252Y-134901034D01*
X114602748Y-134901034D01*
X114578714Y-134905815D01*
X114556075Y-134915192D01*
X114535701Y-134928806D01*
X114518374Y-134946133D01*
X114504760Y-134966508D01*
X114495385Y-134989142D01*
X114491521Y-135001879D01*
X114440356Y-135097600D01*
X114371501Y-135181501D01*
X114287600Y-135250356D01*
X114191879Y-135301521D01*
X114088015Y-135333027D01*
X114007067Y-135341000D01*
X113952933Y-135341000D01*
X113871985Y-135333027D01*
X113768121Y-135301521D01*
X113672400Y-135250356D01*
X113588499Y-135181501D01*
X113519644Y-135097600D01*
X113468479Y-135001879D01*
X113436973Y-134898015D01*
X113426334Y-134790000D01*
X113436973Y-134681985D01*
X113468479Y-134578121D01*
X113519644Y-134482400D01*
X113588499Y-134398499D01*
X113672400Y-134329644D01*
X113768121Y-134278479D01*
X113780858Y-134274615D01*
X113803493Y-134265240D01*
X113823867Y-134251626D01*
X113841194Y-134234299D01*
X113854808Y-134213924D01*
X113864186Y-134191285D01*
X113868966Y-134167252D01*
X113868966Y-134142748D01*
X114091034Y-134142748D01*
X114091034Y-134167252D01*
X114095815Y-134191286D01*
X114105192Y-134213925D01*
X114118806Y-134234299D01*
X114136133Y-134251626D01*
X114156508Y-134265240D01*
X114179142Y-134274615D01*
X114191879Y-134278479D01*
X114287600Y-134329644D01*
X114371501Y-134398499D01*
X114440356Y-134482400D01*
X114491521Y-134578121D01*
X114495383Y-134590854D01*
X114504760Y-134613493D01*
X114518374Y-134633867D01*
X114535701Y-134651194D01*
X114556076Y-134664808D01*
X114578715Y-134674186D01*
X114602748Y-134678966D01*
X114627252Y-134678966D01*
X114651286Y-134674185D01*
X114673925Y-134664808D01*
X114694299Y-134651194D01*
X114711626Y-134633867D01*
X114725240Y-134613492D01*
X114734617Y-134590854D01*
X114738479Y-134578121D01*
X114789644Y-134482400D01*
X114858499Y-134398499D01*
X114942400Y-134329644D01*
X115038121Y-134278479D01*
X115050858Y-134274615D01*
X115073493Y-134265240D01*
X115093867Y-134251626D01*
X115111194Y-134234299D01*
X115124808Y-134213924D01*
X115134186Y-134191285D01*
X115138966Y-134167252D01*
X115138966Y-134142748D01*
X115134185Y-134118714D01*
X115124808Y-134096075D01*
X115111194Y-134075701D01*
X115093867Y-134058374D01*
X115073492Y-134044760D01*
X115050858Y-134035385D01*
X115038121Y-134031521D01*
X114942400Y-133980356D01*
X114858499Y-133911501D01*
X114789644Y-133827600D01*
X114738479Y-133731879D01*
X114734615Y-133719142D01*
X114725240Y-133696507D01*
X114711626Y-133676133D01*
X114694299Y-133658806D01*
X114673924Y-133645192D01*
X114651285Y-133635814D01*
X114627252Y-133631034D01*
X114602748Y-133631034D01*
X114578714Y-133635815D01*
X114556075Y-133645192D01*
X114535701Y-133658806D01*
X114518374Y-133676133D01*
X114504760Y-133696508D01*
X114495385Y-133719142D01*
X114491521Y-133731879D01*
X114440356Y-133827600D01*
X114371501Y-133911501D01*
X114287600Y-133980356D01*
X114191879Y-134031521D01*
X114179142Y-134035385D01*
X114156507Y-134044760D01*
X114136133Y-134058374D01*
X114118806Y-134075701D01*
X114105192Y-134096076D01*
X114095814Y-134118715D01*
X114091034Y-134142748D01*
X113868966Y-134142748D01*
X113864185Y-134118714D01*
X113854808Y-134096075D01*
X113841194Y-134075701D01*
X113823867Y-134058374D01*
X113803492Y-134044760D01*
X113780858Y-134035385D01*
X113768121Y-134031521D01*
X113672400Y-133980356D01*
X113588499Y-133911501D01*
X113519644Y-133827600D01*
X113468479Y-133731879D01*
X113436973Y-133628015D01*
X113426334Y-133520000D01*
X113436973Y-133411985D01*
X113468479Y-133308121D01*
X113519644Y-133212400D01*
X113588499Y-133128499D01*
X113672400Y-133059644D01*
X113768121Y-133008479D01*
X113780858Y-133004615D01*
X113803493Y-132995240D01*
X113823867Y-132981626D01*
X113841194Y-132964299D01*
X113854808Y-132943924D01*
X113864186Y-132921285D01*
X113868966Y-132897252D01*
X113868966Y-132872748D01*
X114091034Y-132872748D01*
X114091034Y-132897252D01*
X114095815Y-132921286D01*
X114105192Y-132943925D01*
X114118806Y-132964299D01*
X114136133Y-132981626D01*
X114156508Y-132995240D01*
X114179142Y-133004615D01*
X114191879Y-133008479D01*
X114287600Y-133059644D01*
X114371501Y-133128499D01*
X114440356Y-133212400D01*
X114491521Y-133308121D01*
X114495383Y-133320854D01*
X114504760Y-133343493D01*
X114518374Y-133363867D01*
X114535701Y-133381194D01*
X114556076Y-133394808D01*
X114578715Y-133404186D01*
X114602748Y-133408966D01*
X114627252Y-133408966D01*
X114651286Y-133404185D01*
X114673925Y-133394808D01*
X114694299Y-133381194D01*
X114711626Y-133363867D01*
X114725240Y-133343492D01*
X114734617Y-133320854D01*
X114738479Y-133308121D01*
X114789644Y-133212400D01*
X114858499Y-133128499D01*
X114942400Y-133059644D01*
X115038121Y-133008479D01*
X115050858Y-133004615D01*
X115073493Y-132995240D01*
X115093867Y-132981626D01*
X115111194Y-132964299D01*
X115124808Y-132943924D01*
X115134186Y-132921285D01*
X115138966Y-132897252D01*
X115138966Y-132872748D01*
X115134185Y-132848714D01*
X115124808Y-132826075D01*
X115111194Y-132805701D01*
X115093867Y-132788374D01*
X115073492Y-132774760D01*
X115050858Y-132765385D01*
X115038121Y-132761521D01*
X114942400Y-132710356D01*
X114858499Y-132641501D01*
X114789644Y-132557600D01*
X114738479Y-132461879D01*
X114734615Y-132449142D01*
X114725240Y-132426507D01*
X114711626Y-132406133D01*
X114694299Y-132388806D01*
X114673924Y-132375192D01*
X114651285Y-132365814D01*
X114627252Y-132361034D01*
X114602748Y-132361034D01*
X114578714Y-132365815D01*
X114556075Y-132375192D01*
X114535701Y-132388806D01*
X114518374Y-132406133D01*
X114504760Y-132426508D01*
X114495385Y-132449142D01*
X114491521Y-132461879D01*
X114440356Y-132557600D01*
X114371501Y-132641501D01*
X114287600Y-132710356D01*
X114191879Y-132761521D01*
X114179142Y-132765385D01*
X114156507Y-132774760D01*
X114136133Y-132788374D01*
X114118806Y-132805701D01*
X114105192Y-132826076D01*
X114095814Y-132848715D01*
X114091034Y-132872748D01*
X113868966Y-132872748D01*
X113864185Y-132848714D01*
X113854808Y-132826075D01*
X113841194Y-132805701D01*
X113823867Y-132788374D01*
X113803492Y-132774760D01*
X113780858Y-132765385D01*
X113768121Y-132761521D01*
X113672400Y-132710356D01*
X113588499Y-132641501D01*
X113519644Y-132557600D01*
X113468479Y-132461879D01*
X113436973Y-132358015D01*
X113426334Y-132250000D01*
X113436973Y-132141985D01*
X113468479Y-132038121D01*
X113519644Y-131942400D01*
X113588499Y-131858499D01*
X113672400Y-131789644D01*
X113768121Y-131738479D01*
X113780858Y-131734615D01*
X113803493Y-131725240D01*
X113823867Y-131711626D01*
X113841194Y-131694299D01*
X113854808Y-131673924D01*
X113864186Y-131651285D01*
X113868966Y-131627252D01*
X113868966Y-131602748D01*
X114091034Y-131602748D01*
X114091034Y-131627252D01*
X114095815Y-131651286D01*
X114105192Y-131673925D01*
X114118806Y-131694299D01*
X114136133Y-131711626D01*
X114156508Y-131725240D01*
X114179142Y-131734615D01*
X114191879Y-131738479D01*
X114287600Y-131789644D01*
X114371501Y-131858499D01*
X114440356Y-131942400D01*
X114491521Y-132038121D01*
X114495383Y-132050854D01*
X114504760Y-132073493D01*
X114518374Y-132093867D01*
X114535701Y-132111194D01*
X114556076Y-132124808D01*
X114578715Y-132134186D01*
X114602748Y-132138966D01*
X114627252Y-132138966D01*
X114651286Y-132134185D01*
X114673925Y-132124808D01*
X114694299Y-132111194D01*
X114711626Y-132093867D01*
X114725240Y-132073492D01*
X114734617Y-132050854D01*
X114738479Y-132038121D01*
X114789644Y-131942400D01*
X114858499Y-131858499D01*
X114942400Y-131789644D01*
X115038121Y-131738479D01*
X115050858Y-131734615D01*
X115073493Y-131725240D01*
X115093867Y-131711626D01*
X115111194Y-131694299D01*
X115124808Y-131673924D01*
X115134186Y-131651285D01*
X115138966Y-131627252D01*
X115138966Y-131602748D01*
X115134185Y-131578714D01*
X115124808Y-131556075D01*
X115111194Y-131535701D01*
X115093867Y-131518374D01*
X115073492Y-131504760D01*
X115050858Y-131495385D01*
X115038121Y-131491521D01*
X114942400Y-131440356D01*
X114858499Y-131371501D01*
X114789644Y-131287600D01*
X114738479Y-131191879D01*
X114734615Y-131179142D01*
X114725240Y-131156507D01*
X114711626Y-131136133D01*
X114694299Y-131118806D01*
X114673924Y-131105192D01*
X114651285Y-131095814D01*
X114627252Y-131091034D01*
X114602748Y-131091034D01*
X114578714Y-131095815D01*
X114556075Y-131105192D01*
X114535701Y-131118806D01*
X114518374Y-131136133D01*
X114504760Y-131156508D01*
X114495385Y-131179142D01*
X114491521Y-131191879D01*
X114440356Y-131287600D01*
X114371501Y-131371501D01*
X114287600Y-131440356D01*
X114191879Y-131491521D01*
X114179142Y-131495385D01*
X114156507Y-131504760D01*
X114136133Y-131518374D01*
X114118806Y-131535701D01*
X114105192Y-131556076D01*
X114095814Y-131578715D01*
X114091034Y-131602748D01*
X113868966Y-131602748D01*
X113864185Y-131578714D01*
X113854808Y-131556075D01*
X113841194Y-131535701D01*
X113823867Y-131518374D01*
X113803492Y-131504760D01*
X113780858Y-131495385D01*
X113768121Y-131491521D01*
X113672400Y-131440356D01*
X113588499Y-131371501D01*
X113519644Y-131287600D01*
X113468479Y-131191879D01*
X113436973Y-131088015D01*
X113426334Y-130980000D01*
X113436973Y-130871985D01*
X113468479Y-130768121D01*
X113519644Y-130672400D01*
X113588499Y-130588499D01*
X113672400Y-130519644D01*
X113716195Y-130496234D01*
X113736561Y-130482626D01*
X113753889Y-130465299D01*
X113767502Y-130444924D01*
X113776880Y-130422285D01*
X113781660Y-130398252D01*
X113781660Y-130386000D01*
X114177738Y-130386000D01*
X114180140Y-130410386D01*
X114187253Y-130433835D01*
X114198804Y-130455446D01*
X114214350Y-130474388D01*
X114243808Y-130496236D01*
X114287600Y-130519644D01*
X114371501Y-130588499D01*
X114440356Y-130672400D01*
X114491521Y-130768121D01*
X114495383Y-130780854D01*
X114504760Y-130803493D01*
X114518374Y-130823867D01*
X114535701Y-130841194D01*
X114556076Y-130854808D01*
X114578715Y-130864186D01*
X114602748Y-130868966D01*
X114627252Y-130868966D01*
X114651286Y-130864185D01*
X114673925Y-130854808D01*
X114694299Y-130841194D01*
X114711626Y-130823867D01*
X114725240Y-130803492D01*
X114734617Y-130780854D01*
X114738479Y-130768121D01*
X114789644Y-130672400D01*
X114858499Y-130588499D01*
X114942400Y-130519644D01*
X115038121Y-130468479D01*
X115050858Y-130464615D01*
X115073493Y-130455240D01*
X115093867Y-130441626D01*
X115111194Y-130424299D01*
X115124808Y-130403924D01*
X115134186Y-130381285D01*
X115138966Y-130357252D01*
X115138966Y-130332748D01*
X115134185Y-130308714D01*
X115124808Y-130286075D01*
X115111194Y-130265701D01*
X115093867Y-130248374D01*
X115073492Y-130234760D01*
X115050858Y-130225385D01*
X115038121Y-130221521D01*
X114942400Y-130170356D01*
X114858499Y-130101501D01*
X114789644Y-130017600D01*
X114766234Y-129973805D01*
X114752626Y-129953439D01*
X114735299Y-129936111D01*
X114714924Y-129922498D01*
X114692285Y-129913120D01*
X114668252Y-129908340D01*
X114643748Y-129908340D01*
X114619714Y-129913121D01*
X114597075Y-129922498D01*
X114576701Y-129936112D01*
X114559373Y-129953439D01*
X114545760Y-129973814D01*
X114536382Y-129996453D01*
X114531000Y-130032738D01*
X114531000Y-130261000D01*
X114302738Y-130261000D01*
X114278352Y-130263402D01*
X114254903Y-130270515D01*
X114233292Y-130282066D01*
X114214350Y-130297612D01*
X114198804Y-130316554D01*
X114187253Y-130338165D01*
X114180140Y-130361614D01*
X114177738Y-130386000D01*
X113781660Y-130386000D01*
X113781660Y-130373748D01*
X113776879Y-130349714D01*
X113767502Y-130327075D01*
X113753888Y-130306701D01*
X113736561Y-130289373D01*
X113716186Y-130275760D01*
X113693547Y-130266382D01*
X113657262Y-130261000D01*
X113429000Y-130261000D01*
X113429000Y-129159000D01*
X114531000Y-129159000D01*
X114531000Y-129387262D01*
X114531000Y-129387262D01*
G37*
G36*
X65375256Y-117391298D02*
X65481579Y-117412447D01*
X65782042Y-117536903D01*
X66014758Y-117692399D01*
X66052454Y-117717587D01*
X66282413Y-117947546D01*
X66282415Y-117947549D01*
X66463097Y-118217958D01*
X66586295Y-118515383D01*
X66587553Y-118518422D01*
X66640826Y-118786240D01*
X66651000Y-118837391D01*
X66651000Y-119162609D01*
X66587553Y-119481579D01*
X66547780Y-119577600D01*
X66463098Y-119782040D01*
X66282413Y-120052454D01*
X66052454Y-120282413D01*
X66052451Y-120282415D01*
X65782042Y-120463097D01*
X65481579Y-120587553D01*
X65375256Y-120608702D01*
X65162611Y-120651000D01*
X64837389Y-120651000D01*
X64624744Y-120608702D01*
X64518421Y-120587553D01*
X64217958Y-120463097D01*
X63947549Y-120282415D01*
X63947546Y-120282413D01*
X63717587Y-120052454D01*
X63536902Y-119782040D01*
X63452220Y-119577600D01*
X63412447Y-119481579D01*
X63349000Y-119162609D01*
X63349000Y-118837391D01*
X63359175Y-118786240D01*
X63412447Y-118518422D01*
X63413706Y-118515383D01*
X63536903Y-118217958D01*
X63717585Y-117947549D01*
X63717587Y-117947546D01*
X63947546Y-117717587D01*
X63985242Y-117692399D01*
X64217958Y-117536903D01*
X64518421Y-117412447D01*
X64624744Y-117391298D01*
X64837389Y-117349000D01*
X65162611Y-117349000D01*
X65375256Y-117391298D01*
X65375256Y-117391298D01*
G37*
G36*
X20375256Y-117391298D02*
X20481579Y-117412447D01*
X20782042Y-117536903D01*
X21014758Y-117692399D01*
X21052454Y-117717587D01*
X21282413Y-117947546D01*
X21282415Y-117947549D01*
X21463097Y-118217958D01*
X21586295Y-118515383D01*
X21587553Y-118518422D01*
X21640826Y-118786240D01*
X21651000Y-118837391D01*
X21651000Y-119162609D01*
X21587553Y-119481579D01*
X21547780Y-119577600D01*
X21463098Y-119782040D01*
X21282413Y-120052454D01*
X21052454Y-120282413D01*
X21052451Y-120282415D01*
X20782042Y-120463097D01*
X20481579Y-120587553D01*
X20375256Y-120608702D01*
X20162611Y-120651000D01*
X19837389Y-120651000D01*
X19624744Y-120608702D01*
X19518421Y-120587553D01*
X19217958Y-120463097D01*
X18947549Y-120282415D01*
X18947546Y-120282413D01*
X18717587Y-120052454D01*
X18536902Y-119782040D01*
X18452220Y-119577600D01*
X18412447Y-119481579D01*
X18349000Y-119162609D01*
X18349000Y-118837391D01*
X18359175Y-118786240D01*
X18412447Y-118518422D01*
X18413706Y-118515383D01*
X18536903Y-118217958D01*
X18717585Y-117947549D01*
X18717587Y-117947546D01*
X18947546Y-117717587D01*
X18985242Y-117692399D01*
X19217958Y-117536903D01*
X19518421Y-117412447D01*
X19624744Y-117391298D01*
X19837389Y-117349000D01*
X20162611Y-117349000D01*
X20375256Y-117391298D01*
X20375256Y-117391298D01*
G37*
G36*
X104551000Y-117677262D02*
X104553402Y-117701648D01*
X104560515Y-117725097D01*
X104572066Y-117746708D01*
X104587612Y-117765650D01*
X104606554Y-117781196D01*
X104628165Y-117792747D01*
X104651614Y-117799860D01*
X104676000Y-117802262D01*
X104700386Y-117799860D01*
X104723835Y-117792747D01*
X104745446Y-117781196D01*
X104764388Y-117765650D01*
X104786236Y-117736192D01*
X104809644Y-117692400D01*
X104878499Y-117608499D01*
X104962400Y-117539644D01*
X105058121Y-117488479D01*
X105161985Y-117456973D01*
X105242933Y-117449000D01*
X105297067Y-117449000D01*
X105378015Y-117456973D01*
X105481879Y-117488479D01*
X105577600Y-117539644D01*
X105661501Y-117608499D01*
X105730356Y-117692400D01*
X105781521Y-117788121D01*
X105785383Y-117800854D01*
X105794760Y-117823493D01*
X105808374Y-117843867D01*
X105825701Y-117861194D01*
X105846076Y-117874808D01*
X105868715Y-117884186D01*
X105892748Y-117888966D01*
X105917252Y-117888966D01*
X105941286Y-117884185D01*
X105963925Y-117874808D01*
X105984299Y-117861194D01*
X106001626Y-117843867D01*
X106015240Y-117823492D01*
X106024617Y-117800854D01*
X106028479Y-117788121D01*
X106079644Y-117692400D01*
X106148499Y-117608499D01*
X106232400Y-117539644D01*
X106328121Y-117488479D01*
X106431985Y-117456973D01*
X106512933Y-117449000D01*
X106567067Y-117449000D01*
X106648015Y-117456973D01*
X106751879Y-117488479D01*
X106847600Y-117539644D01*
X106931501Y-117608499D01*
X107000356Y-117692400D01*
X107051521Y-117788121D01*
X107055383Y-117800854D01*
X107064760Y-117823493D01*
X107078374Y-117843867D01*
X107095701Y-117861194D01*
X107116076Y-117874808D01*
X107138715Y-117884186D01*
X107162748Y-117888966D01*
X107187252Y-117888966D01*
X107211286Y-117884185D01*
X107233925Y-117874808D01*
X107254299Y-117861194D01*
X107271626Y-117843867D01*
X107285240Y-117823492D01*
X107294617Y-117800854D01*
X107298479Y-117788121D01*
X107349644Y-117692400D01*
X107418499Y-117608499D01*
X107502400Y-117539644D01*
X107598121Y-117488479D01*
X107701985Y-117456973D01*
X107782933Y-117449000D01*
X107837067Y-117449000D01*
X107918015Y-117456973D01*
X108021879Y-117488479D01*
X108117600Y-117539644D01*
X108201501Y-117608499D01*
X108270356Y-117692400D01*
X108321521Y-117788121D01*
X108353027Y-117891985D01*
X108363666Y-118000000D01*
X108353027Y-118108015D01*
X108321521Y-118211879D01*
X108270356Y-118307600D01*
X108201501Y-118391501D01*
X108117600Y-118460356D01*
X108021879Y-118511521D01*
X108009142Y-118515385D01*
X107986507Y-118524760D01*
X107966133Y-118538374D01*
X107948806Y-118555701D01*
X107935192Y-118576076D01*
X107925814Y-118598715D01*
X107921034Y-118622748D01*
X107921034Y-118647252D01*
X107925815Y-118671286D01*
X107935192Y-118693925D01*
X107948806Y-118714299D01*
X107966133Y-118731626D01*
X107986508Y-118745240D01*
X108009142Y-118754615D01*
X108021879Y-118758479D01*
X108117600Y-118809644D01*
X108201501Y-118878499D01*
X108270356Y-118962400D01*
X108321521Y-119058121D01*
X108353027Y-119161985D01*
X108363666Y-119270000D01*
X108353027Y-119378015D01*
X108321521Y-119481879D01*
X108270356Y-119577600D01*
X108201501Y-119661501D01*
X108117600Y-119730356D01*
X108021879Y-119781521D01*
X107918015Y-119813027D01*
X107837067Y-119821000D01*
X107782933Y-119821000D01*
X107701985Y-119813027D01*
X107598121Y-119781521D01*
X107502400Y-119730356D01*
X107418499Y-119661501D01*
X107349644Y-119577600D01*
X107298479Y-119481879D01*
X107294615Y-119469142D01*
X107285240Y-119446507D01*
X107271626Y-119426133D01*
X107254299Y-119408806D01*
X107233924Y-119395192D01*
X107211285Y-119385814D01*
X107187252Y-119381034D01*
X107162748Y-119381034D01*
X107138714Y-119385815D01*
X107116075Y-119395192D01*
X107095701Y-119408806D01*
X107078374Y-119426133D01*
X107064760Y-119446508D01*
X107055385Y-119469142D01*
X107051521Y-119481879D01*
X107000356Y-119577600D01*
X106931501Y-119661501D01*
X106847600Y-119730356D01*
X106751879Y-119781521D01*
X106648015Y-119813027D01*
X106567067Y-119821000D01*
X106512933Y-119821000D01*
X106431985Y-119813027D01*
X106328121Y-119781521D01*
X106232400Y-119730356D01*
X106148499Y-119661501D01*
X106079644Y-119577600D01*
X106028479Y-119481879D01*
X106024615Y-119469142D01*
X106015240Y-119446507D01*
X106001626Y-119426133D01*
X105984299Y-119408806D01*
X105963924Y-119395192D01*
X105941285Y-119385814D01*
X105917252Y-119381034D01*
X105892748Y-119381034D01*
X105868714Y-119385815D01*
X105846075Y-119395192D01*
X105825701Y-119408806D01*
X105808374Y-119426133D01*
X105794760Y-119446508D01*
X105785385Y-119469142D01*
X105781521Y-119481879D01*
X105730356Y-119577600D01*
X105661501Y-119661501D01*
X105577600Y-119730356D01*
X105481879Y-119781521D01*
X105378015Y-119813027D01*
X105297067Y-119821000D01*
X105242933Y-119821000D01*
X105161985Y-119813027D01*
X105058121Y-119781521D01*
X104962400Y-119730356D01*
X104878499Y-119661501D01*
X104809644Y-119577600D01*
X104758479Y-119481879D01*
X104754615Y-119469142D01*
X104745240Y-119446507D01*
X104731626Y-119426133D01*
X104714299Y-119408806D01*
X104693924Y-119395192D01*
X104671285Y-119385814D01*
X104647252Y-119381034D01*
X104622748Y-119381034D01*
X104598714Y-119385815D01*
X104576075Y-119395192D01*
X104555701Y-119408806D01*
X104538374Y-119426133D01*
X104524760Y-119446508D01*
X104515385Y-119469142D01*
X104511521Y-119481879D01*
X104460356Y-119577600D01*
X104391501Y-119661501D01*
X104307600Y-119730356D01*
X104211879Y-119781521D01*
X104108015Y-119813027D01*
X104027067Y-119821000D01*
X103972933Y-119821000D01*
X103891985Y-119813027D01*
X103788121Y-119781521D01*
X103692400Y-119730356D01*
X103608499Y-119661501D01*
X103539644Y-119577600D01*
X103488479Y-119481879D01*
X103456973Y-119378015D01*
X103446334Y-119270000D01*
X103456973Y-119161985D01*
X103488479Y-119058121D01*
X103539644Y-118962400D01*
X103608499Y-118878499D01*
X103692400Y-118809644D01*
X103736195Y-118786234D01*
X103756561Y-118772626D01*
X103773889Y-118755299D01*
X103787502Y-118734924D01*
X103796880Y-118712285D01*
X103801660Y-118688252D01*
X103801660Y-118676000D01*
X104197738Y-118676000D01*
X104200140Y-118700386D01*
X104207253Y-118723835D01*
X104218804Y-118745446D01*
X104234350Y-118764388D01*
X104263808Y-118786236D01*
X104307600Y-118809644D01*
X104391501Y-118878499D01*
X104460356Y-118962400D01*
X104511521Y-119058121D01*
X104515383Y-119070854D01*
X104524760Y-119093493D01*
X104538374Y-119113867D01*
X104555701Y-119131194D01*
X104576076Y-119144808D01*
X104598715Y-119154186D01*
X104622748Y-119158966D01*
X104647252Y-119158966D01*
X104671286Y-119154185D01*
X104693925Y-119144808D01*
X104714299Y-119131194D01*
X104731626Y-119113867D01*
X104745240Y-119093492D01*
X104754617Y-119070854D01*
X104758479Y-119058121D01*
X104809644Y-118962400D01*
X104878499Y-118878499D01*
X104962400Y-118809644D01*
X105058121Y-118758479D01*
X105070858Y-118754615D01*
X105093493Y-118745240D01*
X105113867Y-118731626D01*
X105131194Y-118714299D01*
X105144808Y-118693924D01*
X105154186Y-118671285D01*
X105158966Y-118647252D01*
X105158966Y-118622748D01*
X105381034Y-118622748D01*
X105381034Y-118647252D01*
X105385815Y-118671286D01*
X105395192Y-118693925D01*
X105408806Y-118714299D01*
X105426133Y-118731626D01*
X105446508Y-118745240D01*
X105469142Y-118754615D01*
X105481879Y-118758479D01*
X105577600Y-118809644D01*
X105661501Y-118878499D01*
X105730356Y-118962400D01*
X105781521Y-119058121D01*
X105785383Y-119070854D01*
X105794760Y-119093493D01*
X105808374Y-119113867D01*
X105825701Y-119131194D01*
X105846076Y-119144808D01*
X105868715Y-119154186D01*
X105892748Y-119158966D01*
X105917252Y-119158966D01*
X105941286Y-119154185D01*
X105963925Y-119144808D01*
X105984299Y-119131194D01*
X106001626Y-119113867D01*
X106015240Y-119093492D01*
X106024617Y-119070854D01*
X106028479Y-119058121D01*
X106079644Y-118962400D01*
X106148499Y-118878499D01*
X106232400Y-118809644D01*
X106328121Y-118758479D01*
X106340858Y-118754615D01*
X106363493Y-118745240D01*
X106383867Y-118731626D01*
X106401194Y-118714299D01*
X106414808Y-118693924D01*
X106424186Y-118671285D01*
X106428966Y-118647252D01*
X106428966Y-118622748D01*
X106651034Y-118622748D01*
X106651034Y-118647252D01*
X106655815Y-118671286D01*
X106665192Y-118693925D01*
X106678806Y-118714299D01*
X106696133Y-118731626D01*
X106716508Y-118745240D01*
X106739142Y-118754615D01*
X106751879Y-118758479D01*
X106847600Y-118809644D01*
X106931501Y-118878499D01*
X107000356Y-118962400D01*
X107051521Y-119058121D01*
X107055383Y-119070854D01*
X107064760Y-119093493D01*
X107078374Y-119113867D01*
X107095701Y-119131194D01*
X107116076Y-119144808D01*
X107138715Y-119154186D01*
X107162748Y-119158966D01*
X107187252Y-119158966D01*
X107211286Y-119154185D01*
X107233925Y-119144808D01*
X107254299Y-119131194D01*
X107271626Y-119113867D01*
X107285240Y-119093492D01*
X107294617Y-119070854D01*
X107298479Y-119058121D01*
X107349644Y-118962400D01*
X107418499Y-118878499D01*
X107502400Y-118809644D01*
X107598121Y-118758479D01*
X107610858Y-118754615D01*
X107633493Y-118745240D01*
X107653867Y-118731626D01*
X107671194Y-118714299D01*
X107684808Y-118693924D01*
X107694186Y-118671285D01*
X107698966Y-118647252D01*
X107698966Y-118622748D01*
X107694185Y-118598714D01*
X107684808Y-118576075D01*
X107671194Y-118555701D01*
X107653867Y-118538374D01*
X107633492Y-118524760D01*
X107610858Y-118515385D01*
X107598121Y-118511521D01*
X107502400Y-118460356D01*
X107418499Y-118391501D01*
X107349644Y-118307600D01*
X107298479Y-118211879D01*
X107294615Y-118199142D01*
X107285240Y-118176507D01*
X107271626Y-118156133D01*
X107254299Y-118138806D01*
X107233924Y-118125192D01*
X107211285Y-118115814D01*
X107187252Y-118111034D01*
X107162748Y-118111034D01*
X107138714Y-118115815D01*
X107116075Y-118125192D01*
X107095701Y-118138806D01*
X107078374Y-118156133D01*
X107064760Y-118176508D01*
X107055385Y-118199142D01*
X107051521Y-118211879D01*
X107000356Y-118307600D01*
X106931501Y-118391501D01*
X106847600Y-118460356D01*
X106751879Y-118511521D01*
X106739142Y-118515385D01*
X106716507Y-118524760D01*
X106696133Y-118538374D01*
X106678806Y-118555701D01*
X106665192Y-118576076D01*
X106655814Y-118598715D01*
X106651034Y-118622748D01*
X106428966Y-118622748D01*
X106424185Y-118598714D01*
X106414808Y-118576075D01*
X106401194Y-118555701D01*
X106383867Y-118538374D01*
X106363492Y-118524760D01*
X106340858Y-118515385D01*
X106328121Y-118511521D01*
X106232400Y-118460356D01*
X106148499Y-118391501D01*
X106079644Y-118307600D01*
X106028479Y-118211879D01*
X106024615Y-118199142D01*
X106015240Y-118176507D01*
X106001626Y-118156133D01*
X105984299Y-118138806D01*
X105963924Y-118125192D01*
X105941285Y-118115814D01*
X105917252Y-118111034D01*
X105892748Y-118111034D01*
X105868714Y-118115815D01*
X105846075Y-118125192D01*
X105825701Y-118138806D01*
X105808374Y-118156133D01*
X105794760Y-118176508D01*
X105785385Y-118199142D01*
X105781521Y-118211879D01*
X105730356Y-118307600D01*
X105661501Y-118391501D01*
X105577600Y-118460356D01*
X105481879Y-118511521D01*
X105469142Y-118515385D01*
X105446507Y-118524760D01*
X105426133Y-118538374D01*
X105408806Y-118555701D01*
X105395192Y-118576076D01*
X105385814Y-118598715D01*
X105381034Y-118622748D01*
X105158966Y-118622748D01*
X105154185Y-118598714D01*
X105144808Y-118576075D01*
X105131194Y-118555701D01*
X105113867Y-118538374D01*
X105093492Y-118524760D01*
X105070858Y-118515385D01*
X105058121Y-118511521D01*
X104962400Y-118460356D01*
X104878499Y-118391501D01*
X104809644Y-118307600D01*
X104786234Y-118263805D01*
X104772626Y-118243439D01*
X104755299Y-118226111D01*
X104734924Y-118212498D01*
X104712285Y-118203120D01*
X104688252Y-118198340D01*
X104663748Y-118198340D01*
X104639714Y-118203121D01*
X104617075Y-118212498D01*
X104596701Y-118226112D01*
X104579373Y-118243439D01*
X104565760Y-118263814D01*
X104556382Y-118286453D01*
X104551000Y-118322738D01*
X104551000Y-118551000D01*
X104322738Y-118551000D01*
X104298352Y-118553402D01*
X104274903Y-118560515D01*
X104253292Y-118572066D01*
X104234350Y-118587612D01*
X104218804Y-118606554D01*
X104207253Y-118628165D01*
X104200140Y-118651614D01*
X104197738Y-118676000D01*
X103801660Y-118676000D01*
X103801660Y-118663748D01*
X103796879Y-118639714D01*
X103787502Y-118617075D01*
X103773888Y-118596701D01*
X103756561Y-118579373D01*
X103736186Y-118565760D01*
X103713547Y-118556382D01*
X103677262Y-118551000D01*
X103449000Y-118551000D01*
X103449000Y-117449000D01*
X104551000Y-117449000D01*
X104551000Y-117677262D01*
X104551000Y-117677262D01*
G37*
G36*
X19375256Y-109391298D02*
X19481579Y-109412447D01*
X19782042Y-109536903D01*
X20048852Y-109715180D01*
X20052454Y-109717587D01*
X20282413Y-109947546D01*
X20282415Y-109947549D01*
X20463097Y-110217958D01*
X20572293Y-110481579D01*
X20587553Y-110518422D01*
X20651000Y-110837389D01*
X20651000Y-111162611D01*
X20587553Y-111481578D01*
X20463098Y-111782040D01*
X20282413Y-112052454D01*
X20052454Y-112282413D01*
X20052451Y-112282415D01*
X19782042Y-112463097D01*
X19481579Y-112587553D01*
X19375256Y-112608702D01*
X19162611Y-112651000D01*
X18837389Y-112651000D01*
X18624744Y-112608702D01*
X18518421Y-112587553D01*
X18217958Y-112463097D01*
X17947549Y-112282415D01*
X17947546Y-112282413D01*
X17717587Y-112052454D01*
X17536902Y-111782040D01*
X17412447Y-111481578D01*
X17349000Y-111162611D01*
X17349000Y-110837389D01*
X17412447Y-110518422D01*
X17427708Y-110481579D01*
X17536903Y-110217958D01*
X17717585Y-109947549D01*
X17717587Y-109947546D01*
X17947546Y-109717587D01*
X17951148Y-109715180D01*
X18217958Y-109536903D01*
X18518421Y-109412447D01*
X18624744Y-109391298D01*
X18837389Y-109349000D01*
X19162611Y-109349000D01*
X19375256Y-109391298D01*
X19375256Y-109391298D01*
G37*
G36*
X11375256Y-108391298D02*
X11481579Y-108412447D01*
X11782042Y-108536903D01*
X12048852Y-108715180D01*
X12052454Y-108717587D01*
X12282413Y-108947546D01*
X12463098Y-109217960D01*
X12587553Y-109518422D01*
X12651000Y-109837389D01*
X12651000Y-110162611D01*
X12639990Y-110217960D01*
X12587553Y-110481579D01*
X12572292Y-110518422D01*
X12463098Y-110782040D01*
X12282413Y-111052454D01*
X12052454Y-111282413D01*
X12052451Y-111282415D01*
X11782042Y-111463097D01*
X11481579Y-111587553D01*
X11375256Y-111608702D01*
X11162611Y-111651000D01*
X10837389Y-111651000D01*
X10624744Y-111608702D01*
X10518421Y-111587553D01*
X10217958Y-111463097D01*
X9947549Y-111282415D01*
X9947546Y-111282413D01*
X9717587Y-111052454D01*
X9536902Y-110782040D01*
X9427708Y-110518422D01*
X9412447Y-110481579D01*
X9360010Y-110217960D01*
X9349000Y-110162611D01*
X9349000Y-109837389D01*
X9412447Y-109518422D01*
X9536902Y-109217960D01*
X9717587Y-108947546D01*
X9947546Y-108717587D01*
X9951148Y-108715180D01*
X10217958Y-108536903D01*
X10518421Y-108412447D01*
X10624744Y-108391298D01*
X10837389Y-108349000D01*
X11162611Y-108349000D01*
X11375256Y-108391298D01*
X11375256Y-108391298D01*
G37*
G36*
X119375256Y-63391298D02*
X119481579Y-63412447D01*
X119782042Y-63536903D01*
X120048852Y-63715180D01*
X120052454Y-63717587D01*
X120282413Y-63947546D01*
X120463098Y-64217960D01*
X120587553Y-64518422D01*
X120651000Y-64837389D01*
X120651000Y-65162611D01*
X120587553Y-65481578D01*
X120463098Y-65782040D01*
X120282413Y-66052454D01*
X120052454Y-66282413D01*
X120052451Y-66282415D01*
X119782042Y-66463097D01*
X119481579Y-66587553D01*
X119375256Y-66608702D01*
X119162611Y-66651000D01*
X118837389Y-66651000D01*
X118624744Y-66608702D01*
X118518421Y-66587553D01*
X118217958Y-66463097D01*
X117947549Y-66282415D01*
X117947546Y-66282413D01*
X117717587Y-66052454D01*
X117536902Y-65782040D01*
X117412447Y-65481578D01*
X117349000Y-65162611D01*
X117349000Y-64837389D01*
X117412447Y-64518422D01*
X117536902Y-64217960D01*
X117717587Y-63947546D01*
X117947546Y-63717587D01*
X117951148Y-63715180D01*
X118217958Y-63536903D01*
X118518421Y-63412447D01*
X118624744Y-63391298D01*
X118837389Y-63349000D01*
X119162611Y-63349000D01*
X119375256Y-63391298D01*
X119375256Y-63391298D01*
G37*
G36*
X11375256Y-63391298D02*
X11481579Y-63412447D01*
X11782042Y-63536903D01*
X12048852Y-63715180D01*
X12052454Y-63717587D01*
X12282413Y-63947546D01*
X12463098Y-64217960D01*
X12587553Y-64518422D01*
X12651000Y-64837389D01*
X12651000Y-65162611D01*
X12587553Y-65481578D01*
X12463098Y-65782040D01*
X12282413Y-66052454D01*
X12052454Y-66282413D01*
X12052451Y-66282415D01*
X11782042Y-66463097D01*
X11481579Y-66587553D01*
X11375256Y-66608702D01*
X11162611Y-66651000D01*
X10837389Y-66651000D01*
X10624744Y-66608702D01*
X10518421Y-66587553D01*
X10217958Y-66463097D01*
X9947549Y-66282415D01*
X9947546Y-66282413D01*
X9717587Y-66052454D01*
X9536902Y-65782040D01*
X9412447Y-65481578D01*
X9349000Y-65162611D01*
X9349000Y-64837389D01*
X9412447Y-64518422D01*
X9536902Y-64217960D01*
X9717587Y-63947546D01*
X9947546Y-63717587D01*
X9951148Y-63715180D01*
X10217958Y-63536903D01*
X10518421Y-63412447D01*
X10624744Y-63391298D01*
X10837389Y-63349000D01*
X11162611Y-63349000D01*
X11375256Y-63391298D01*
X11375256Y-63391298D01*
G37*
G36*
X5838015Y-21956973D02*
X5941879Y-21988479D01*
X6037600Y-22039644D01*
X6121501Y-22108499D01*
X6190356Y-22192400D01*
X6213766Y-22236195D01*
X6227374Y-22256561D01*
X6244701Y-22273889D01*
X6265076Y-22287502D01*
X6287715Y-22296880D01*
X6311748Y-22301660D01*
X6336252Y-22301660D01*
X6360286Y-22296879D01*
X6382925Y-22287502D01*
X6403299Y-22273888D01*
X6420627Y-22256561D01*
X6434240Y-22236186D01*
X6443618Y-22213547D01*
X6449000Y-22177262D01*
X6449000Y-21949000D01*
X7551000Y-21949000D01*
X7551000Y-23051000D01*
X7322738Y-23051000D01*
X7298352Y-23053402D01*
X7274903Y-23060515D01*
X7253292Y-23072066D01*
X7234350Y-23087612D01*
X7218804Y-23106554D01*
X7207253Y-23128165D01*
X7200140Y-23151614D01*
X7197738Y-23176000D01*
X7200140Y-23200386D01*
X7207253Y-23223835D01*
X7218804Y-23245446D01*
X7234350Y-23264388D01*
X7263808Y-23286236D01*
X7307600Y-23309644D01*
X7391501Y-23378499D01*
X7460356Y-23462400D01*
X7511521Y-23558121D01*
X7543027Y-23661985D01*
X7553666Y-23770000D01*
X7543027Y-23878015D01*
X7511521Y-23981879D01*
X7460356Y-24077600D01*
X7391501Y-24161501D01*
X7307600Y-24230356D01*
X7211879Y-24281521D01*
X7199142Y-24285385D01*
X7176507Y-24294760D01*
X7156133Y-24308374D01*
X7138806Y-24325701D01*
X7125192Y-24346076D01*
X7115814Y-24368715D01*
X7111034Y-24392748D01*
X7111034Y-24417252D01*
X7115815Y-24441286D01*
X7125192Y-24463925D01*
X7138806Y-24484299D01*
X7156133Y-24501626D01*
X7176508Y-24515240D01*
X7199142Y-24524615D01*
X7211879Y-24528479D01*
X7307600Y-24579644D01*
X7391501Y-24648499D01*
X7460356Y-24732400D01*
X7511521Y-24828121D01*
X7543027Y-24931985D01*
X7553666Y-25040000D01*
X7543027Y-25148015D01*
X7511521Y-25251879D01*
X7460356Y-25347600D01*
X7391501Y-25431501D01*
X7307600Y-25500356D01*
X7211879Y-25551521D01*
X7199142Y-25555385D01*
X7176507Y-25564760D01*
X7156133Y-25578374D01*
X7138806Y-25595701D01*
X7125192Y-25616076D01*
X7115814Y-25638715D01*
X7111034Y-25662748D01*
X7111034Y-25687252D01*
X7115815Y-25711286D01*
X7125192Y-25733925D01*
X7138806Y-25754299D01*
X7156133Y-25771626D01*
X7176508Y-25785240D01*
X7199142Y-25794615D01*
X7211879Y-25798479D01*
X7307600Y-25849644D01*
X7391501Y-25918499D01*
X7460356Y-26002400D01*
X7511521Y-26098121D01*
X7543027Y-26201985D01*
X7553666Y-26310000D01*
X7543027Y-26418015D01*
X7511521Y-26521879D01*
X7460356Y-26617600D01*
X7391501Y-26701501D01*
X7307600Y-26770356D01*
X7211879Y-26821521D01*
X7108015Y-26853027D01*
X7027067Y-26861000D01*
X6972933Y-26861000D01*
X6891985Y-26853027D01*
X6788121Y-26821521D01*
X6692400Y-26770356D01*
X6608499Y-26701501D01*
X6539644Y-26617600D01*
X6488479Y-26521879D01*
X6484615Y-26509142D01*
X6475240Y-26486507D01*
X6461626Y-26466133D01*
X6444299Y-26448806D01*
X6423924Y-26435192D01*
X6401285Y-26425814D01*
X6377252Y-26421034D01*
X6352748Y-26421034D01*
X6328714Y-26425815D01*
X6306075Y-26435192D01*
X6285701Y-26448806D01*
X6268374Y-26466133D01*
X6254760Y-26486508D01*
X6245385Y-26509142D01*
X6241521Y-26521879D01*
X6190356Y-26617600D01*
X6121501Y-26701501D01*
X6037600Y-26770356D01*
X5941879Y-26821521D01*
X5838015Y-26853027D01*
X5757067Y-26861000D01*
X5702933Y-26861000D01*
X5621985Y-26853027D01*
X5518121Y-26821521D01*
X5422400Y-26770356D01*
X5338499Y-26701501D01*
X5269644Y-26617600D01*
X5218479Y-26521879D01*
X5186973Y-26418015D01*
X5176334Y-26310000D01*
X5186973Y-26201985D01*
X5218479Y-26098121D01*
X5269644Y-26002400D01*
X5338499Y-25918499D01*
X5422400Y-25849644D01*
X5518121Y-25798479D01*
X5530858Y-25794615D01*
X5553493Y-25785240D01*
X5573867Y-25771626D01*
X5591194Y-25754299D01*
X5604808Y-25733924D01*
X5614186Y-25711285D01*
X5618966Y-25687252D01*
X5618966Y-25662748D01*
X5841034Y-25662748D01*
X5841034Y-25687252D01*
X5845815Y-25711286D01*
X5855192Y-25733925D01*
X5868806Y-25754299D01*
X5886133Y-25771626D01*
X5906508Y-25785240D01*
X5929142Y-25794615D01*
X5941879Y-25798479D01*
X6037600Y-25849644D01*
X6121501Y-25918499D01*
X6190356Y-26002400D01*
X6241521Y-26098121D01*
X6244522Y-26108015D01*
X6245383Y-26110854D01*
X6254760Y-26133493D01*
X6268374Y-26153867D01*
X6285701Y-26171194D01*
X6306076Y-26184808D01*
X6328715Y-26194186D01*
X6352748Y-26198966D01*
X6377252Y-26198966D01*
X6401286Y-26194185D01*
X6423925Y-26184808D01*
X6444299Y-26171194D01*
X6461626Y-26153867D01*
X6475240Y-26133492D01*
X6484617Y-26110854D01*
X6485478Y-26108015D01*
X6488479Y-26098121D01*
X6539644Y-26002400D01*
X6608499Y-25918499D01*
X6692400Y-25849644D01*
X6788121Y-25798479D01*
X6800858Y-25794615D01*
X6823493Y-25785240D01*
X6843867Y-25771626D01*
X6861194Y-25754299D01*
X6874808Y-25733924D01*
X6884186Y-25711285D01*
X6888966Y-25687252D01*
X6888966Y-25662748D01*
X6884185Y-25638714D01*
X6874808Y-25616075D01*
X6861194Y-25595701D01*
X6843867Y-25578374D01*
X6823492Y-25564760D01*
X6800858Y-25555385D01*
X6788121Y-25551521D01*
X6692400Y-25500356D01*
X6608499Y-25431501D01*
X6539644Y-25347600D01*
X6488479Y-25251879D01*
X6484615Y-25239142D01*
X6475240Y-25216507D01*
X6461626Y-25196133D01*
X6444299Y-25178806D01*
X6423924Y-25165192D01*
X6401285Y-25155814D01*
X6377252Y-25151034D01*
X6352748Y-25151034D01*
X6328714Y-25155815D01*
X6306075Y-25165192D01*
X6285701Y-25178806D01*
X6268374Y-25196133D01*
X6254760Y-25216508D01*
X6245385Y-25239142D01*
X6241521Y-25251879D01*
X6190356Y-25347600D01*
X6121501Y-25431501D01*
X6037600Y-25500356D01*
X5941879Y-25551521D01*
X5929142Y-25555385D01*
X5906507Y-25564760D01*
X5886133Y-25578374D01*
X5868806Y-25595701D01*
X5855192Y-25616076D01*
X5845814Y-25638715D01*
X5841034Y-25662748D01*
X5618966Y-25662748D01*
X5614185Y-25638714D01*
X5604808Y-25616075D01*
X5591194Y-25595701D01*
X5573867Y-25578374D01*
X5553492Y-25564760D01*
X5530858Y-25555385D01*
X5518121Y-25551521D01*
X5422400Y-25500356D01*
X5338499Y-25431501D01*
X5269644Y-25347600D01*
X5218479Y-25251879D01*
X5186973Y-25148015D01*
X5176334Y-25040000D01*
X5186973Y-24931985D01*
X5218479Y-24828121D01*
X5269644Y-24732400D01*
X5338499Y-24648499D01*
X5422400Y-24579644D01*
X5518121Y-24528479D01*
X5530858Y-24524615D01*
X5553493Y-24515240D01*
X5573867Y-24501626D01*
X5591194Y-24484299D01*
X5604808Y-24463924D01*
X5614186Y-24441285D01*
X5618966Y-24417252D01*
X5618966Y-24392748D01*
X5841034Y-24392748D01*
X5841034Y-24417252D01*
X5845815Y-24441286D01*
X5855192Y-24463925D01*
X5868806Y-24484299D01*
X5886133Y-24501626D01*
X5906508Y-24515240D01*
X5929142Y-24524615D01*
X5941879Y-24528479D01*
X6037600Y-24579644D01*
X6121501Y-24648499D01*
X6190356Y-24732400D01*
X6241521Y-24828121D01*
X6244522Y-24838015D01*
X6245383Y-24840854D01*
X6254760Y-24863493D01*
X6268374Y-24883867D01*
X6285701Y-24901194D01*
X6306076Y-24914808D01*
X6328715Y-24924186D01*
X6352748Y-24928966D01*
X6377252Y-24928966D01*
X6401286Y-24924185D01*
X6423925Y-24914808D01*
X6444299Y-24901194D01*
X6461626Y-24883867D01*
X6475240Y-24863492D01*
X6484617Y-24840854D01*
X6485478Y-24838015D01*
X6488479Y-24828121D01*
X6539644Y-24732400D01*
X6608499Y-24648499D01*
X6692400Y-24579644D01*
X6788121Y-24528479D01*
X6800858Y-24524615D01*
X6823493Y-24515240D01*
X6843867Y-24501626D01*
X6861194Y-24484299D01*
X6874808Y-24463924D01*
X6884186Y-24441285D01*
X6888966Y-24417252D01*
X6888966Y-24392748D01*
X6884185Y-24368714D01*
X6874808Y-24346075D01*
X6861194Y-24325701D01*
X6843867Y-24308374D01*
X6823492Y-24294760D01*
X6800858Y-24285385D01*
X6788121Y-24281521D01*
X6692400Y-24230356D01*
X6608499Y-24161501D01*
X6539644Y-24077600D01*
X6488479Y-23981879D01*
X6484615Y-23969142D01*
X6475240Y-23946507D01*
X6461626Y-23926133D01*
X6444299Y-23908806D01*
X6423924Y-23895192D01*
X6401285Y-23885814D01*
X6377252Y-23881034D01*
X6352748Y-23881034D01*
X6328714Y-23885815D01*
X6306075Y-23895192D01*
X6285701Y-23908806D01*
X6268374Y-23926133D01*
X6254760Y-23946508D01*
X6245385Y-23969142D01*
X6241521Y-23981879D01*
X6190356Y-24077600D01*
X6121501Y-24161501D01*
X6037600Y-24230356D01*
X5941879Y-24281521D01*
X5929142Y-24285385D01*
X5906507Y-24294760D01*
X5886133Y-24308374D01*
X5868806Y-24325701D01*
X5855192Y-24346076D01*
X5845814Y-24368715D01*
X5841034Y-24392748D01*
X5618966Y-24392748D01*
X5614185Y-24368714D01*
X5604808Y-24346075D01*
X5591194Y-24325701D01*
X5573867Y-24308374D01*
X5553492Y-24294760D01*
X5530858Y-24285385D01*
X5518121Y-24281521D01*
X5422400Y-24230356D01*
X5338499Y-24161501D01*
X5269644Y-24077600D01*
X5218479Y-23981879D01*
X5186973Y-23878015D01*
X5176334Y-23770000D01*
X5186973Y-23661985D01*
X5218479Y-23558121D01*
X5269644Y-23462400D01*
X5338499Y-23378499D01*
X5422400Y-23309644D01*
X5518121Y-23258479D01*
X5530858Y-23254615D01*
X5553493Y-23245240D01*
X5573867Y-23231626D01*
X5591194Y-23214299D01*
X5604808Y-23193924D01*
X5614186Y-23171285D01*
X5618966Y-23147252D01*
X5618966Y-23122748D01*
X5841034Y-23122748D01*
X5841034Y-23147252D01*
X5845815Y-23171286D01*
X5855192Y-23193925D01*
X5868806Y-23214299D01*
X5886133Y-23231626D01*
X5906508Y-23245240D01*
X5929142Y-23254615D01*
X5941879Y-23258479D01*
X6037600Y-23309644D01*
X6121501Y-23378499D01*
X6190356Y-23462400D01*
X6241521Y-23558121D01*
X6244522Y-23568015D01*
X6245383Y-23570854D01*
X6254760Y-23593493D01*
X6268374Y-23613867D01*
X6285701Y-23631194D01*
X6306076Y-23644808D01*
X6328715Y-23654186D01*
X6352748Y-23658966D01*
X6377252Y-23658966D01*
X6401286Y-23654185D01*
X6423925Y-23644808D01*
X6444299Y-23631194D01*
X6461626Y-23613867D01*
X6475240Y-23593492D01*
X6484617Y-23570854D01*
X6485478Y-23568015D01*
X6488479Y-23558121D01*
X6539644Y-23462400D01*
X6608499Y-23378499D01*
X6692400Y-23309644D01*
X6736195Y-23286234D01*
X6756561Y-23272626D01*
X6773889Y-23255299D01*
X6787502Y-23234924D01*
X6796880Y-23212285D01*
X6801660Y-23188252D01*
X6801660Y-23163748D01*
X6796879Y-23139714D01*
X6787502Y-23117075D01*
X6773888Y-23096701D01*
X6756561Y-23079373D01*
X6736186Y-23065760D01*
X6713547Y-23056382D01*
X6677262Y-23051000D01*
X6449000Y-23051000D01*
X6449000Y-22822738D01*
X6446598Y-22798352D01*
X6439485Y-22774903D01*
X6427934Y-22753292D01*
X6412388Y-22734350D01*
X6393446Y-22718804D01*
X6371835Y-22707253D01*
X6348386Y-22700140D01*
X6324000Y-22697738D01*
X6299614Y-22700140D01*
X6276165Y-22707253D01*
X6254554Y-22718804D01*
X6235612Y-22734350D01*
X6213764Y-22763808D01*
X6190356Y-22807600D01*
X6121501Y-22891501D01*
X6037600Y-22960356D01*
X5941879Y-23011521D01*
X5929142Y-23015385D01*
X5906507Y-23024760D01*
X5886133Y-23038374D01*
X5868806Y-23055701D01*
X5855192Y-23076076D01*
X5845814Y-23098715D01*
X5841034Y-23122748D01*
X5618966Y-23122748D01*
X5614185Y-23098714D01*
X5604808Y-23076075D01*
X5591194Y-23055701D01*
X5573867Y-23038374D01*
X5553492Y-23024760D01*
X5530858Y-23015385D01*
X5518121Y-23011521D01*
X5422400Y-22960356D01*
X5338499Y-22891501D01*
X5269644Y-22807600D01*
X5218479Y-22711879D01*
X5186973Y-22608015D01*
X5176334Y-22500000D01*
X5186973Y-22391985D01*
X5218479Y-22288121D01*
X5269644Y-22192400D01*
X5338499Y-22108499D01*
X5422400Y-22039644D01*
X5518121Y-21988479D01*
X5621985Y-21956973D01*
X5702933Y-21949000D01*
X5757067Y-21949000D01*
X5838015Y-21956973D01*
X5838015Y-21956973D01*
G37*
G36*
X118108015Y-21646973D02*
X118211879Y-21678479D01*
X118307600Y-21729644D01*
X118391501Y-21798499D01*
X118460356Y-21882400D01*
X118511521Y-21978121D01*
X118514663Y-21988480D01*
X118515383Y-21990854D01*
X118524760Y-22013493D01*
X118538374Y-22033867D01*
X118555701Y-22051194D01*
X118576076Y-22064808D01*
X118598715Y-22074186D01*
X118622748Y-22078966D01*
X118647252Y-22078966D01*
X118671286Y-22074185D01*
X118693925Y-22064808D01*
X118714299Y-22051194D01*
X118731626Y-22033867D01*
X118745240Y-22013492D01*
X118754617Y-21990854D01*
X118755337Y-21988480D01*
X118758479Y-21978121D01*
X118809644Y-21882400D01*
X118878499Y-21798499D01*
X118962400Y-21729644D01*
X119058121Y-21678479D01*
X119161985Y-21646973D01*
X119242933Y-21639000D01*
X119297067Y-21639000D01*
X119378015Y-21646973D01*
X119481879Y-21678479D01*
X119577600Y-21729644D01*
X119661501Y-21798499D01*
X119730356Y-21882400D01*
X119781521Y-21978121D01*
X119813027Y-22081985D01*
X119823666Y-22190000D01*
X119813027Y-22298015D01*
X119781521Y-22401879D01*
X119730356Y-22497600D01*
X119661501Y-22581501D01*
X119577600Y-22650356D01*
X119481879Y-22701521D01*
X119469142Y-22705385D01*
X119446507Y-22714760D01*
X119426133Y-22728374D01*
X119408806Y-22745701D01*
X119395192Y-22766076D01*
X119385814Y-22788715D01*
X119381034Y-22812748D01*
X119381034Y-22837252D01*
X119385815Y-22861286D01*
X119395192Y-22883925D01*
X119408806Y-22904299D01*
X119426133Y-22921626D01*
X119446508Y-22935240D01*
X119469142Y-22944615D01*
X119481879Y-22948479D01*
X119577600Y-22999644D01*
X119661501Y-23068499D01*
X119730356Y-23152400D01*
X119781521Y-23248121D01*
X119813027Y-23351985D01*
X119823666Y-23460000D01*
X119813027Y-23568015D01*
X119781521Y-23671879D01*
X119730356Y-23767600D01*
X119661501Y-23851501D01*
X119577600Y-23920356D01*
X119481879Y-23971521D01*
X119469142Y-23975385D01*
X119446507Y-23984760D01*
X119426133Y-23998374D01*
X119408806Y-24015701D01*
X119395192Y-24036076D01*
X119385814Y-24058715D01*
X119381034Y-24082748D01*
X119381034Y-24107252D01*
X119385815Y-24131286D01*
X119395192Y-24153925D01*
X119408806Y-24174299D01*
X119426133Y-24191626D01*
X119446508Y-24205240D01*
X119469142Y-24214615D01*
X119481879Y-24218479D01*
X119577600Y-24269644D01*
X119661501Y-24338499D01*
X119730356Y-24422400D01*
X119781521Y-24518121D01*
X119813027Y-24621985D01*
X119823666Y-24730000D01*
X119813027Y-24838015D01*
X119781521Y-24941879D01*
X119730356Y-25037600D01*
X119661501Y-25121501D01*
X119577600Y-25190356D01*
X119481879Y-25241521D01*
X119469142Y-25245385D01*
X119446507Y-25254760D01*
X119426133Y-25268374D01*
X119408806Y-25285701D01*
X119395192Y-25306076D01*
X119385814Y-25328715D01*
X119381034Y-25352748D01*
X119381034Y-25377252D01*
X119385815Y-25401286D01*
X119395192Y-25423925D01*
X119408806Y-25444299D01*
X119426133Y-25461626D01*
X119446508Y-25475240D01*
X119469142Y-25484615D01*
X119481879Y-25488479D01*
X119577600Y-25539644D01*
X119661501Y-25608499D01*
X119730356Y-25692400D01*
X119781521Y-25788121D01*
X119813027Y-25891985D01*
X119823666Y-26000000D01*
X119813027Y-26108015D01*
X119781521Y-26211879D01*
X119730356Y-26307600D01*
X119661501Y-26391501D01*
X119577600Y-26460356D01*
X119481879Y-26511521D01*
X119378015Y-26543027D01*
X119297067Y-26551000D01*
X119242933Y-26551000D01*
X119161985Y-26543027D01*
X119058121Y-26511521D01*
X118962400Y-26460356D01*
X118878499Y-26391501D01*
X118809644Y-26307600D01*
X118786234Y-26263805D01*
X118772626Y-26243439D01*
X118755299Y-26226111D01*
X118734924Y-26212498D01*
X118712285Y-26203120D01*
X118688252Y-26198340D01*
X118663748Y-26198340D01*
X118639714Y-26203121D01*
X118617075Y-26212498D01*
X118596701Y-26226112D01*
X118579373Y-26243439D01*
X118565760Y-26263814D01*
X118556382Y-26286453D01*
X118551000Y-26322738D01*
X118551000Y-26551000D01*
X117449000Y-26551000D01*
X117449000Y-25449000D01*
X117677262Y-25449000D01*
X117701648Y-25446598D01*
X117725097Y-25439485D01*
X117746708Y-25427934D01*
X117765650Y-25412388D01*
X117781196Y-25393446D01*
X117792747Y-25371835D01*
X117799860Y-25348386D01*
X117802262Y-25324000D01*
X117801056Y-25311748D01*
X118198340Y-25311748D01*
X118198340Y-25336252D01*
X118203121Y-25360286D01*
X118212498Y-25382925D01*
X118226112Y-25403299D01*
X118243439Y-25420627D01*
X118263814Y-25434240D01*
X118286453Y-25443618D01*
X118322738Y-25449000D01*
X118551000Y-25449000D01*
X118551000Y-25677262D01*
X118553402Y-25701648D01*
X118560515Y-25725097D01*
X118572066Y-25746708D01*
X118587612Y-25765650D01*
X118606554Y-25781196D01*
X118628165Y-25792747D01*
X118651614Y-25799860D01*
X118676000Y-25802262D01*
X118700386Y-25799860D01*
X118723835Y-25792747D01*
X118745446Y-25781196D01*
X118764388Y-25765650D01*
X118786236Y-25736192D01*
X118809644Y-25692400D01*
X118878499Y-25608499D01*
X118962400Y-25539644D01*
X119058121Y-25488479D01*
X119070858Y-25484615D01*
X119093493Y-25475240D01*
X119113867Y-25461626D01*
X119131194Y-25444299D01*
X119144808Y-25423924D01*
X119154186Y-25401285D01*
X119158966Y-25377252D01*
X119158966Y-25352748D01*
X119154185Y-25328714D01*
X119144808Y-25306075D01*
X119131194Y-25285701D01*
X119113867Y-25268374D01*
X119093492Y-25254760D01*
X119070858Y-25245385D01*
X119058121Y-25241521D01*
X118962400Y-25190356D01*
X118878499Y-25121501D01*
X118809644Y-25037600D01*
X118758479Y-24941879D01*
X118754615Y-24929142D01*
X118745240Y-24906507D01*
X118731626Y-24886133D01*
X118714299Y-24868806D01*
X118693924Y-24855192D01*
X118671285Y-24845814D01*
X118647252Y-24841034D01*
X118622748Y-24841034D01*
X118598714Y-24845815D01*
X118576075Y-24855192D01*
X118555701Y-24868806D01*
X118538374Y-24886133D01*
X118524760Y-24906508D01*
X118515385Y-24929142D01*
X118511521Y-24941879D01*
X118460356Y-25037600D01*
X118391501Y-25121501D01*
X118307600Y-25190356D01*
X118263805Y-25213766D01*
X118243439Y-25227374D01*
X118226111Y-25244701D01*
X118212498Y-25265076D01*
X118203120Y-25287715D01*
X118198340Y-25311748D01*
X117801056Y-25311748D01*
X117799860Y-25299614D01*
X117792747Y-25276165D01*
X117781196Y-25254554D01*
X117765650Y-25235612D01*
X117736192Y-25213764D01*
X117692400Y-25190356D01*
X117608499Y-25121501D01*
X117539644Y-25037600D01*
X117488479Y-24941879D01*
X117456973Y-24838015D01*
X117446334Y-24730000D01*
X117456973Y-24621985D01*
X117488479Y-24518121D01*
X117539644Y-24422400D01*
X117608499Y-24338499D01*
X117692400Y-24269644D01*
X117788121Y-24218479D01*
X117800858Y-24214615D01*
X117823493Y-24205240D01*
X117843867Y-24191626D01*
X117861194Y-24174299D01*
X117874808Y-24153924D01*
X117884186Y-24131285D01*
X117888966Y-24107252D01*
X117888966Y-24082748D01*
X118111034Y-24082748D01*
X118111034Y-24107252D01*
X118115815Y-24131286D01*
X118125192Y-24153925D01*
X118138806Y-24174299D01*
X118156133Y-24191626D01*
X118176508Y-24205240D01*
X118199142Y-24214615D01*
X118211879Y-24218479D01*
X118307600Y-24269644D01*
X118391501Y-24338499D01*
X118460356Y-24422400D01*
X118511521Y-24518121D01*
X118515383Y-24530854D01*
X118524760Y-24553493D01*
X118538374Y-24573867D01*
X118555701Y-24591194D01*
X118576076Y-24604808D01*
X118598715Y-24614186D01*
X118622748Y-24618966D01*
X118647252Y-24618966D01*
X118671286Y-24614185D01*
X118693925Y-24604808D01*
X118714299Y-24591194D01*
X118731626Y-24573867D01*
X118745240Y-24553492D01*
X118754617Y-24530854D01*
X118758479Y-24518121D01*
X118809644Y-24422400D01*
X118878499Y-24338499D01*
X118962400Y-24269644D01*
X119058121Y-24218479D01*
X119070858Y-24214615D01*
X119093493Y-24205240D01*
X119113867Y-24191626D01*
X119131194Y-24174299D01*
X119144808Y-24153924D01*
X119154186Y-24131285D01*
X119158966Y-24107252D01*
X119158966Y-24082748D01*
X119154185Y-24058714D01*
X119144808Y-24036075D01*
X119131194Y-24015701D01*
X119113867Y-23998374D01*
X119093492Y-23984760D01*
X119070858Y-23975385D01*
X119058121Y-23971521D01*
X118962400Y-23920356D01*
X118878499Y-23851501D01*
X118809644Y-23767600D01*
X118758479Y-23671879D01*
X118754615Y-23659142D01*
X118745240Y-23636507D01*
X118731626Y-23616133D01*
X118714299Y-23598806D01*
X118693924Y-23585192D01*
X118671285Y-23575814D01*
X118647252Y-23571034D01*
X118622748Y-23571034D01*
X118598714Y-23575815D01*
X118576075Y-23585192D01*
X118555701Y-23598806D01*
X118538374Y-23616133D01*
X118524760Y-23636508D01*
X118515385Y-23659142D01*
X118511521Y-23671879D01*
X118460356Y-23767600D01*
X118391501Y-23851501D01*
X118307600Y-23920356D01*
X118211879Y-23971521D01*
X118199142Y-23975385D01*
X118176507Y-23984760D01*
X118156133Y-23998374D01*
X118138806Y-24015701D01*
X118125192Y-24036076D01*
X118115814Y-24058715D01*
X118111034Y-24082748D01*
X117888966Y-24082748D01*
X117884185Y-24058714D01*
X117874808Y-24036075D01*
X117861194Y-24015701D01*
X117843867Y-23998374D01*
X117823492Y-23984760D01*
X117800858Y-23975385D01*
X117788121Y-23971521D01*
X117692400Y-23920356D01*
X117608499Y-23851501D01*
X117539644Y-23767600D01*
X117488479Y-23671879D01*
X117456973Y-23568015D01*
X117446334Y-23460000D01*
X117456973Y-23351985D01*
X117488479Y-23248121D01*
X117539644Y-23152400D01*
X117608499Y-23068499D01*
X117692400Y-22999644D01*
X117788121Y-22948479D01*
X117800858Y-22944615D01*
X117823493Y-22935240D01*
X117843867Y-22921626D01*
X117861194Y-22904299D01*
X117874808Y-22883924D01*
X117884186Y-22861285D01*
X117888966Y-22837252D01*
X117888966Y-22812748D01*
X118111034Y-22812748D01*
X118111034Y-22837252D01*
X118115815Y-22861286D01*
X118125192Y-22883925D01*
X118138806Y-22904299D01*
X118156133Y-22921626D01*
X118176508Y-22935240D01*
X118199142Y-22944615D01*
X118211879Y-22948479D01*
X118307600Y-22999644D01*
X118391501Y-23068499D01*
X118460356Y-23152400D01*
X118511521Y-23248121D01*
X118515383Y-23260854D01*
X118524760Y-23283493D01*
X118538374Y-23303867D01*
X118555701Y-23321194D01*
X118576076Y-23334808D01*
X118598715Y-23344186D01*
X118622748Y-23348966D01*
X118647252Y-23348966D01*
X118671286Y-23344185D01*
X118693925Y-23334808D01*
X118714299Y-23321194D01*
X118731626Y-23303867D01*
X118745240Y-23283492D01*
X118754617Y-23260854D01*
X118758479Y-23248121D01*
X118809644Y-23152400D01*
X118878499Y-23068499D01*
X118962400Y-22999644D01*
X119058121Y-22948479D01*
X119070858Y-22944615D01*
X119093493Y-22935240D01*
X119113867Y-22921626D01*
X119131194Y-22904299D01*
X119144808Y-22883924D01*
X119154186Y-22861285D01*
X119158966Y-22837252D01*
X119158966Y-22812748D01*
X119154185Y-22788714D01*
X119144808Y-22766075D01*
X119131194Y-22745701D01*
X119113867Y-22728374D01*
X119093492Y-22714760D01*
X119070858Y-22705385D01*
X119058121Y-22701521D01*
X118962400Y-22650356D01*
X118878499Y-22581501D01*
X118809644Y-22497600D01*
X118758479Y-22401879D01*
X118754615Y-22389142D01*
X118745240Y-22366507D01*
X118731626Y-22346133D01*
X118714299Y-22328806D01*
X118693924Y-22315192D01*
X118671285Y-22305814D01*
X118647252Y-22301034D01*
X118622748Y-22301034D01*
X118598714Y-22305815D01*
X118576075Y-22315192D01*
X118555701Y-22328806D01*
X118538374Y-22346133D01*
X118524760Y-22366508D01*
X118515385Y-22389142D01*
X118511521Y-22401879D01*
X118460356Y-22497600D01*
X118391501Y-22581501D01*
X118307600Y-22650356D01*
X118211879Y-22701521D01*
X118199142Y-22705385D01*
X118176507Y-22714760D01*
X118156133Y-22728374D01*
X118138806Y-22745701D01*
X118125192Y-22766076D01*
X118115814Y-22788715D01*
X118111034Y-22812748D01*
X117888966Y-22812748D01*
X117884185Y-22788714D01*
X117874808Y-22766075D01*
X117861194Y-22745701D01*
X117843867Y-22728374D01*
X117823492Y-22714760D01*
X117800858Y-22705385D01*
X117788121Y-22701521D01*
X117692400Y-22650356D01*
X117608499Y-22581501D01*
X117539644Y-22497600D01*
X117488479Y-22401879D01*
X117456973Y-22298015D01*
X117446334Y-22190000D01*
X117456973Y-22081985D01*
X117488479Y-21978121D01*
X117539644Y-21882400D01*
X117608499Y-21798499D01*
X117692400Y-21729644D01*
X117788121Y-21678479D01*
X117891985Y-21646973D01*
X117972933Y-21639000D01*
X118027067Y-21639000D01*
X118108015Y-21646973D01*
X118108015Y-21646973D01*
G37*
G36*
X19375256Y-17391298D02*
X19481579Y-17412447D01*
X19782042Y-17536903D01*
X20048852Y-17715180D01*
X20052454Y-17717587D01*
X20282413Y-17947546D01*
X20463098Y-18217960D01*
X20587553Y-18518422D01*
X20651000Y-18837389D01*
X20651000Y-19162611D01*
X20587553Y-19481578D01*
X20463098Y-19782040D01*
X20282413Y-20052454D01*
X20052454Y-20282413D01*
X20052451Y-20282415D01*
X19782042Y-20463097D01*
X19481579Y-20587553D01*
X19375256Y-20608702D01*
X19162611Y-20651000D01*
X18837389Y-20651000D01*
X18624744Y-20608702D01*
X18518421Y-20587553D01*
X18217958Y-20463097D01*
X17947549Y-20282415D01*
X17947546Y-20282413D01*
X17717587Y-20052454D01*
X17536902Y-19782040D01*
X17412447Y-19481578D01*
X17349000Y-19162611D01*
X17349000Y-18837389D01*
X17412447Y-18518422D01*
X17536902Y-18217960D01*
X17717587Y-17947546D01*
X17947546Y-17717587D01*
X17951148Y-17715180D01*
X18217958Y-17536903D01*
X18518421Y-17412447D01*
X18624744Y-17391298D01*
X18837389Y-17349000D01*
X19162611Y-17349000D01*
X19375256Y-17391298D01*
X19375256Y-17391298D01*
G37*
G36*
X111375256Y-17391298D02*
X111481579Y-17412447D01*
X111782042Y-17536903D01*
X112048852Y-17715180D01*
X112052454Y-17717587D01*
X112282413Y-17947546D01*
X112463098Y-18217960D01*
X112587553Y-18518422D01*
X112651000Y-18837389D01*
X112651000Y-19162611D01*
X112587553Y-19481578D01*
X112463098Y-19782040D01*
X112282413Y-20052454D01*
X112052454Y-20282413D01*
X112052451Y-20282415D01*
X111782042Y-20463097D01*
X111481579Y-20587553D01*
X111375256Y-20608702D01*
X111162611Y-20651000D01*
X110837389Y-20651000D01*
X110624744Y-20608702D01*
X110518421Y-20587553D01*
X110217958Y-20463097D01*
X109947549Y-20282415D01*
X109947546Y-20282413D01*
X109717587Y-20052454D01*
X109536902Y-19782040D01*
X109412447Y-19481578D01*
X109349000Y-19162611D01*
X109349000Y-18837389D01*
X109412447Y-18518422D01*
X109536902Y-18217960D01*
X109717587Y-17947546D01*
X109947546Y-17717587D01*
X109951148Y-17715180D01*
X110217958Y-17536903D01*
X110518421Y-17412447D01*
X110624744Y-17391298D01*
X110837389Y-17349000D01*
X111162611Y-17349000D01*
X111375256Y-17391298D01*
X111375256Y-17391298D01*
G37*
G36*
X65375256Y-9391298D02*
X65481579Y-9412447D01*
X65782042Y-9536903D01*
X66048852Y-9715180D01*
X66052454Y-9717587D01*
X66282413Y-9947546D01*
X66463098Y-10217960D01*
X66587553Y-10518422D01*
X66651000Y-10837389D01*
X66651000Y-11162611D01*
X66587553Y-11481578D01*
X66463098Y-11782040D01*
X66282413Y-12052454D01*
X66052454Y-12282413D01*
X66052451Y-12282415D01*
X65782042Y-12463097D01*
X65481579Y-12587553D01*
X65375256Y-12608702D01*
X65162611Y-12651000D01*
X64837389Y-12651000D01*
X64624744Y-12608702D01*
X64518421Y-12587553D01*
X64217958Y-12463097D01*
X63947549Y-12282415D01*
X63947546Y-12282413D01*
X63717587Y-12052454D01*
X63536902Y-11782040D01*
X63412447Y-11481578D01*
X63349000Y-11162611D01*
X63349000Y-10837389D01*
X63412447Y-10518422D01*
X63536902Y-10217960D01*
X63717587Y-9947546D01*
X63947546Y-9717587D01*
X63951148Y-9715180D01*
X64217958Y-9536903D01*
X64518421Y-9412447D01*
X64624744Y-9391298D01*
X64837389Y-9349000D01*
X65162611Y-9349000D01*
X65375256Y-9391298D01*
X65375256Y-9391298D01*
G37*
G36*
X20375256Y-9391298D02*
X20481579Y-9412447D01*
X20782042Y-9536903D01*
X21048852Y-9715180D01*
X21052454Y-9717587D01*
X21282413Y-9947546D01*
X21463098Y-10217960D01*
X21587553Y-10518422D01*
X21651000Y-10837389D01*
X21651000Y-11162611D01*
X21587553Y-11481578D01*
X21463098Y-11782040D01*
X21282413Y-12052454D01*
X21052454Y-12282413D01*
X21052451Y-12282415D01*
X20782042Y-12463097D01*
X20481579Y-12587553D01*
X20375256Y-12608702D01*
X20162611Y-12651000D01*
X19837389Y-12651000D01*
X19624744Y-12608702D01*
X19518421Y-12587553D01*
X19217958Y-12463097D01*
X18947549Y-12282415D01*
X18947546Y-12282413D01*
X18717587Y-12052454D01*
X18536902Y-11782040D01*
X18412447Y-11481578D01*
X18349000Y-11162611D01*
X18349000Y-10837389D01*
X18412447Y-10518422D01*
X18536902Y-10217960D01*
X18717587Y-9947546D01*
X18947546Y-9717587D01*
X18951148Y-9715180D01*
X19217958Y-9536903D01*
X19518421Y-9412447D01*
X19624744Y-9391298D01*
X19837389Y-9349000D01*
X20162611Y-9349000D01*
X20375256Y-9391298D01*
X20375256Y-9391298D01*
G37*
G36*
X103798015Y-5186973D02*
X103901879Y-5218479D01*
X103997600Y-5269644D01*
X104081501Y-5338499D01*
X104150356Y-5422400D01*
X104201521Y-5518121D01*
X104205383Y-5530854D01*
X104214760Y-5553493D01*
X104228374Y-5573867D01*
X104245701Y-5591194D01*
X104266076Y-5604808D01*
X104288715Y-5614186D01*
X104312748Y-5618966D01*
X104337252Y-5618966D01*
X104361286Y-5614185D01*
X104383925Y-5604808D01*
X104404299Y-5591194D01*
X104421626Y-5573867D01*
X104435240Y-5553492D01*
X104444617Y-5530854D01*
X104448479Y-5518121D01*
X104499644Y-5422400D01*
X104568499Y-5338499D01*
X104652400Y-5269644D01*
X104748121Y-5218479D01*
X104851985Y-5186973D01*
X104932933Y-5179000D01*
X104987067Y-5179000D01*
X105068015Y-5186973D01*
X105171879Y-5218479D01*
X105267600Y-5269644D01*
X105351501Y-5338499D01*
X105420356Y-5422400D01*
X105471521Y-5518121D01*
X105475383Y-5530854D01*
X105484760Y-5553493D01*
X105498374Y-5573867D01*
X105515701Y-5591194D01*
X105536076Y-5604808D01*
X105558715Y-5614186D01*
X105582748Y-5618966D01*
X105607252Y-5618966D01*
X105631286Y-5614185D01*
X105653925Y-5604808D01*
X105674299Y-5591194D01*
X105691626Y-5573867D01*
X105705240Y-5553492D01*
X105714617Y-5530854D01*
X105718479Y-5518121D01*
X105769644Y-5422400D01*
X105838499Y-5338499D01*
X105922400Y-5269644D01*
X106018121Y-5218479D01*
X106121985Y-5186973D01*
X106202933Y-5179000D01*
X106257067Y-5179000D01*
X106338015Y-5186973D01*
X106441879Y-5218479D01*
X106537600Y-5269644D01*
X106621501Y-5338499D01*
X106690356Y-5422400D01*
X106741521Y-5518121D01*
X106745383Y-5530854D01*
X106754760Y-5553493D01*
X106768374Y-5573867D01*
X106785701Y-5591194D01*
X106806076Y-5604808D01*
X106828715Y-5614186D01*
X106852748Y-5618966D01*
X106877252Y-5618966D01*
X106901286Y-5614185D01*
X106923925Y-5604808D01*
X106944299Y-5591194D01*
X106961626Y-5573867D01*
X106975240Y-5553492D01*
X106984617Y-5530854D01*
X106988479Y-5518121D01*
X107039644Y-5422400D01*
X107108499Y-5338499D01*
X107192400Y-5269644D01*
X107288121Y-5218479D01*
X107391985Y-5186973D01*
X107472933Y-5179000D01*
X107527067Y-5179000D01*
X107608015Y-5186973D01*
X107711879Y-5218479D01*
X107807600Y-5269644D01*
X107891501Y-5338499D01*
X107960356Y-5422400D01*
X108011521Y-5518121D01*
X108043027Y-5621985D01*
X108053666Y-5730000D01*
X108043027Y-5838015D01*
X108011521Y-5941879D01*
X107960356Y-6037600D01*
X107891501Y-6121501D01*
X107807600Y-6190356D01*
X107763805Y-6213766D01*
X107743439Y-6227374D01*
X107726111Y-6244701D01*
X107712498Y-6265076D01*
X107703120Y-6287715D01*
X107698340Y-6311748D01*
X107698340Y-6336252D01*
X107703121Y-6360286D01*
X107712498Y-6382925D01*
X107726112Y-6403299D01*
X107743439Y-6420627D01*
X107763814Y-6434240D01*
X107786453Y-6443618D01*
X107822738Y-6449000D01*
X108051000Y-6449000D01*
X108051000Y-7551000D01*
X106949000Y-7551000D01*
X106949000Y-7322738D01*
X106946598Y-7298352D01*
X106939485Y-7274903D01*
X106927934Y-7253292D01*
X106912388Y-7234350D01*
X106893446Y-7218804D01*
X106871835Y-7207253D01*
X106848386Y-7200140D01*
X106824000Y-7197738D01*
X106799614Y-7200140D01*
X106776165Y-7207253D01*
X106754554Y-7218804D01*
X106735612Y-7234350D01*
X106713764Y-7263808D01*
X106690356Y-7307600D01*
X106621501Y-7391501D01*
X106537600Y-7460356D01*
X106441879Y-7511521D01*
X106338015Y-7543027D01*
X106257067Y-7551000D01*
X106202933Y-7551000D01*
X106121985Y-7543027D01*
X106018121Y-7511521D01*
X105922400Y-7460356D01*
X105838499Y-7391501D01*
X105769644Y-7307600D01*
X105718479Y-7211879D01*
X105714615Y-7199142D01*
X105705240Y-7176507D01*
X105691626Y-7156133D01*
X105674299Y-7138806D01*
X105653924Y-7125192D01*
X105631285Y-7115814D01*
X105607252Y-7111034D01*
X105582748Y-7111034D01*
X105558714Y-7115815D01*
X105536075Y-7125192D01*
X105515701Y-7138806D01*
X105498374Y-7156133D01*
X105484760Y-7176508D01*
X105475385Y-7199142D01*
X105471521Y-7211879D01*
X105420356Y-7307600D01*
X105351501Y-7391501D01*
X105267600Y-7460356D01*
X105171879Y-7511521D01*
X105068015Y-7543027D01*
X104987067Y-7551000D01*
X104932933Y-7551000D01*
X104851985Y-7543027D01*
X104748121Y-7511521D01*
X104652400Y-7460356D01*
X104568499Y-7391501D01*
X104499644Y-7307600D01*
X104448479Y-7211879D01*
X104444615Y-7199142D01*
X104435240Y-7176507D01*
X104421626Y-7156133D01*
X104404299Y-7138806D01*
X104383924Y-7125192D01*
X104361285Y-7115814D01*
X104337252Y-7111034D01*
X104312748Y-7111034D01*
X104288714Y-7115815D01*
X104266075Y-7125192D01*
X104245701Y-7138806D01*
X104228374Y-7156133D01*
X104214760Y-7176508D01*
X104205385Y-7199142D01*
X104201521Y-7211879D01*
X104150356Y-7307600D01*
X104081501Y-7391501D01*
X103997600Y-7460356D01*
X103901879Y-7511521D01*
X103798015Y-7543027D01*
X103717067Y-7551000D01*
X103662933Y-7551000D01*
X103581985Y-7543027D01*
X103478121Y-7511521D01*
X103382400Y-7460356D01*
X103298499Y-7391501D01*
X103229644Y-7307600D01*
X103178479Y-7211879D01*
X103146973Y-7108015D01*
X103136334Y-7000000D01*
X103146973Y-6891985D01*
X103178479Y-6788121D01*
X103229644Y-6692400D01*
X103298499Y-6608499D01*
X103382400Y-6539644D01*
X103478121Y-6488479D01*
X103490858Y-6484615D01*
X103513493Y-6475240D01*
X103533867Y-6461626D01*
X103551194Y-6444299D01*
X103564808Y-6423924D01*
X103574186Y-6401285D01*
X103578966Y-6377252D01*
X103578966Y-6352748D01*
X103801034Y-6352748D01*
X103801034Y-6377252D01*
X103805815Y-6401286D01*
X103815192Y-6423925D01*
X103828806Y-6444299D01*
X103846133Y-6461626D01*
X103866508Y-6475240D01*
X103889142Y-6484615D01*
X103901879Y-6488479D01*
X103997600Y-6539644D01*
X104081501Y-6608499D01*
X104150356Y-6692400D01*
X104201521Y-6788121D01*
X104205383Y-6800854D01*
X104214760Y-6823493D01*
X104228374Y-6843867D01*
X104245701Y-6861194D01*
X104266076Y-6874808D01*
X104288715Y-6884186D01*
X104312748Y-6888966D01*
X104337252Y-6888966D01*
X104361286Y-6884185D01*
X104383925Y-6874808D01*
X104404299Y-6861194D01*
X104421626Y-6843867D01*
X104435240Y-6823492D01*
X104444617Y-6800854D01*
X104448479Y-6788121D01*
X104499644Y-6692400D01*
X104568499Y-6608499D01*
X104652400Y-6539644D01*
X104748121Y-6488479D01*
X104760858Y-6484615D01*
X104783493Y-6475240D01*
X104803867Y-6461626D01*
X104821194Y-6444299D01*
X104834808Y-6423924D01*
X104844186Y-6401285D01*
X104848966Y-6377252D01*
X104848966Y-6352748D01*
X105071034Y-6352748D01*
X105071034Y-6377252D01*
X105075815Y-6401286D01*
X105085192Y-6423925D01*
X105098806Y-6444299D01*
X105116133Y-6461626D01*
X105136508Y-6475240D01*
X105159142Y-6484615D01*
X105171879Y-6488479D01*
X105267600Y-6539644D01*
X105351501Y-6608499D01*
X105420356Y-6692400D01*
X105471521Y-6788121D01*
X105475383Y-6800854D01*
X105484760Y-6823493D01*
X105498374Y-6843867D01*
X105515701Y-6861194D01*
X105536076Y-6874808D01*
X105558715Y-6884186D01*
X105582748Y-6888966D01*
X105607252Y-6888966D01*
X105631286Y-6884185D01*
X105653925Y-6874808D01*
X105674299Y-6861194D01*
X105691626Y-6843867D01*
X105705240Y-6823492D01*
X105714617Y-6800854D01*
X105718479Y-6788121D01*
X105769644Y-6692400D01*
X105838499Y-6608499D01*
X105922400Y-6539644D01*
X106018121Y-6488479D01*
X106030858Y-6484615D01*
X106053493Y-6475240D01*
X106073867Y-6461626D01*
X106091194Y-6444299D01*
X106104808Y-6423924D01*
X106114186Y-6401285D01*
X106118966Y-6377252D01*
X106118966Y-6352748D01*
X106341034Y-6352748D01*
X106341034Y-6377252D01*
X106345815Y-6401286D01*
X106355192Y-6423925D01*
X106368806Y-6444299D01*
X106386133Y-6461626D01*
X106406508Y-6475240D01*
X106429142Y-6484615D01*
X106441879Y-6488479D01*
X106537600Y-6539644D01*
X106621501Y-6608499D01*
X106690356Y-6692400D01*
X106713766Y-6736195D01*
X106727374Y-6756561D01*
X106744701Y-6773889D01*
X106765076Y-6787502D01*
X106787715Y-6796880D01*
X106811748Y-6801660D01*
X106836252Y-6801660D01*
X106860286Y-6796879D01*
X106882925Y-6787502D01*
X106903299Y-6773888D01*
X106920627Y-6756561D01*
X106934240Y-6736186D01*
X106943618Y-6713547D01*
X106949000Y-6677262D01*
X106949000Y-6449000D01*
X107177262Y-6449000D01*
X107201648Y-6446598D01*
X107225097Y-6439485D01*
X107246708Y-6427934D01*
X107265650Y-6412388D01*
X107281196Y-6393446D01*
X107292747Y-6371835D01*
X107299860Y-6348386D01*
X107302262Y-6324000D01*
X107299860Y-6299614D01*
X107292747Y-6276165D01*
X107281196Y-6254554D01*
X107265650Y-6235612D01*
X107236192Y-6213764D01*
X107192400Y-6190356D01*
X107108499Y-6121501D01*
X107039644Y-6037600D01*
X106988479Y-5941879D01*
X106984615Y-5929142D01*
X106975240Y-5906507D01*
X106961626Y-5886133D01*
X106944299Y-5868806D01*
X106923924Y-5855192D01*
X106901285Y-5845814D01*
X106877252Y-5841034D01*
X106852748Y-5841034D01*
X106828714Y-5845815D01*
X106806075Y-5855192D01*
X106785701Y-5868806D01*
X106768374Y-5886133D01*
X106754760Y-5906508D01*
X106745385Y-5929142D01*
X106741521Y-5941879D01*
X106690356Y-6037600D01*
X106621501Y-6121501D01*
X106537600Y-6190356D01*
X106441879Y-6241521D01*
X106429142Y-6245385D01*
X106406507Y-6254760D01*
X106386133Y-6268374D01*
X106368806Y-6285701D01*
X106355192Y-6306076D01*
X106345814Y-6328715D01*
X106341034Y-6352748D01*
X106118966Y-6352748D01*
X106114185Y-6328714D01*
X106104808Y-6306075D01*
X106091194Y-6285701D01*
X106073867Y-6268374D01*
X106053492Y-6254760D01*
X106030858Y-6245385D01*
X106018121Y-6241521D01*
X105922400Y-6190356D01*
X105838499Y-6121501D01*
X105769644Y-6037600D01*
X105718479Y-5941879D01*
X105714615Y-5929142D01*
X105705240Y-5906507D01*
X105691626Y-5886133D01*
X105674299Y-5868806D01*
X105653924Y-5855192D01*
X105631285Y-5845814D01*
X105607252Y-5841034D01*
X105582748Y-5841034D01*
X105558714Y-5845815D01*
X105536075Y-5855192D01*
X105515701Y-5868806D01*
X105498374Y-5886133D01*
X105484760Y-5906508D01*
X105475385Y-5929142D01*
X105471521Y-5941879D01*
X105420356Y-6037600D01*
X105351501Y-6121501D01*
X105267600Y-6190356D01*
X105171879Y-6241521D01*
X105159142Y-6245385D01*
X105136507Y-6254760D01*
X105116133Y-6268374D01*
X105098806Y-6285701D01*
X105085192Y-6306076D01*
X105075814Y-6328715D01*
X105071034Y-6352748D01*
X104848966Y-6352748D01*
X104844185Y-6328714D01*
X104834808Y-6306075D01*
X104821194Y-6285701D01*
X104803867Y-6268374D01*
X104783492Y-6254760D01*
X104760858Y-6245385D01*
X104748121Y-6241521D01*
X104652400Y-6190356D01*
X104568499Y-6121501D01*
X104499644Y-6037600D01*
X104448479Y-5941879D01*
X104444615Y-5929142D01*
X104435240Y-5906507D01*
X104421626Y-5886133D01*
X104404299Y-5868806D01*
X104383924Y-5855192D01*
X104361285Y-5845814D01*
X104337252Y-5841034D01*
X104312748Y-5841034D01*
X104288714Y-5845815D01*
X104266075Y-5855192D01*
X104245701Y-5868806D01*
X104228374Y-5886133D01*
X104214760Y-5906508D01*
X104205385Y-5929142D01*
X104201521Y-5941879D01*
X104150356Y-6037600D01*
X104081501Y-6121501D01*
X103997600Y-6190356D01*
X103901879Y-6241521D01*
X103889142Y-6245385D01*
X103866507Y-6254760D01*
X103846133Y-6268374D01*
X103828806Y-6285701D01*
X103815192Y-6306076D01*
X103805814Y-6328715D01*
X103801034Y-6352748D01*
X103578966Y-6352748D01*
X103574185Y-6328714D01*
X103564808Y-6306075D01*
X103551194Y-6285701D01*
X103533867Y-6268374D01*
X103513492Y-6254760D01*
X103490858Y-6245385D01*
X103478121Y-6241521D01*
X103382400Y-6190356D01*
X103298499Y-6121501D01*
X103229644Y-6037600D01*
X103178479Y-5941879D01*
X103146973Y-5838015D01*
X103136334Y-5730000D01*
X103146973Y-5621985D01*
X103178479Y-5518121D01*
X103229644Y-5422400D01*
X103298499Y-5338499D01*
X103382400Y-5269644D01*
X103478121Y-5218479D01*
X103581985Y-5186973D01*
X103662933Y-5179000D01*
X103717067Y-5179000D01*
X103798015Y-5186973D01*
X103798015Y-5186973D01*
G37*
M02*
