M48
;DRILL file {KiCad 5.0.1} date Wed 16 Jan 2019 07:26:10 PM EST
;FORMAT={3:3/ absolute / metric / suppress leading zeros}
FMAT,2
METRIC,TZ
T1C0.305
T2C0.650
T3C0.700
T4C0.800
T5C1.020
T6C1.060
T7C1.100
T8C1.600
T9C3.200
%
G90
G05
M71
T1
X14500Y-32000
X86750Y-134750
X87500Y-132750
X97000Y-133250
X99500Y-121500
X99780Y-137520
X100500Y-134000
X102280Y-131270
X102280Y-133770
X102750Y-143500
X103030Y-123270
X108000Y-139000
X108000Y-140000
X108000Y-141000
X108000Y-142000
X112000Y-139000
X112000Y-140000
X112000Y-141000
X112000Y-142000
X115500Y-9500
X115500Y-10500
X116750Y-135250
X116750Y-141000
X116834Y-108993
X117500Y-115500
X118084Y-108993
X118250Y-131750
X119250Y-141000
X119750Y-145000
X120000Y-108500
X120250Y-139750
X121000Y-139750
X121500Y-128500
X121750Y-111000
X122250Y-120500
X122500Y-18000
X124000Y-118750
X124000Y-132750
X124250Y-111000
X125000Y-125750
X125000Y-127370
X125000Y-137250
X125250Y-138500
X125500Y-131000
X125500Y-139500
X126000Y-127000
X126500Y-130000
X127250Y-147250
X128000Y-133000
X128500Y-134000
X129500Y-132000
X130000Y-123000
X130000Y-134000
X131000Y-123000
X131000Y-134750
X132250Y-111250
X132750Y-127250
X133000Y-134500
X134250Y-141250
X135500Y-31500
X135500Y-33000
X135500Y-34500
X135500Y-36000
X136750Y-145250
X137750Y-121750
X139250Y-122750
X139250Y-127750
X139750Y-145250
X140500Y-134000
X142750Y-145250
X145500Y-129500
X145750Y-145250
X146500Y-129500
X147500Y-129500
X148500Y-129500
T2
X113980Y-129710
X113980Y-130980
X113980Y-132250
X113980Y-133520
X113980Y-134790
X115250Y-129710
X115250Y-130980
X115250Y-132250
X115250Y-133520
X115250Y-134790
T3
X103690Y-5730
X103690Y-7000
X104960Y-5730
X104960Y-7000
X106230Y-5730
X106230Y-7000
X107500Y-5730
X107500Y-7000
X104000Y-118000
X104000Y-119270
X105270Y-118000
X105270Y-119270
X106540Y-118000
X106540Y-119270
X107810Y-118000
X107810Y-119270
X118000Y-22190
X118000Y-23460
X118000Y-24730
X118000Y-26000
X119270Y-22190
X119270Y-23460
X119270Y-24730
X119270Y-26000
X5730Y-22500
X5730Y-23770
X5730Y-25040
X5730Y-26310
X7000Y-22500
X7000Y-23770
X7000Y-25040
X7000Y-26310
T4
X124750Y-143250
X129630Y-143250
T5
X96000Y-142000
T6
X92500Y-142000
T7
X106750Y-146000
X109290Y-146000
X111830Y-146000
T8
X94250Y-144230
T9
X20000Y-119000
X111000Y-19000
X19000Y-111000
X119000Y-65000
X11000Y-110000
X11000Y-65000
X20000Y-11000
X65000Y-119000
X65000Y-11000
X19000Y-19000
T0
M30
