M48
;DRILL file {KiCad 5.0.1} date Wed 16 Jan 2019 07:10:37 PM EST
;FORMAT={3:3/ absolute / metric / suppress leading zeros}
FMAT,2
METRIC,TZ
T1C0.305
T2C0.650
T3C0.900
T4C3.200
%
G90
G05
M71
T1
X58500Y-24500
X58500Y-26500
X61500Y-28000
X65500Y-13000
X65500Y-27000
X71500Y-11500
X71500Y-15500
X71500Y-17000
X71500Y-18000
X71500Y-19500
X71500Y-20500
X71500Y-22000
X71500Y-23000
X71500Y-24000
X75500Y-24000
X78500Y-25500
X78500Y-27500
X80000Y-13000
X80500Y-26500
X85000Y-29000
X85500Y-17500
T2
X83690Y-26500
X83690Y-27770
X84960Y-26500
X84960Y-27770
X86230Y-26500
X86230Y-27770
X87500Y-26500
X87500Y-27770
T3
X52725Y-5000
X55265Y-5000
X46725Y-5000
X49265Y-5000
X64725Y-5000
X67265Y-5000
X22725Y-5000
X25265Y-5000
X28725Y-5000
X31265Y-5000
X70725Y-5000
X73265Y-5000
X40725Y-5000
X43265Y-5000
X34725Y-5000
X37265Y-5000
X16725Y-5000
X19265Y-5000
X58725Y-5000
X61265Y-5000
T4
X4000Y-4000
X3975Y-25925
X86000Y-4000
X45000Y-26000
T0
M30
