M48
;DRILL file {KiCad 5.0.1} date Wed 16 Jan 2019 07:15:46 PM EST
;FORMAT={3:3/ absolute / metric / suppress leading zeros}
FMAT,2
METRIC,TZ
T1C0.305
T2C0.650
T3C3.200
%
G90
G05
M71
T1
X1500Y-17500
X2500Y-19500
X3500Y-19500
X7000Y-17500
X9500Y-23500
X10500Y-23215
X11500Y-23215
X14736Y-10422
X18000Y-1500
X19000Y-9000
X20500Y-10000
X20500Y-17500
X21500Y-12500
X22500Y-12500
X24000Y-1500
X24000Y-12500
X25000Y-12500
X28000Y-12000
X28000Y-26000
X28928Y-9191
X29000Y-29000
X30000Y-1500
X30928Y-9191
X31000Y-29000
X32000Y-12000
X32000Y-26000
X33000Y-24000
X36000Y-1500
X42000Y-1500
X48000Y-1500
X54000Y-1500
X60000Y-1500
X66000Y-1500
X72000Y-1500
T2
X2190Y-26500
X2190Y-27770
X3460Y-26500
X3460Y-27770
X4730Y-26500
X4730Y-27770
X6000Y-26500
X6000Y-27770
T3
X86000Y-26000
X86000Y-4000
X45000Y-26000
X4000Y-4000
T0
M30
