G04 #@! TF.GenerationSoftware,KiCad,Pcbnew,5.0.1*
G04 #@! TF.CreationDate,2019-01-16T19:15:50-05:00*
G04 #@! TF.ProjectId,fydp,667964702E6B696361645F7063620000,rev?*
G04 #@! TF.SameCoordinates,Original*
G04 #@! TF.FileFunction,Copper,L1,Top,Signal*
G04 #@! TF.FilePolarity,Positive*
%FSLAX46Y46*%
G04 Gerber Fmt 4.6, Leading zero omitted, Abs format (unit mm)*
G04 Created by KiCad (PCBNEW 5.0.1) date Wed 16 Jan 2019 07:15:50 PM EST*
%MOMM*%
%LPD*%
G01*
G04 APERTURE LIST*
G04 #@! TA.AperFunction,SMDPad,CuDef*
%ADD10R,0.600000X2.000000*%
G04 #@! TD*
G04 #@! TA.AperFunction,Conductor*
%ADD11C,0.100000*%
G04 #@! TD*
G04 #@! TA.AperFunction,SMDPad,CuDef*
%ADD12C,0.875000*%
G04 #@! TD*
G04 #@! TA.AperFunction,SMDPad,CuDef*
%ADD13C,1.250000*%
G04 #@! TD*
G04 #@! TA.AperFunction,SMDPad,CuDef*
%ADD14C,0.975000*%
G04 #@! TD*
G04 #@! TA.AperFunction,SMDPad,CuDef*
%ADD15R,4.550000X0.750000*%
G04 #@! TD*
G04 #@! TA.AperFunction,ComponentPad*
%ADD16R,1.000000X1.000000*%
G04 #@! TD*
G04 #@! TA.AperFunction,ComponentPad*
%ADD17O,1.000000X1.000000*%
G04 #@! TD*
G04 #@! TA.AperFunction,SMDPad,CuDef*
%ADD18R,0.650000X1.060000*%
G04 #@! TD*
G04 #@! TA.AperFunction,ConnectorPad*
%ADD19R,0.650000X1.060000*%
G04 #@! TD*
G04 #@! TA.AperFunction,ViaPad*
%ADD20C,0.635000*%
G04 #@! TD*
G04 #@! TA.AperFunction,Conductor*
%ADD21C,0.250000*%
G04 #@! TD*
G04 #@! TA.AperFunction,Conductor*
%ADD22C,0.254000*%
G04 #@! TD*
G04 APERTURE END LIST*
D10*
G04 #@! TO.P,U1,1*
G04 #@! TO.N,COM*
X17515000Y-23700000D03*
G04 #@! TO.P,U1,2*
G04 #@! TO.N,Net-(D3-Pad1)*
X18785000Y-23700000D03*
G04 #@! TO.P,U1,3*
G04 #@! TO.N,Net-(D4-Pad1)*
X20055000Y-23700000D03*
G04 #@! TO.P,U1,4*
G04 #@! TO.N,Net-(D5-Pad1)*
X21325000Y-23700000D03*
G04 #@! TO.P,U1,5*
G04 #@! TO.N,Net-(D6-Pad1)*
X22595000Y-23700000D03*
G04 #@! TO.P,U1,6*
G04 #@! TO.N,Net-(D7-Pad1)*
X23865000Y-23700000D03*
G04 #@! TO.P,U1,7*
G04 #@! TO.N,Net-(D8-Pad1)*
X25135000Y-23700000D03*
G04 #@! TO.P,U1,8*
G04 #@! TO.N,Net-(D9-Pad1)*
X26405000Y-23700000D03*
G04 #@! TO.P,U1,9*
G04 #@! TO.N,Net-(D10-Pad1)*
X27675000Y-23700000D03*
G04 #@! TO.P,U1,10*
G04 #@! TO.N,S0*
X28945000Y-23700000D03*
G04 #@! TO.P,U1,11*
G04 #@! TO.N,S1*
X30215000Y-23700000D03*
G04 #@! TO.P,U1,12*
G04 #@! TO.N,GND*
X31485000Y-23700000D03*
G04 #@! TO.P,U1,13*
G04 #@! TO.N,S3*
X31485000Y-14300000D03*
G04 #@! TO.P,U1,14*
G04 #@! TO.N,S2*
X30215000Y-14300000D03*
G04 #@! TO.P,U1,15*
G04 #@! TO.N,GND*
X28945000Y-14300000D03*
G04 #@! TO.P,U1,16*
X27675000Y-14300000D03*
G04 #@! TO.P,U1,17*
X26405000Y-14300000D03*
G04 #@! TO.P,U1,18*
X25135000Y-14300000D03*
G04 #@! TO.P,U1,19*
X23865000Y-14300000D03*
G04 #@! TO.P,U1,20*
X22595000Y-14300000D03*
G04 #@! TO.P,U1,21*
X21325000Y-14300000D03*
G04 #@! TO.P,U1,22*
G04 #@! TO.N,Net-(D1-Pad1)*
X20055000Y-14300000D03*
G04 #@! TO.P,U1,23*
G04 #@! TO.N,Net-(D2-Pad1)*
X18785000Y-14300000D03*
G04 #@! TO.P,U1,24*
G04 #@! TO.N,+5V*
X17515000Y-14300000D03*
G04 #@! TD*
D11*
G04 #@! TO.N,S2*
G04 #@! TO.C,R3*
G36*
X29389162Y-11442577D02*
X29410397Y-11445727D01*
X29431221Y-11450943D01*
X29451433Y-11458175D01*
X29470839Y-11467354D01*
X29489252Y-11478390D01*
X29506495Y-11491178D01*
X29522401Y-11505594D01*
X29536817Y-11521500D01*
X29549605Y-11538743D01*
X29560641Y-11557156D01*
X29569820Y-11576562D01*
X29577052Y-11596774D01*
X29582268Y-11617598D01*
X29585418Y-11638833D01*
X29586471Y-11660274D01*
X29586471Y-12097774D01*
X29585418Y-12119215D01*
X29582268Y-12140450D01*
X29577052Y-12161274D01*
X29569820Y-12181486D01*
X29560641Y-12200892D01*
X29549605Y-12219305D01*
X29536817Y-12236548D01*
X29522401Y-12252454D01*
X29506495Y-12266870D01*
X29489252Y-12279658D01*
X29470839Y-12290694D01*
X29451433Y-12299873D01*
X29431221Y-12307105D01*
X29410397Y-12312321D01*
X29389162Y-12315471D01*
X29367721Y-12316524D01*
X28855221Y-12316524D01*
X28833780Y-12315471D01*
X28812545Y-12312321D01*
X28791721Y-12307105D01*
X28771509Y-12299873D01*
X28752103Y-12290694D01*
X28733690Y-12279658D01*
X28716447Y-12266870D01*
X28700541Y-12252454D01*
X28686125Y-12236548D01*
X28673337Y-12219305D01*
X28662301Y-12200892D01*
X28653122Y-12181486D01*
X28645890Y-12161274D01*
X28640674Y-12140450D01*
X28637524Y-12119215D01*
X28636471Y-12097774D01*
X28636471Y-11660274D01*
X28637524Y-11638833D01*
X28640674Y-11617598D01*
X28645890Y-11596774D01*
X28653122Y-11576562D01*
X28662301Y-11557156D01*
X28673337Y-11538743D01*
X28686125Y-11521500D01*
X28700541Y-11505594D01*
X28716447Y-11491178D01*
X28733690Y-11478390D01*
X28752103Y-11467354D01*
X28771509Y-11458175D01*
X28791721Y-11450943D01*
X28812545Y-11445727D01*
X28833780Y-11442577D01*
X28855221Y-11441524D01*
X29367721Y-11441524D01*
X29389162Y-11442577D01*
X29389162Y-11442577D01*
G37*
D12*
G04 #@! TD*
G04 #@! TO.P,R3,1*
G04 #@! TO.N,S2*
X29111471Y-11879024D03*
D11*
G04 #@! TO.N,GND*
G04 #@! TO.C,R3*
G36*
X29389162Y-9867577D02*
X29410397Y-9870727D01*
X29431221Y-9875943D01*
X29451433Y-9883175D01*
X29470839Y-9892354D01*
X29489252Y-9903390D01*
X29506495Y-9916178D01*
X29522401Y-9930594D01*
X29536817Y-9946500D01*
X29549605Y-9963743D01*
X29560641Y-9982156D01*
X29569820Y-10001562D01*
X29577052Y-10021774D01*
X29582268Y-10042598D01*
X29585418Y-10063833D01*
X29586471Y-10085274D01*
X29586471Y-10522774D01*
X29585418Y-10544215D01*
X29582268Y-10565450D01*
X29577052Y-10586274D01*
X29569820Y-10606486D01*
X29560641Y-10625892D01*
X29549605Y-10644305D01*
X29536817Y-10661548D01*
X29522401Y-10677454D01*
X29506495Y-10691870D01*
X29489252Y-10704658D01*
X29470839Y-10715694D01*
X29451433Y-10724873D01*
X29431221Y-10732105D01*
X29410397Y-10737321D01*
X29389162Y-10740471D01*
X29367721Y-10741524D01*
X28855221Y-10741524D01*
X28833780Y-10740471D01*
X28812545Y-10737321D01*
X28791721Y-10732105D01*
X28771509Y-10724873D01*
X28752103Y-10715694D01*
X28733690Y-10704658D01*
X28716447Y-10691870D01*
X28700541Y-10677454D01*
X28686125Y-10661548D01*
X28673337Y-10644305D01*
X28662301Y-10625892D01*
X28653122Y-10606486D01*
X28645890Y-10586274D01*
X28640674Y-10565450D01*
X28637524Y-10544215D01*
X28636471Y-10522774D01*
X28636471Y-10085274D01*
X28637524Y-10063833D01*
X28640674Y-10042598D01*
X28645890Y-10021774D01*
X28653122Y-10001562D01*
X28662301Y-9982156D01*
X28673337Y-9963743D01*
X28686125Y-9946500D01*
X28700541Y-9930594D01*
X28716447Y-9916178D01*
X28733690Y-9903390D01*
X28752103Y-9892354D01*
X28771509Y-9883175D01*
X28791721Y-9875943D01*
X28812545Y-9870727D01*
X28833780Y-9867577D01*
X28855221Y-9866524D01*
X29367721Y-9866524D01*
X29389162Y-9867577D01*
X29389162Y-9867577D01*
G37*
D12*
G04 #@! TD*
G04 #@! TO.P,R3,2*
G04 #@! TO.N,GND*
X29111471Y-10304024D03*
D11*
G04 #@! TO.N,GND*
G04 #@! TO.C,R2*
G36*
X31205661Y-9867577D02*
X31226896Y-9870727D01*
X31247720Y-9875943D01*
X31267932Y-9883175D01*
X31287338Y-9892354D01*
X31305751Y-9903390D01*
X31322994Y-9916178D01*
X31338900Y-9930594D01*
X31353316Y-9946500D01*
X31366104Y-9963743D01*
X31377140Y-9982156D01*
X31386319Y-10001562D01*
X31393551Y-10021774D01*
X31398767Y-10042598D01*
X31401917Y-10063833D01*
X31402970Y-10085274D01*
X31402970Y-10522774D01*
X31401917Y-10544215D01*
X31398767Y-10565450D01*
X31393551Y-10586274D01*
X31386319Y-10606486D01*
X31377140Y-10625892D01*
X31366104Y-10644305D01*
X31353316Y-10661548D01*
X31338900Y-10677454D01*
X31322994Y-10691870D01*
X31305751Y-10704658D01*
X31287338Y-10715694D01*
X31267932Y-10724873D01*
X31247720Y-10732105D01*
X31226896Y-10737321D01*
X31205661Y-10740471D01*
X31184220Y-10741524D01*
X30671720Y-10741524D01*
X30650279Y-10740471D01*
X30629044Y-10737321D01*
X30608220Y-10732105D01*
X30588008Y-10724873D01*
X30568602Y-10715694D01*
X30550189Y-10704658D01*
X30532946Y-10691870D01*
X30517040Y-10677454D01*
X30502624Y-10661548D01*
X30489836Y-10644305D01*
X30478800Y-10625892D01*
X30469621Y-10606486D01*
X30462389Y-10586274D01*
X30457173Y-10565450D01*
X30454023Y-10544215D01*
X30452970Y-10522774D01*
X30452970Y-10085274D01*
X30454023Y-10063833D01*
X30457173Y-10042598D01*
X30462389Y-10021774D01*
X30469621Y-10001562D01*
X30478800Y-9982156D01*
X30489836Y-9963743D01*
X30502624Y-9946500D01*
X30517040Y-9930594D01*
X30532946Y-9916178D01*
X30550189Y-9903390D01*
X30568602Y-9892354D01*
X30588008Y-9883175D01*
X30608220Y-9875943D01*
X30629044Y-9870727D01*
X30650279Y-9867577D01*
X30671720Y-9866524D01*
X31184220Y-9866524D01*
X31205661Y-9867577D01*
X31205661Y-9867577D01*
G37*
D12*
G04 #@! TD*
G04 #@! TO.P,R2,2*
G04 #@! TO.N,GND*
X30927970Y-10304024D03*
D11*
G04 #@! TO.N,S3*
G04 #@! TO.C,R2*
G36*
X31205661Y-11442577D02*
X31226896Y-11445727D01*
X31247720Y-11450943D01*
X31267932Y-11458175D01*
X31287338Y-11467354D01*
X31305751Y-11478390D01*
X31322994Y-11491178D01*
X31338900Y-11505594D01*
X31353316Y-11521500D01*
X31366104Y-11538743D01*
X31377140Y-11557156D01*
X31386319Y-11576562D01*
X31393551Y-11596774D01*
X31398767Y-11617598D01*
X31401917Y-11638833D01*
X31402970Y-11660274D01*
X31402970Y-12097774D01*
X31401917Y-12119215D01*
X31398767Y-12140450D01*
X31393551Y-12161274D01*
X31386319Y-12181486D01*
X31377140Y-12200892D01*
X31366104Y-12219305D01*
X31353316Y-12236548D01*
X31338900Y-12252454D01*
X31322994Y-12266870D01*
X31305751Y-12279658D01*
X31287338Y-12290694D01*
X31267932Y-12299873D01*
X31247720Y-12307105D01*
X31226896Y-12312321D01*
X31205661Y-12315471D01*
X31184220Y-12316524D01*
X30671720Y-12316524D01*
X30650279Y-12315471D01*
X30629044Y-12312321D01*
X30608220Y-12307105D01*
X30588008Y-12299873D01*
X30568602Y-12290694D01*
X30550189Y-12279658D01*
X30532946Y-12266870D01*
X30517040Y-12252454D01*
X30502624Y-12236548D01*
X30489836Y-12219305D01*
X30478800Y-12200892D01*
X30469621Y-12181486D01*
X30462389Y-12161274D01*
X30457173Y-12140450D01*
X30454023Y-12119215D01*
X30452970Y-12097774D01*
X30452970Y-11660274D01*
X30454023Y-11638833D01*
X30457173Y-11617598D01*
X30462389Y-11596774D01*
X30469621Y-11576562D01*
X30478800Y-11557156D01*
X30489836Y-11538743D01*
X30502624Y-11521500D01*
X30517040Y-11505594D01*
X30532946Y-11491178D01*
X30550189Y-11478390D01*
X30568602Y-11467354D01*
X30588008Y-11458175D01*
X30608220Y-11450943D01*
X30629044Y-11445727D01*
X30650279Y-11442577D01*
X30671720Y-11441524D01*
X31184220Y-11441524D01*
X31205661Y-11442577D01*
X31205661Y-11442577D01*
G37*
D12*
G04 #@! TD*
G04 #@! TO.P,R2,1*
G04 #@! TO.N,S3*
X30927970Y-11879024D03*
D11*
G04 #@! TO.N,GND*
G04 #@! TO.C,C3*
G36*
X3649504Y-19976204D02*
X3673773Y-19979804D01*
X3697571Y-19985765D01*
X3720671Y-19994030D01*
X3742849Y-20004520D01*
X3763893Y-20017133D01*
X3783598Y-20031747D01*
X3801777Y-20048223D01*
X3818253Y-20066402D01*
X3832867Y-20086107D01*
X3845480Y-20107151D01*
X3855970Y-20129329D01*
X3864235Y-20152429D01*
X3870196Y-20176227D01*
X3873796Y-20200496D01*
X3875000Y-20225000D01*
X3875000Y-20975000D01*
X3873796Y-20999504D01*
X3870196Y-21023773D01*
X3864235Y-21047571D01*
X3855970Y-21070671D01*
X3845480Y-21092849D01*
X3832867Y-21113893D01*
X3818253Y-21133598D01*
X3801777Y-21151777D01*
X3783598Y-21168253D01*
X3763893Y-21182867D01*
X3742849Y-21195480D01*
X3720671Y-21205970D01*
X3697571Y-21214235D01*
X3673773Y-21220196D01*
X3649504Y-21223796D01*
X3625000Y-21225000D01*
X2375000Y-21225000D01*
X2350496Y-21223796D01*
X2326227Y-21220196D01*
X2302429Y-21214235D01*
X2279329Y-21205970D01*
X2257151Y-21195480D01*
X2236107Y-21182867D01*
X2216402Y-21168253D01*
X2198223Y-21151777D01*
X2181747Y-21133598D01*
X2167133Y-21113893D01*
X2154520Y-21092849D01*
X2144030Y-21070671D01*
X2135765Y-21047571D01*
X2129804Y-21023773D01*
X2126204Y-20999504D01*
X2125000Y-20975000D01*
X2125000Y-20225000D01*
X2126204Y-20200496D01*
X2129804Y-20176227D01*
X2135765Y-20152429D01*
X2144030Y-20129329D01*
X2154520Y-20107151D01*
X2167133Y-20086107D01*
X2181747Y-20066402D01*
X2198223Y-20048223D01*
X2216402Y-20031747D01*
X2236107Y-20017133D01*
X2257151Y-20004520D01*
X2279329Y-19994030D01*
X2302429Y-19985765D01*
X2326227Y-19979804D01*
X2350496Y-19976204D01*
X2375000Y-19975000D01*
X3625000Y-19975000D01*
X3649504Y-19976204D01*
X3649504Y-19976204D01*
G37*
D13*
G04 #@! TD*
G04 #@! TO.P,C3,2*
G04 #@! TO.N,GND*
X3000000Y-20600000D03*
D11*
G04 #@! TO.N,PD_out*
G04 #@! TO.C,C3*
G36*
X3649504Y-22776204D02*
X3673773Y-22779804D01*
X3697571Y-22785765D01*
X3720671Y-22794030D01*
X3742849Y-22804520D01*
X3763893Y-22817133D01*
X3783598Y-22831747D01*
X3801777Y-22848223D01*
X3818253Y-22866402D01*
X3832867Y-22886107D01*
X3845480Y-22907151D01*
X3855970Y-22929329D01*
X3864235Y-22952429D01*
X3870196Y-22976227D01*
X3873796Y-23000496D01*
X3875000Y-23025000D01*
X3875000Y-23775000D01*
X3873796Y-23799504D01*
X3870196Y-23823773D01*
X3864235Y-23847571D01*
X3855970Y-23870671D01*
X3845480Y-23892849D01*
X3832867Y-23913893D01*
X3818253Y-23933598D01*
X3801777Y-23951777D01*
X3783598Y-23968253D01*
X3763893Y-23982867D01*
X3742849Y-23995480D01*
X3720671Y-24005970D01*
X3697571Y-24014235D01*
X3673773Y-24020196D01*
X3649504Y-24023796D01*
X3625000Y-24025000D01*
X2375000Y-24025000D01*
X2350496Y-24023796D01*
X2326227Y-24020196D01*
X2302429Y-24014235D01*
X2279329Y-24005970D01*
X2257151Y-23995480D01*
X2236107Y-23982867D01*
X2216402Y-23968253D01*
X2198223Y-23951777D01*
X2181747Y-23933598D01*
X2167133Y-23913893D01*
X2154520Y-23892849D01*
X2144030Y-23870671D01*
X2135765Y-23847571D01*
X2129804Y-23823773D01*
X2126204Y-23799504D01*
X2125000Y-23775000D01*
X2125000Y-23025000D01*
X2126204Y-23000496D01*
X2129804Y-22976227D01*
X2135765Y-22952429D01*
X2144030Y-22929329D01*
X2154520Y-22907151D01*
X2167133Y-22886107D01*
X2181747Y-22866402D01*
X2198223Y-22848223D01*
X2216402Y-22831747D01*
X2236107Y-22817133D01*
X2257151Y-22804520D01*
X2279329Y-22794030D01*
X2302429Y-22785765D01*
X2326227Y-22779804D01*
X2350496Y-22776204D01*
X2375000Y-22775000D01*
X3625000Y-22775000D01*
X3649504Y-22776204D01*
X3649504Y-22776204D01*
G37*
D13*
G04 #@! TD*
G04 #@! TO.P,C3,1*
G04 #@! TO.N,PD_out*
X3000000Y-23400000D03*
D11*
G04 #@! TO.N,GND*
G04 #@! TO.C,R5*
G36*
X29277691Y-27351053D02*
X29298926Y-27354203D01*
X29319750Y-27359419D01*
X29339962Y-27366651D01*
X29359368Y-27375830D01*
X29377781Y-27386866D01*
X29395024Y-27399654D01*
X29410930Y-27414070D01*
X29425346Y-27429976D01*
X29438134Y-27447219D01*
X29449170Y-27465632D01*
X29458349Y-27485038D01*
X29465581Y-27505250D01*
X29470797Y-27526074D01*
X29473947Y-27547309D01*
X29475000Y-27568750D01*
X29475000Y-28006250D01*
X29473947Y-28027691D01*
X29470797Y-28048926D01*
X29465581Y-28069750D01*
X29458349Y-28089962D01*
X29449170Y-28109368D01*
X29438134Y-28127781D01*
X29425346Y-28145024D01*
X29410930Y-28160930D01*
X29395024Y-28175346D01*
X29377781Y-28188134D01*
X29359368Y-28199170D01*
X29339962Y-28208349D01*
X29319750Y-28215581D01*
X29298926Y-28220797D01*
X29277691Y-28223947D01*
X29256250Y-28225000D01*
X28743750Y-28225000D01*
X28722309Y-28223947D01*
X28701074Y-28220797D01*
X28680250Y-28215581D01*
X28660038Y-28208349D01*
X28640632Y-28199170D01*
X28622219Y-28188134D01*
X28604976Y-28175346D01*
X28589070Y-28160930D01*
X28574654Y-28145024D01*
X28561866Y-28127781D01*
X28550830Y-28109368D01*
X28541651Y-28089962D01*
X28534419Y-28069750D01*
X28529203Y-28048926D01*
X28526053Y-28027691D01*
X28525000Y-28006250D01*
X28525000Y-27568750D01*
X28526053Y-27547309D01*
X28529203Y-27526074D01*
X28534419Y-27505250D01*
X28541651Y-27485038D01*
X28550830Y-27465632D01*
X28561866Y-27447219D01*
X28574654Y-27429976D01*
X28589070Y-27414070D01*
X28604976Y-27399654D01*
X28622219Y-27386866D01*
X28640632Y-27375830D01*
X28660038Y-27366651D01*
X28680250Y-27359419D01*
X28701074Y-27354203D01*
X28722309Y-27351053D01*
X28743750Y-27350000D01*
X29256250Y-27350000D01*
X29277691Y-27351053D01*
X29277691Y-27351053D01*
G37*
D12*
G04 #@! TD*
G04 #@! TO.P,R5,2*
G04 #@! TO.N,GND*
X29000000Y-27787500D03*
D11*
G04 #@! TO.N,S0*
G04 #@! TO.C,R5*
G36*
X29277691Y-25776053D02*
X29298926Y-25779203D01*
X29319750Y-25784419D01*
X29339962Y-25791651D01*
X29359368Y-25800830D01*
X29377781Y-25811866D01*
X29395024Y-25824654D01*
X29410930Y-25839070D01*
X29425346Y-25854976D01*
X29438134Y-25872219D01*
X29449170Y-25890632D01*
X29458349Y-25910038D01*
X29465581Y-25930250D01*
X29470797Y-25951074D01*
X29473947Y-25972309D01*
X29475000Y-25993750D01*
X29475000Y-26431250D01*
X29473947Y-26452691D01*
X29470797Y-26473926D01*
X29465581Y-26494750D01*
X29458349Y-26514962D01*
X29449170Y-26534368D01*
X29438134Y-26552781D01*
X29425346Y-26570024D01*
X29410930Y-26585930D01*
X29395024Y-26600346D01*
X29377781Y-26613134D01*
X29359368Y-26624170D01*
X29339962Y-26633349D01*
X29319750Y-26640581D01*
X29298926Y-26645797D01*
X29277691Y-26648947D01*
X29256250Y-26650000D01*
X28743750Y-26650000D01*
X28722309Y-26648947D01*
X28701074Y-26645797D01*
X28680250Y-26640581D01*
X28660038Y-26633349D01*
X28640632Y-26624170D01*
X28622219Y-26613134D01*
X28604976Y-26600346D01*
X28589070Y-26585930D01*
X28574654Y-26570024D01*
X28561866Y-26552781D01*
X28550830Y-26534368D01*
X28541651Y-26514962D01*
X28534419Y-26494750D01*
X28529203Y-26473926D01*
X28526053Y-26452691D01*
X28525000Y-26431250D01*
X28525000Y-25993750D01*
X28526053Y-25972309D01*
X28529203Y-25951074D01*
X28534419Y-25930250D01*
X28541651Y-25910038D01*
X28550830Y-25890632D01*
X28561866Y-25872219D01*
X28574654Y-25854976D01*
X28589070Y-25839070D01*
X28604976Y-25824654D01*
X28622219Y-25811866D01*
X28640632Y-25800830D01*
X28660038Y-25791651D01*
X28680250Y-25784419D01*
X28701074Y-25779203D01*
X28722309Y-25776053D01*
X28743750Y-25775000D01*
X29256250Y-25775000D01*
X29277691Y-25776053D01*
X29277691Y-25776053D01*
G37*
D12*
G04 #@! TD*
G04 #@! TO.P,R5,1*
G04 #@! TO.N,S0*
X29000000Y-26212500D03*
D11*
G04 #@! TO.N,+5V*
G04 #@! TO.C,C1*
G36*
X8980142Y-25513674D02*
X9003803Y-25517184D01*
X9027007Y-25522996D01*
X9049529Y-25531054D01*
X9071153Y-25541282D01*
X9091670Y-25553579D01*
X9110883Y-25567829D01*
X9128607Y-25583893D01*
X9144671Y-25601617D01*
X9158921Y-25620830D01*
X9171218Y-25641347D01*
X9181446Y-25662971D01*
X9189504Y-25685493D01*
X9195316Y-25708697D01*
X9198826Y-25732358D01*
X9200000Y-25756250D01*
X9200000Y-26243750D01*
X9198826Y-26267642D01*
X9195316Y-26291303D01*
X9189504Y-26314507D01*
X9181446Y-26337029D01*
X9171218Y-26358653D01*
X9158921Y-26379170D01*
X9144671Y-26398383D01*
X9128607Y-26416107D01*
X9110883Y-26432171D01*
X9091670Y-26446421D01*
X9071153Y-26458718D01*
X9049529Y-26468946D01*
X9027007Y-26477004D01*
X9003803Y-26482816D01*
X8980142Y-26486326D01*
X8956250Y-26487500D01*
X8043750Y-26487500D01*
X8019858Y-26486326D01*
X7996197Y-26482816D01*
X7972993Y-26477004D01*
X7950471Y-26468946D01*
X7928847Y-26458718D01*
X7908330Y-26446421D01*
X7889117Y-26432171D01*
X7871393Y-26416107D01*
X7855329Y-26398383D01*
X7841079Y-26379170D01*
X7828782Y-26358653D01*
X7818554Y-26337029D01*
X7810496Y-26314507D01*
X7804684Y-26291303D01*
X7801174Y-26267642D01*
X7800000Y-26243750D01*
X7800000Y-25756250D01*
X7801174Y-25732358D01*
X7804684Y-25708697D01*
X7810496Y-25685493D01*
X7818554Y-25662971D01*
X7828782Y-25641347D01*
X7841079Y-25620830D01*
X7855329Y-25601617D01*
X7871393Y-25583893D01*
X7889117Y-25567829D01*
X7908330Y-25553579D01*
X7928847Y-25541282D01*
X7950471Y-25531054D01*
X7972993Y-25522996D01*
X7996197Y-25517184D01*
X8019858Y-25513674D01*
X8043750Y-25512500D01*
X8956250Y-25512500D01*
X8980142Y-25513674D01*
X8980142Y-25513674D01*
G37*
D14*
G04 #@! TD*
G04 #@! TO.P,C1,1*
G04 #@! TO.N,+5V*
X8500000Y-26000000D03*
D11*
G04 #@! TO.N,GND*
G04 #@! TO.C,C1*
G36*
X8980142Y-27388674D02*
X9003803Y-27392184D01*
X9027007Y-27397996D01*
X9049529Y-27406054D01*
X9071153Y-27416282D01*
X9091670Y-27428579D01*
X9110883Y-27442829D01*
X9128607Y-27458893D01*
X9144671Y-27476617D01*
X9158921Y-27495830D01*
X9171218Y-27516347D01*
X9181446Y-27537971D01*
X9189504Y-27560493D01*
X9195316Y-27583697D01*
X9198826Y-27607358D01*
X9200000Y-27631250D01*
X9200000Y-28118750D01*
X9198826Y-28142642D01*
X9195316Y-28166303D01*
X9189504Y-28189507D01*
X9181446Y-28212029D01*
X9171218Y-28233653D01*
X9158921Y-28254170D01*
X9144671Y-28273383D01*
X9128607Y-28291107D01*
X9110883Y-28307171D01*
X9091670Y-28321421D01*
X9071153Y-28333718D01*
X9049529Y-28343946D01*
X9027007Y-28352004D01*
X9003803Y-28357816D01*
X8980142Y-28361326D01*
X8956250Y-28362500D01*
X8043750Y-28362500D01*
X8019858Y-28361326D01*
X7996197Y-28357816D01*
X7972993Y-28352004D01*
X7950471Y-28343946D01*
X7928847Y-28333718D01*
X7908330Y-28321421D01*
X7889117Y-28307171D01*
X7871393Y-28291107D01*
X7855329Y-28273383D01*
X7841079Y-28254170D01*
X7828782Y-28233653D01*
X7818554Y-28212029D01*
X7810496Y-28189507D01*
X7804684Y-28166303D01*
X7801174Y-28142642D01*
X7800000Y-28118750D01*
X7800000Y-27631250D01*
X7801174Y-27607358D01*
X7804684Y-27583697D01*
X7810496Y-27560493D01*
X7818554Y-27537971D01*
X7828782Y-27516347D01*
X7841079Y-27495830D01*
X7855329Y-27476617D01*
X7871393Y-27458893D01*
X7889117Y-27442829D01*
X7908330Y-27428579D01*
X7928847Y-27416282D01*
X7950471Y-27406054D01*
X7972993Y-27397996D01*
X7996197Y-27392184D01*
X8019858Y-27388674D01*
X8043750Y-27387500D01*
X8956250Y-27387500D01*
X8980142Y-27388674D01*
X8980142Y-27388674D01*
G37*
D14*
G04 #@! TD*
G04 #@! TO.P,C1,2*
G04 #@! TO.N,GND*
X8500000Y-27875000D03*
D11*
G04 #@! TO.N,+5V*
G04 #@! TO.C,C2*
G36*
X9006203Y-19191113D02*
X9030472Y-19194713D01*
X9054270Y-19200674D01*
X9077370Y-19208939D01*
X9099548Y-19219429D01*
X9120592Y-19232042D01*
X9140297Y-19246656D01*
X9158476Y-19263132D01*
X9174952Y-19281311D01*
X9189566Y-19301016D01*
X9202179Y-19322060D01*
X9212669Y-19344238D01*
X9220934Y-19367338D01*
X9226895Y-19391136D01*
X9230495Y-19415405D01*
X9231699Y-19439909D01*
X9231699Y-20189909D01*
X9230495Y-20214413D01*
X9226895Y-20238682D01*
X9220934Y-20262480D01*
X9212669Y-20285580D01*
X9202179Y-20307758D01*
X9189566Y-20328802D01*
X9174952Y-20348507D01*
X9158476Y-20366686D01*
X9140297Y-20383162D01*
X9120592Y-20397776D01*
X9099548Y-20410389D01*
X9077370Y-20420879D01*
X9054270Y-20429144D01*
X9030472Y-20435105D01*
X9006203Y-20438705D01*
X8981699Y-20439909D01*
X7731699Y-20439909D01*
X7707195Y-20438705D01*
X7682926Y-20435105D01*
X7659128Y-20429144D01*
X7636028Y-20420879D01*
X7613850Y-20410389D01*
X7592806Y-20397776D01*
X7573101Y-20383162D01*
X7554922Y-20366686D01*
X7538446Y-20348507D01*
X7523832Y-20328802D01*
X7511219Y-20307758D01*
X7500729Y-20285580D01*
X7492464Y-20262480D01*
X7486503Y-20238682D01*
X7482903Y-20214413D01*
X7481699Y-20189909D01*
X7481699Y-19439909D01*
X7482903Y-19415405D01*
X7486503Y-19391136D01*
X7492464Y-19367338D01*
X7500729Y-19344238D01*
X7511219Y-19322060D01*
X7523832Y-19301016D01*
X7538446Y-19281311D01*
X7554922Y-19263132D01*
X7573101Y-19246656D01*
X7592806Y-19232042D01*
X7613850Y-19219429D01*
X7636028Y-19208939D01*
X7659128Y-19200674D01*
X7682926Y-19194713D01*
X7707195Y-19191113D01*
X7731699Y-19189909D01*
X8981699Y-19189909D01*
X9006203Y-19191113D01*
X9006203Y-19191113D01*
G37*
D13*
G04 #@! TD*
G04 #@! TO.P,C2,1*
G04 #@! TO.N,+5V*
X8356699Y-19814909D03*
D11*
G04 #@! TO.N,GND*
G04 #@! TO.C,C2*
G36*
X9006203Y-21991113D02*
X9030472Y-21994713D01*
X9054270Y-22000674D01*
X9077370Y-22008939D01*
X9099548Y-22019429D01*
X9120592Y-22032042D01*
X9140297Y-22046656D01*
X9158476Y-22063132D01*
X9174952Y-22081311D01*
X9189566Y-22101016D01*
X9202179Y-22122060D01*
X9212669Y-22144238D01*
X9220934Y-22167338D01*
X9226895Y-22191136D01*
X9230495Y-22215405D01*
X9231699Y-22239909D01*
X9231699Y-22989909D01*
X9230495Y-23014413D01*
X9226895Y-23038682D01*
X9220934Y-23062480D01*
X9212669Y-23085580D01*
X9202179Y-23107758D01*
X9189566Y-23128802D01*
X9174952Y-23148507D01*
X9158476Y-23166686D01*
X9140297Y-23183162D01*
X9120592Y-23197776D01*
X9099548Y-23210389D01*
X9077370Y-23220879D01*
X9054270Y-23229144D01*
X9030472Y-23235105D01*
X9006203Y-23238705D01*
X8981699Y-23239909D01*
X7731699Y-23239909D01*
X7707195Y-23238705D01*
X7682926Y-23235105D01*
X7659128Y-23229144D01*
X7636028Y-23220879D01*
X7613850Y-23210389D01*
X7592806Y-23197776D01*
X7573101Y-23183162D01*
X7554922Y-23166686D01*
X7538446Y-23148507D01*
X7523832Y-23128802D01*
X7511219Y-23107758D01*
X7500729Y-23085580D01*
X7492464Y-23062480D01*
X7486503Y-23038682D01*
X7482903Y-23014413D01*
X7481699Y-22989909D01*
X7481699Y-22239909D01*
X7482903Y-22215405D01*
X7486503Y-22191136D01*
X7492464Y-22167338D01*
X7500729Y-22144238D01*
X7511219Y-22122060D01*
X7523832Y-22101016D01*
X7538446Y-22081311D01*
X7554922Y-22063132D01*
X7573101Y-22046656D01*
X7592806Y-22032042D01*
X7613850Y-22019429D01*
X7636028Y-22008939D01*
X7659128Y-22000674D01*
X7682926Y-21994713D01*
X7707195Y-21991113D01*
X7731699Y-21989909D01*
X8981699Y-21989909D01*
X9006203Y-21991113D01*
X9006203Y-21991113D01*
G37*
D13*
G04 #@! TD*
G04 #@! TO.P,C2,2*
G04 #@! TO.N,GND*
X8356699Y-22614909D03*
D11*
G04 #@! TO.N,+5V*
G04 #@! TO.C,C4*
G36*
X15385529Y-13697765D02*
X15409798Y-13701365D01*
X15433596Y-13707326D01*
X15456696Y-13715591D01*
X15478874Y-13726081D01*
X15499918Y-13738694D01*
X15519623Y-13753308D01*
X15537802Y-13769784D01*
X15554278Y-13787963D01*
X15568892Y-13807668D01*
X15581505Y-13828712D01*
X15591995Y-13850890D01*
X15600260Y-13873990D01*
X15606221Y-13897788D01*
X15609821Y-13922057D01*
X15611025Y-13946561D01*
X15611025Y-14696561D01*
X15609821Y-14721065D01*
X15606221Y-14745334D01*
X15600260Y-14769132D01*
X15591995Y-14792232D01*
X15581505Y-14814410D01*
X15568892Y-14835454D01*
X15554278Y-14855159D01*
X15537802Y-14873338D01*
X15519623Y-14889814D01*
X15499918Y-14904428D01*
X15478874Y-14917041D01*
X15456696Y-14927531D01*
X15433596Y-14935796D01*
X15409798Y-14941757D01*
X15385529Y-14945357D01*
X15361025Y-14946561D01*
X14111025Y-14946561D01*
X14086521Y-14945357D01*
X14062252Y-14941757D01*
X14038454Y-14935796D01*
X14015354Y-14927531D01*
X13993176Y-14917041D01*
X13972132Y-14904428D01*
X13952427Y-14889814D01*
X13934248Y-14873338D01*
X13917772Y-14855159D01*
X13903158Y-14835454D01*
X13890545Y-14814410D01*
X13880055Y-14792232D01*
X13871790Y-14769132D01*
X13865829Y-14745334D01*
X13862229Y-14721065D01*
X13861025Y-14696561D01*
X13861025Y-13946561D01*
X13862229Y-13922057D01*
X13865829Y-13897788D01*
X13871790Y-13873990D01*
X13880055Y-13850890D01*
X13890545Y-13828712D01*
X13903158Y-13807668D01*
X13917772Y-13787963D01*
X13934248Y-13769784D01*
X13952427Y-13753308D01*
X13972132Y-13738694D01*
X13993176Y-13726081D01*
X14015354Y-13715591D01*
X14038454Y-13707326D01*
X14062252Y-13701365D01*
X14086521Y-13697765D01*
X14111025Y-13696561D01*
X15361025Y-13696561D01*
X15385529Y-13697765D01*
X15385529Y-13697765D01*
G37*
D13*
G04 #@! TD*
G04 #@! TO.P,C4,1*
G04 #@! TO.N,+5V*
X14736025Y-14321561D03*
D11*
G04 #@! TO.N,GND*
G04 #@! TO.C,C4*
G36*
X15385529Y-10897765D02*
X15409798Y-10901365D01*
X15433596Y-10907326D01*
X15456696Y-10915591D01*
X15478874Y-10926081D01*
X15499918Y-10938694D01*
X15519623Y-10953308D01*
X15537802Y-10969784D01*
X15554278Y-10987963D01*
X15568892Y-11007668D01*
X15581505Y-11028712D01*
X15591995Y-11050890D01*
X15600260Y-11073990D01*
X15606221Y-11097788D01*
X15609821Y-11122057D01*
X15611025Y-11146561D01*
X15611025Y-11896561D01*
X15609821Y-11921065D01*
X15606221Y-11945334D01*
X15600260Y-11969132D01*
X15591995Y-11992232D01*
X15581505Y-12014410D01*
X15568892Y-12035454D01*
X15554278Y-12055159D01*
X15537802Y-12073338D01*
X15519623Y-12089814D01*
X15499918Y-12104428D01*
X15478874Y-12117041D01*
X15456696Y-12127531D01*
X15433596Y-12135796D01*
X15409798Y-12141757D01*
X15385529Y-12145357D01*
X15361025Y-12146561D01*
X14111025Y-12146561D01*
X14086521Y-12145357D01*
X14062252Y-12141757D01*
X14038454Y-12135796D01*
X14015354Y-12127531D01*
X13993176Y-12117041D01*
X13972132Y-12104428D01*
X13952427Y-12089814D01*
X13934248Y-12073338D01*
X13917772Y-12055159D01*
X13903158Y-12035454D01*
X13890545Y-12014410D01*
X13880055Y-11992232D01*
X13871790Y-11969132D01*
X13865829Y-11945334D01*
X13862229Y-11921065D01*
X13861025Y-11896561D01*
X13861025Y-11146561D01*
X13862229Y-11122057D01*
X13865829Y-11097788D01*
X13871790Y-11073990D01*
X13880055Y-11050890D01*
X13890545Y-11028712D01*
X13903158Y-11007668D01*
X13917772Y-10987963D01*
X13934248Y-10969784D01*
X13952427Y-10953308D01*
X13972132Y-10938694D01*
X13993176Y-10926081D01*
X14015354Y-10915591D01*
X14038454Y-10907326D01*
X14062252Y-10901365D01*
X14086521Y-10897765D01*
X14111025Y-10896561D01*
X15361025Y-10896561D01*
X15385529Y-10897765D01*
X15385529Y-10897765D01*
G37*
D13*
G04 #@! TD*
G04 #@! TO.P,C4,2*
G04 #@! TO.N,GND*
X14736025Y-11521561D03*
D11*
G04 #@! TO.N,Net-(D11-Pad1)*
G04 #@! TO.C,D11*
G36*
X3527691Y-13526053D02*
X3548926Y-13529203D01*
X3569750Y-13534419D01*
X3589962Y-13541651D01*
X3609368Y-13550830D01*
X3627781Y-13561866D01*
X3645024Y-13574654D01*
X3660930Y-13589070D01*
X3675346Y-13604976D01*
X3688134Y-13622219D01*
X3699170Y-13640632D01*
X3708349Y-13660038D01*
X3715581Y-13680250D01*
X3720797Y-13701074D01*
X3723947Y-13722309D01*
X3725000Y-13743750D01*
X3725000Y-14256250D01*
X3723947Y-14277691D01*
X3720797Y-14298926D01*
X3715581Y-14319750D01*
X3708349Y-14339962D01*
X3699170Y-14359368D01*
X3688134Y-14377781D01*
X3675346Y-14395024D01*
X3660930Y-14410930D01*
X3645024Y-14425346D01*
X3627781Y-14438134D01*
X3609368Y-14449170D01*
X3589962Y-14458349D01*
X3569750Y-14465581D01*
X3548926Y-14470797D01*
X3527691Y-14473947D01*
X3506250Y-14475000D01*
X3068750Y-14475000D01*
X3047309Y-14473947D01*
X3026074Y-14470797D01*
X3005250Y-14465581D01*
X2985038Y-14458349D01*
X2965632Y-14449170D01*
X2947219Y-14438134D01*
X2929976Y-14425346D01*
X2914070Y-14410930D01*
X2899654Y-14395024D01*
X2886866Y-14377781D01*
X2875830Y-14359368D01*
X2866651Y-14339962D01*
X2859419Y-14319750D01*
X2854203Y-14298926D01*
X2851053Y-14277691D01*
X2850000Y-14256250D01*
X2850000Y-13743750D01*
X2851053Y-13722309D01*
X2854203Y-13701074D01*
X2859419Y-13680250D01*
X2866651Y-13660038D01*
X2875830Y-13640632D01*
X2886866Y-13622219D01*
X2899654Y-13604976D01*
X2914070Y-13589070D01*
X2929976Y-13574654D01*
X2947219Y-13561866D01*
X2965632Y-13550830D01*
X2985038Y-13541651D01*
X3005250Y-13534419D01*
X3026074Y-13529203D01*
X3047309Y-13526053D01*
X3068750Y-13525000D01*
X3506250Y-13525000D01*
X3527691Y-13526053D01*
X3527691Y-13526053D01*
G37*
D12*
G04 #@! TD*
G04 #@! TO.P,D11,1*
G04 #@! TO.N,Net-(D11-Pad1)*
X3287500Y-14000000D03*
D11*
G04 #@! TO.N,+5V*
G04 #@! TO.C,D11*
G36*
X1952691Y-13526053D02*
X1973926Y-13529203D01*
X1994750Y-13534419D01*
X2014962Y-13541651D01*
X2034368Y-13550830D01*
X2052781Y-13561866D01*
X2070024Y-13574654D01*
X2085930Y-13589070D01*
X2100346Y-13604976D01*
X2113134Y-13622219D01*
X2124170Y-13640632D01*
X2133349Y-13660038D01*
X2140581Y-13680250D01*
X2145797Y-13701074D01*
X2148947Y-13722309D01*
X2150000Y-13743750D01*
X2150000Y-14256250D01*
X2148947Y-14277691D01*
X2145797Y-14298926D01*
X2140581Y-14319750D01*
X2133349Y-14339962D01*
X2124170Y-14359368D01*
X2113134Y-14377781D01*
X2100346Y-14395024D01*
X2085930Y-14410930D01*
X2070024Y-14425346D01*
X2052781Y-14438134D01*
X2034368Y-14449170D01*
X2014962Y-14458349D01*
X1994750Y-14465581D01*
X1973926Y-14470797D01*
X1952691Y-14473947D01*
X1931250Y-14475000D01*
X1493750Y-14475000D01*
X1472309Y-14473947D01*
X1451074Y-14470797D01*
X1430250Y-14465581D01*
X1410038Y-14458349D01*
X1390632Y-14449170D01*
X1372219Y-14438134D01*
X1354976Y-14425346D01*
X1339070Y-14410930D01*
X1324654Y-14395024D01*
X1311866Y-14377781D01*
X1300830Y-14359368D01*
X1291651Y-14339962D01*
X1284419Y-14319750D01*
X1279203Y-14298926D01*
X1276053Y-14277691D01*
X1275000Y-14256250D01*
X1275000Y-13743750D01*
X1276053Y-13722309D01*
X1279203Y-13701074D01*
X1284419Y-13680250D01*
X1291651Y-13660038D01*
X1300830Y-13640632D01*
X1311866Y-13622219D01*
X1324654Y-13604976D01*
X1339070Y-13589070D01*
X1354976Y-13574654D01*
X1372219Y-13561866D01*
X1390632Y-13550830D01*
X1410038Y-13541651D01*
X1430250Y-13534419D01*
X1451074Y-13529203D01*
X1472309Y-13526053D01*
X1493750Y-13525000D01*
X1931250Y-13525000D01*
X1952691Y-13526053D01*
X1952691Y-13526053D01*
G37*
D12*
G04 #@! TD*
G04 #@! TO.P,D11,2*
G04 #@! TO.N,+5V*
X1712500Y-14000000D03*
D11*
G04 #@! TO.N,S1*
G04 #@! TO.C,R4*
G36*
X31277691Y-25776053D02*
X31298926Y-25779203D01*
X31319750Y-25784419D01*
X31339962Y-25791651D01*
X31359368Y-25800830D01*
X31377781Y-25811866D01*
X31395024Y-25824654D01*
X31410930Y-25839070D01*
X31425346Y-25854976D01*
X31438134Y-25872219D01*
X31449170Y-25890632D01*
X31458349Y-25910038D01*
X31465581Y-25930250D01*
X31470797Y-25951074D01*
X31473947Y-25972309D01*
X31475000Y-25993750D01*
X31475000Y-26431250D01*
X31473947Y-26452691D01*
X31470797Y-26473926D01*
X31465581Y-26494750D01*
X31458349Y-26514962D01*
X31449170Y-26534368D01*
X31438134Y-26552781D01*
X31425346Y-26570024D01*
X31410930Y-26585930D01*
X31395024Y-26600346D01*
X31377781Y-26613134D01*
X31359368Y-26624170D01*
X31339962Y-26633349D01*
X31319750Y-26640581D01*
X31298926Y-26645797D01*
X31277691Y-26648947D01*
X31256250Y-26650000D01*
X30743750Y-26650000D01*
X30722309Y-26648947D01*
X30701074Y-26645797D01*
X30680250Y-26640581D01*
X30660038Y-26633349D01*
X30640632Y-26624170D01*
X30622219Y-26613134D01*
X30604976Y-26600346D01*
X30589070Y-26585930D01*
X30574654Y-26570024D01*
X30561866Y-26552781D01*
X30550830Y-26534368D01*
X30541651Y-26514962D01*
X30534419Y-26494750D01*
X30529203Y-26473926D01*
X30526053Y-26452691D01*
X30525000Y-26431250D01*
X30525000Y-25993750D01*
X30526053Y-25972309D01*
X30529203Y-25951074D01*
X30534419Y-25930250D01*
X30541651Y-25910038D01*
X30550830Y-25890632D01*
X30561866Y-25872219D01*
X30574654Y-25854976D01*
X30589070Y-25839070D01*
X30604976Y-25824654D01*
X30622219Y-25811866D01*
X30640632Y-25800830D01*
X30660038Y-25791651D01*
X30680250Y-25784419D01*
X30701074Y-25779203D01*
X30722309Y-25776053D01*
X30743750Y-25775000D01*
X31256250Y-25775000D01*
X31277691Y-25776053D01*
X31277691Y-25776053D01*
G37*
D12*
G04 #@! TD*
G04 #@! TO.P,R4,1*
G04 #@! TO.N,S1*
X31000000Y-26212500D03*
D11*
G04 #@! TO.N,GND*
G04 #@! TO.C,R4*
G36*
X31277691Y-27351053D02*
X31298926Y-27354203D01*
X31319750Y-27359419D01*
X31339962Y-27366651D01*
X31359368Y-27375830D01*
X31377781Y-27386866D01*
X31395024Y-27399654D01*
X31410930Y-27414070D01*
X31425346Y-27429976D01*
X31438134Y-27447219D01*
X31449170Y-27465632D01*
X31458349Y-27485038D01*
X31465581Y-27505250D01*
X31470797Y-27526074D01*
X31473947Y-27547309D01*
X31475000Y-27568750D01*
X31475000Y-28006250D01*
X31473947Y-28027691D01*
X31470797Y-28048926D01*
X31465581Y-28069750D01*
X31458349Y-28089962D01*
X31449170Y-28109368D01*
X31438134Y-28127781D01*
X31425346Y-28145024D01*
X31410930Y-28160930D01*
X31395024Y-28175346D01*
X31377781Y-28188134D01*
X31359368Y-28199170D01*
X31339962Y-28208349D01*
X31319750Y-28215581D01*
X31298926Y-28220797D01*
X31277691Y-28223947D01*
X31256250Y-28225000D01*
X30743750Y-28225000D01*
X30722309Y-28223947D01*
X30701074Y-28220797D01*
X30680250Y-28215581D01*
X30660038Y-28208349D01*
X30640632Y-28199170D01*
X30622219Y-28188134D01*
X30604976Y-28175346D01*
X30589070Y-28160930D01*
X30574654Y-28145024D01*
X30561866Y-28127781D01*
X30550830Y-28109368D01*
X30541651Y-28089962D01*
X30534419Y-28069750D01*
X30529203Y-28048926D01*
X30526053Y-28027691D01*
X30525000Y-28006250D01*
X30525000Y-27568750D01*
X30526053Y-27547309D01*
X30529203Y-27526074D01*
X30534419Y-27505250D01*
X30541651Y-27485038D01*
X30550830Y-27465632D01*
X30561866Y-27447219D01*
X30574654Y-27429976D01*
X30589070Y-27414070D01*
X30604976Y-27399654D01*
X30622219Y-27386866D01*
X30640632Y-27375830D01*
X30660038Y-27366651D01*
X30680250Y-27359419D01*
X30701074Y-27354203D01*
X30722309Y-27351053D01*
X30743750Y-27350000D01*
X31256250Y-27350000D01*
X31277691Y-27351053D01*
X31277691Y-27351053D01*
G37*
D12*
G04 #@! TD*
G04 #@! TO.P,R4,2*
G04 #@! TO.N,GND*
X31000000Y-27787500D03*
D11*
G04 #@! TO.N,PD_out*
G04 #@! TO.C,R6*
G36*
X5277691Y-22851053D02*
X5298926Y-22854203D01*
X5319750Y-22859419D01*
X5339962Y-22866651D01*
X5359368Y-22875830D01*
X5377781Y-22886866D01*
X5395024Y-22899654D01*
X5410930Y-22914070D01*
X5425346Y-22929976D01*
X5438134Y-22947219D01*
X5449170Y-22965632D01*
X5458349Y-22985038D01*
X5465581Y-23005250D01*
X5470797Y-23026074D01*
X5473947Y-23047309D01*
X5475000Y-23068750D01*
X5475000Y-23506250D01*
X5473947Y-23527691D01*
X5470797Y-23548926D01*
X5465581Y-23569750D01*
X5458349Y-23589962D01*
X5449170Y-23609368D01*
X5438134Y-23627781D01*
X5425346Y-23645024D01*
X5410930Y-23660930D01*
X5395024Y-23675346D01*
X5377781Y-23688134D01*
X5359368Y-23699170D01*
X5339962Y-23708349D01*
X5319750Y-23715581D01*
X5298926Y-23720797D01*
X5277691Y-23723947D01*
X5256250Y-23725000D01*
X4743750Y-23725000D01*
X4722309Y-23723947D01*
X4701074Y-23720797D01*
X4680250Y-23715581D01*
X4660038Y-23708349D01*
X4640632Y-23699170D01*
X4622219Y-23688134D01*
X4604976Y-23675346D01*
X4589070Y-23660930D01*
X4574654Y-23645024D01*
X4561866Y-23627781D01*
X4550830Y-23609368D01*
X4541651Y-23589962D01*
X4534419Y-23569750D01*
X4529203Y-23548926D01*
X4526053Y-23527691D01*
X4525000Y-23506250D01*
X4525000Y-23068750D01*
X4526053Y-23047309D01*
X4529203Y-23026074D01*
X4534419Y-23005250D01*
X4541651Y-22985038D01*
X4550830Y-22965632D01*
X4561866Y-22947219D01*
X4574654Y-22929976D01*
X4589070Y-22914070D01*
X4604976Y-22899654D01*
X4622219Y-22886866D01*
X4640632Y-22875830D01*
X4660038Y-22866651D01*
X4680250Y-22859419D01*
X4701074Y-22854203D01*
X4722309Y-22851053D01*
X4743750Y-22850000D01*
X5256250Y-22850000D01*
X5277691Y-22851053D01*
X5277691Y-22851053D01*
G37*
D12*
G04 #@! TD*
G04 #@! TO.P,R6,1*
G04 #@! TO.N,PD_out*
X5000000Y-23287500D03*
D11*
G04 #@! TO.N,Net-(R1-Pad2)*
G04 #@! TO.C,R6*
G36*
X5277691Y-21276053D02*
X5298926Y-21279203D01*
X5319750Y-21284419D01*
X5339962Y-21291651D01*
X5359368Y-21300830D01*
X5377781Y-21311866D01*
X5395024Y-21324654D01*
X5410930Y-21339070D01*
X5425346Y-21354976D01*
X5438134Y-21372219D01*
X5449170Y-21390632D01*
X5458349Y-21410038D01*
X5465581Y-21430250D01*
X5470797Y-21451074D01*
X5473947Y-21472309D01*
X5475000Y-21493750D01*
X5475000Y-21931250D01*
X5473947Y-21952691D01*
X5470797Y-21973926D01*
X5465581Y-21994750D01*
X5458349Y-22014962D01*
X5449170Y-22034368D01*
X5438134Y-22052781D01*
X5425346Y-22070024D01*
X5410930Y-22085930D01*
X5395024Y-22100346D01*
X5377781Y-22113134D01*
X5359368Y-22124170D01*
X5339962Y-22133349D01*
X5319750Y-22140581D01*
X5298926Y-22145797D01*
X5277691Y-22148947D01*
X5256250Y-22150000D01*
X4743750Y-22150000D01*
X4722309Y-22148947D01*
X4701074Y-22145797D01*
X4680250Y-22140581D01*
X4660038Y-22133349D01*
X4640632Y-22124170D01*
X4622219Y-22113134D01*
X4604976Y-22100346D01*
X4589070Y-22085930D01*
X4574654Y-22070024D01*
X4561866Y-22052781D01*
X4550830Y-22034368D01*
X4541651Y-22014962D01*
X4534419Y-21994750D01*
X4529203Y-21973926D01*
X4526053Y-21952691D01*
X4525000Y-21931250D01*
X4525000Y-21493750D01*
X4526053Y-21472309D01*
X4529203Y-21451074D01*
X4534419Y-21430250D01*
X4541651Y-21410038D01*
X4550830Y-21390632D01*
X4561866Y-21372219D01*
X4574654Y-21354976D01*
X4589070Y-21339070D01*
X4604976Y-21324654D01*
X4622219Y-21311866D01*
X4640632Y-21300830D01*
X4660038Y-21291651D01*
X4680250Y-21284419D01*
X4701074Y-21279203D01*
X4722309Y-21276053D01*
X4743750Y-21275000D01*
X5256250Y-21275000D01*
X5277691Y-21276053D01*
X5277691Y-21276053D01*
G37*
D12*
G04 #@! TD*
G04 #@! TO.P,R6,2*
G04 #@! TO.N,Net-(R1-Pad2)*
X5000000Y-21712500D03*
D11*
G04 #@! TO.N,GND*
G04 #@! TO.C,R7*
G36*
X1952691Y-15526053D02*
X1973926Y-15529203D01*
X1994750Y-15534419D01*
X2014962Y-15541651D01*
X2034368Y-15550830D01*
X2052781Y-15561866D01*
X2070024Y-15574654D01*
X2085930Y-15589070D01*
X2100346Y-15604976D01*
X2113134Y-15622219D01*
X2124170Y-15640632D01*
X2133349Y-15660038D01*
X2140581Y-15680250D01*
X2145797Y-15701074D01*
X2148947Y-15722309D01*
X2150000Y-15743750D01*
X2150000Y-16256250D01*
X2148947Y-16277691D01*
X2145797Y-16298926D01*
X2140581Y-16319750D01*
X2133349Y-16339962D01*
X2124170Y-16359368D01*
X2113134Y-16377781D01*
X2100346Y-16395024D01*
X2085930Y-16410930D01*
X2070024Y-16425346D01*
X2052781Y-16438134D01*
X2034368Y-16449170D01*
X2014962Y-16458349D01*
X1994750Y-16465581D01*
X1973926Y-16470797D01*
X1952691Y-16473947D01*
X1931250Y-16475000D01*
X1493750Y-16475000D01*
X1472309Y-16473947D01*
X1451074Y-16470797D01*
X1430250Y-16465581D01*
X1410038Y-16458349D01*
X1390632Y-16449170D01*
X1372219Y-16438134D01*
X1354976Y-16425346D01*
X1339070Y-16410930D01*
X1324654Y-16395024D01*
X1311866Y-16377781D01*
X1300830Y-16359368D01*
X1291651Y-16339962D01*
X1284419Y-16319750D01*
X1279203Y-16298926D01*
X1276053Y-16277691D01*
X1275000Y-16256250D01*
X1275000Y-15743750D01*
X1276053Y-15722309D01*
X1279203Y-15701074D01*
X1284419Y-15680250D01*
X1291651Y-15660038D01*
X1300830Y-15640632D01*
X1311866Y-15622219D01*
X1324654Y-15604976D01*
X1339070Y-15589070D01*
X1354976Y-15574654D01*
X1372219Y-15561866D01*
X1390632Y-15550830D01*
X1410038Y-15541651D01*
X1430250Y-15534419D01*
X1451074Y-15529203D01*
X1472309Y-15526053D01*
X1493750Y-15525000D01*
X1931250Y-15525000D01*
X1952691Y-15526053D01*
X1952691Y-15526053D01*
G37*
D12*
G04 #@! TD*
G04 #@! TO.P,R7,2*
G04 #@! TO.N,GND*
X1712500Y-16000000D03*
D11*
G04 #@! TO.N,Net-(D11-Pad1)*
G04 #@! TO.C,R7*
G36*
X3527691Y-15526053D02*
X3548926Y-15529203D01*
X3569750Y-15534419D01*
X3589962Y-15541651D01*
X3609368Y-15550830D01*
X3627781Y-15561866D01*
X3645024Y-15574654D01*
X3660930Y-15589070D01*
X3675346Y-15604976D01*
X3688134Y-15622219D01*
X3699170Y-15640632D01*
X3708349Y-15660038D01*
X3715581Y-15680250D01*
X3720797Y-15701074D01*
X3723947Y-15722309D01*
X3725000Y-15743750D01*
X3725000Y-16256250D01*
X3723947Y-16277691D01*
X3720797Y-16298926D01*
X3715581Y-16319750D01*
X3708349Y-16339962D01*
X3699170Y-16359368D01*
X3688134Y-16377781D01*
X3675346Y-16395024D01*
X3660930Y-16410930D01*
X3645024Y-16425346D01*
X3627781Y-16438134D01*
X3609368Y-16449170D01*
X3589962Y-16458349D01*
X3569750Y-16465581D01*
X3548926Y-16470797D01*
X3527691Y-16473947D01*
X3506250Y-16475000D01*
X3068750Y-16475000D01*
X3047309Y-16473947D01*
X3026074Y-16470797D01*
X3005250Y-16465581D01*
X2985038Y-16458349D01*
X2965632Y-16449170D01*
X2947219Y-16438134D01*
X2929976Y-16425346D01*
X2914070Y-16410930D01*
X2899654Y-16395024D01*
X2886866Y-16377781D01*
X2875830Y-16359368D01*
X2866651Y-16339962D01*
X2859419Y-16319750D01*
X2854203Y-16298926D01*
X2851053Y-16277691D01*
X2850000Y-16256250D01*
X2850000Y-15743750D01*
X2851053Y-15722309D01*
X2854203Y-15701074D01*
X2859419Y-15680250D01*
X2866651Y-15660038D01*
X2875830Y-15640632D01*
X2886866Y-15622219D01*
X2899654Y-15604976D01*
X2914070Y-15589070D01*
X2929976Y-15574654D01*
X2947219Y-15561866D01*
X2965632Y-15550830D01*
X2985038Y-15541651D01*
X3005250Y-15534419D01*
X3026074Y-15529203D01*
X3047309Y-15526053D01*
X3068750Y-15525000D01*
X3506250Y-15525000D01*
X3527691Y-15526053D01*
X3527691Y-15526053D01*
G37*
D12*
G04 #@! TD*
G04 #@! TO.P,R7,1*
G04 #@! TO.N,Net-(D11-Pad1)*
X3287500Y-16000000D03*
D11*
G04 #@! TO.N,COM*
G04 #@! TO.C,R1*
G36*
X14634390Y-21353462D02*
X14655625Y-21356612D01*
X14676449Y-21361828D01*
X14696661Y-21369060D01*
X14716067Y-21378239D01*
X14734480Y-21389275D01*
X14751723Y-21402063D01*
X14767629Y-21416479D01*
X14782045Y-21432385D01*
X14794833Y-21449628D01*
X14805869Y-21468041D01*
X14815048Y-21487447D01*
X14822280Y-21507659D01*
X14827496Y-21528483D01*
X14830646Y-21549718D01*
X14831699Y-21571159D01*
X14831699Y-22008659D01*
X14830646Y-22030100D01*
X14827496Y-22051335D01*
X14822280Y-22072159D01*
X14815048Y-22092371D01*
X14805869Y-22111777D01*
X14794833Y-22130190D01*
X14782045Y-22147433D01*
X14767629Y-22163339D01*
X14751723Y-22177755D01*
X14734480Y-22190543D01*
X14716067Y-22201579D01*
X14696661Y-22210758D01*
X14676449Y-22217990D01*
X14655625Y-22223206D01*
X14634390Y-22226356D01*
X14612949Y-22227409D01*
X14100449Y-22227409D01*
X14079008Y-22226356D01*
X14057773Y-22223206D01*
X14036949Y-22217990D01*
X14016737Y-22210758D01*
X13997331Y-22201579D01*
X13978918Y-22190543D01*
X13961675Y-22177755D01*
X13945769Y-22163339D01*
X13931353Y-22147433D01*
X13918565Y-22130190D01*
X13907529Y-22111777D01*
X13898350Y-22092371D01*
X13891118Y-22072159D01*
X13885902Y-22051335D01*
X13882752Y-22030100D01*
X13881699Y-22008659D01*
X13881699Y-21571159D01*
X13882752Y-21549718D01*
X13885902Y-21528483D01*
X13891118Y-21507659D01*
X13898350Y-21487447D01*
X13907529Y-21468041D01*
X13918565Y-21449628D01*
X13931353Y-21432385D01*
X13945769Y-21416479D01*
X13961675Y-21402063D01*
X13978918Y-21389275D01*
X13997331Y-21378239D01*
X14016737Y-21369060D01*
X14036949Y-21361828D01*
X14057773Y-21356612D01*
X14079008Y-21353462D01*
X14100449Y-21352409D01*
X14612949Y-21352409D01*
X14634390Y-21353462D01*
X14634390Y-21353462D01*
G37*
D12*
G04 #@! TD*
G04 #@! TO.P,R1,1*
G04 #@! TO.N,COM*
X14356699Y-21789909D03*
D11*
G04 #@! TO.N,Net-(R1-Pad2)*
G04 #@! TO.C,R1*
G36*
X14634390Y-19778462D02*
X14655625Y-19781612D01*
X14676449Y-19786828D01*
X14696661Y-19794060D01*
X14716067Y-19803239D01*
X14734480Y-19814275D01*
X14751723Y-19827063D01*
X14767629Y-19841479D01*
X14782045Y-19857385D01*
X14794833Y-19874628D01*
X14805869Y-19893041D01*
X14815048Y-19912447D01*
X14822280Y-19932659D01*
X14827496Y-19953483D01*
X14830646Y-19974718D01*
X14831699Y-19996159D01*
X14831699Y-20433659D01*
X14830646Y-20455100D01*
X14827496Y-20476335D01*
X14822280Y-20497159D01*
X14815048Y-20517371D01*
X14805869Y-20536777D01*
X14794833Y-20555190D01*
X14782045Y-20572433D01*
X14767629Y-20588339D01*
X14751723Y-20602755D01*
X14734480Y-20615543D01*
X14716067Y-20626579D01*
X14696661Y-20635758D01*
X14676449Y-20642990D01*
X14655625Y-20648206D01*
X14634390Y-20651356D01*
X14612949Y-20652409D01*
X14100449Y-20652409D01*
X14079008Y-20651356D01*
X14057773Y-20648206D01*
X14036949Y-20642990D01*
X14016737Y-20635758D01*
X13997331Y-20626579D01*
X13978918Y-20615543D01*
X13961675Y-20602755D01*
X13945769Y-20588339D01*
X13931353Y-20572433D01*
X13918565Y-20555190D01*
X13907529Y-20536777D01*
X13898350Y-20517371D01*
X13891118Y-20497159D01*
X13885902Y-20476335D01*
X13882752Y-20455100D01*
X13881699Y-20433659D01*
X13881699Y-19996159D01*
X13882752Y-19974718D01*
X13885902Y-19953483D01*
X13891118Y-19932659D01*
X13898350Y-19912447D01*
X13907529Y-19893041D01*
X13918565Y-19874628D01*
X13931353Y-19857385D01*
X13945769Y-19841479D01*
X13961675Y-19827063D01*
X13978918Y-19814275D01*
X13997331Y-19803239D01*
X14016737Y-19794060D01*
X14036949Y-19786828D01*
X14057773Y-19781612D01*
X14079008Y-19778462D01*
X14100449Y-19777409D01*
X14612949Y-19777409D01*
X14634390Y-19778462D01*
X14634390Y-19778462D01*
G37*
D12*
G04 #@! TD*
G04 #@! TO.P,R1,2*
G04 #@! TO.N,Net-(R1-Pad2)*
X14356699Y-20214909D03*
D15*
G04 #@! TO.P,D4,2*
G04 #@! TO.N,GND*
X36014000Y-2765000D03*
G04 #@! TO.P,D4,1*
G04 #@! TO.N,Net-(D4-Pad1)*
X36014000Y-7215000D03*
G04 #@! TD*
G04 #@! TO.P,D1,1*
G04 #@! TO.N,Net-(D1-Pad1)*
X18014000Y-7215000D03*
G04 #@! TO.P,D1,2*
G04 #@! TO.N,GND*
X18014000Y-2765000D03*
G04 #@! TD*
D16*
G04 #@! TO.P,J1,1*
G04 #@! TO.N,+5V*
X6000000Y-26500000D03*
D17*
G04 #@! TO.P,J1,2*
G04 #@! TO.N,GND*
X6000000Y-27770000D03*
G04 #@! TO.P,J1,3*
G04 #@! TO.N,PD_out*
X4730000Y-26500000D03*
G04 #@! TO.P,J1,4*
G04 #@! TO.N,GND*
X4730000Y-27770000D03*
G04 #@! TO.P,J1,5*
G04 #@! TO.N,S3*
X3460000Y-26500000D03*
G04 #@! TO.P,J1,6*
G04 #@! TO.N,S2*
X3460000Y-27770000D03*
G04 #@! TO.P,J1,7*
G04 #@! TO.N,S1*
X2190000Y-26500000D03*
G04 #@! TO.P,J1,8*
G04 #@! TO.N,S0*
X2190000Y-27770000D03*
G04 #@! TD*
D18*
G04 #@! TO.P,U2,1*
G04 #@! TO.N,GND*
X10406699Y-21814909D03*
D19*
G04 #@! TO.P,U2,2*
X11356699Y-21814909D03*
D18*
G04 #@! TO.P,U2,3*
G04 #@! TO.N,COM*
X12306699Y-21814909D03*
G04 #@! TO.P,U2,4*
G04 #@! TO.N,Net-(R1-Pad2)*
X12306699Y-19614909D03*
G04 #@! TO.P,U2,5*
G04 #@! TO.N,+5V*
X10406699Y-19614909D03*
G04 #@! TD*
D15*
G04 #@! TO.P,D10,2*
G04 #@! TO.N,GND*
X72000000Y-2775000D03*
G04 #@! TO.P,D10,1*
G04 #@! TO.N,Net-(D10-Pad1)*
X72000000Y-7225000D03*
G04 #@! TD*
G04 #@! TO.P,D9,1*
G04 #@! TO.N,Net-(D9-Pad1)*
X66000000Y-7225000D03*
G04 #@! TO.P,D9,2*
G04 #@! TO.N,GND*
X66000000Y-2775000D03*
G04 #@! TD*
G04 #@! TO.P,D8,2*
G04 #@! TO.N,GND*
X60014000Y-2765000D03*
G04 #@! TO.P,D8,1*
G04 #@! TO.N,Net-(D8-Pad1)*
X60014000Y-7215000D03*
G04 #@! TD*
G04 #@! TO.P,D7,1*
G04 #@! TO.N,Net-(D7-Pad1)*
X54014000Y-7215000D03*
G04 #@! TO.P,D7,2*
G04 #@! TO.N,GND*
X54014000Y-2765000D03*
G04 #@! TD*
G04 #@! TO.P,D6,2*
G04 #@! TO.N,GND*
X48014000Y-2765000D03*
G04 #@! TO.P,D6,1*
G04 #@! TO.N,Net-(D6-Pad1)*
X48014000Y-7215000D03*
G04 #@! TD*
G04 #@! TO.P,D5,1*
G04 #@! TO.N,Net-(D5-Pad1)*
X42014000Y-7215000D03*
G04 #@! TO.P,D5,2*
G04 #@! TO.N,GND*
X42014000Y-2765000D03*
G04 #@! TD*
G04 #@! TO.P,D3,1*
G04 #@! TO.N,Net-(D3-Pad1)*
X30014000Y-7215000D03*
G04 #@! TO.P,D3,2*
G04 #@! TO.N,GND*
X30014000Y-2765000D03*
G04 #@! TD*
G04 #@! TO.P,D2,2*
G04 #@! TO.N,GND*
X24014000Y-2765000D03*
G04 #@! TO.P,D2,1*
G04 #@! TO.N,Net-(D2-Pad1)*
X24014000Y-7215000D03*
G04 #@! TD*
D20*
G04 #@! TO.N,GND*
X18000000Y-1500000D03*
X24000000Y-1500000D03*
X30000000Y-1500000D03*
X36000000Y-1500000D03*
X42000000Y-1500000D03*
X48000000Y-1500000D03*
X54000000Y-1500000D03*
X60000000Y-1500000D03*
X66000000Y-1500000D03*
X72000000Y-1500000D03*
X11500000Y-23214909D03*
X10500000Y-23214909D03*
X1500000Y-17500000D03*
X2500000Y-19500000D03*
X3500000Y-19500000D03*
X14736025Y-10421561D03*
X29000000Y-29000000D03*
X31000000Y-29000000D03*
X9500000Y-23500000D03*
X33000000Y-24000000D03*
X30927970Y-9190942D03*
X28927970Y-9190942D03*
X25000000Y-12500000D03*
X24000000Y-12500000D03*
X22500000Y-12500000D03*
X21500000Y-12500000D03*
G04 #@! TO.N,Net-(D1-Pad1)*
X20500000Y-10000000D03*
X19000000Y-9000000D03*
G04 #@! TO.N,S2*
X28000000Y-12000000D03*
G04 #@! TO.N,S0*
X28000000Y-26000000D03*
G04 #@! TO.N,S1*
X32000000Y-26000000D03*
G04 #@! TO.N,S3*
X7000000Y-17500000D03*
X20500000Y-17500000D03*
X32000000Y-12000000D03*
G04 #@! TD*
D21*
G04 #@! TO.N,PD_out*
X3000000Y-23400000D02*
X4887500Y-23400000D01*
X5000000Y-26230000D02*
X4730000Y-26500000D01*
X5000000Y-23287500D02*
X5000000Y-26230000D01*
G04 #@! TO.N,+5V*
X10206699Y-19814909D02*
X10406699Y-19614909D01*
X8356699Y-19814909D02*
X10206699Y-19814909D01*
G04 #@! TO.N,GND*
X18014000Y-1514000D02*
X18000000Y-1500000D01*
X18014000Y-2765000D02*
X18014000Y-1514000D01*
X24014000Y-1514000D02*
X24000000Y-1500000D01*
X24014000Y-2765000D02*
X24014000Y-1514000D01*
X30014000Y-1514000D02*
X30000000Y-1500000D01*
X30014000Y-2765000D02*
X30014000Y-1514000D01*
X36014000Y-1514000D02*
X36000000Y-1500000D01*
X36014000Y-2765000D02*
X36014000Y-1514000D01*
X42014000Y-1514000D02*
X42000000Y-1500000D01*
X42014000Y-2765000D02*
X42014000Y-1514000D01*
X48014000Y-1514000D02*
X48000000Y-1500000D01*
X48014000Y-2765000D02*
X48014000Y-1514000D01*
X54014000Y-1514000D02*
X54000000Y-1500000D01*
X54014000Y-2765000D02*
X54014000Y-1514000D01*
X60014000Y-1514000D02*
X60000000Y-1500000D01*
X60014000Y-2765000D02*
X60014000Y-1514000D01*
X66000000Y-2765000D02*
X66000000Y-1500000D01*
X71990000Y-2765000D02*
X72000000Y-2775000D01*
X72000000Y-2775000D02*
X72000000Y-1500000D01*
X10406699Y-23164909D02*
X10356699Y-23214909D01*
X1500000Y-16212500D02*
X1712500Y-16000000D01*
X1500000Y-17500000D02*
X1500000Y-16212500D01*
X2500000Y-20100000D02*
X3000000Y-20600000D01*
X2500000Y-19500000D02*
X2500000Y-20100000D01*
X3500000Y-20100000D02*
X3000000Y-20600000D01*
X3500000Y-19500000D02*
X3500000Y-20100000D01*
X14736025Y-11521561D02*
X14736025Y-10421561D01*
X29000000Y-29000000D02*
X29000000Y-27787500D01*
X31000000Y-29000000D02*
X31000000Y-27787500D01*
X32700000Y-23700000D02*
X33000000Y-24000000D01*
X31585000Y-23700000D02*
X32700000Y-23700000D01*
X8395000Y-27770000D02*
X8500000Y-27875000D01*
X6000000Y-27770000D02*
X8395000Y-27770000D01*
X29111471Y-10304024D02*
X29111471Y-9374443D01*
X30927970Y-10304024D02*
X30927970Y-9190942D01*
X29111471Y-9374443D02*
X28927970Y-9190942D01*
X28945000Y-14300000D02*
X27675000Y-14300000D01*
X27675000Y-14300000D02*
X26405000Y-14300000D01*
X21325000Y-12675000D02*
X21500000Y-12500000D01*
X21325000Y-14300000D02*
X21325000Y-12675000D01*
X22595000Y-12595000D02*
X22500000Y-12500000D01*
X22595000Y-14300000D02*
X22595000Y-12595000D01*
X23865000Y-12635000D02*
X24000000Y-12500000D01*
X23865000Y-14300000D02*
X23865000Y-12635000D01*
X25135000Y-12635000D02*
X25000000Y-12500000D01*
X25135000Y-14300000D02*
X25135000Y-12635000D01*
X26405000Y-14300000D02*
X25135000Y-14300000D01*
X10500000Y-21908210D02*
X10406699Y-21814909D01*
X10500000Y-23214909D02*
X10500000Y-21908210D01*
X11500000Y-21958210D02*
X11356699Y-21814909D01*
X11500000Y-23214909D02*
X11500000Y-21958210D01*
X8614909Y-22614909D02*
X9500000Y-23500000D01*
X8356699Y-22614909D02*
X8614909Y-22614909D01*
G04 #@! TO.N,Net-(D2-Pad1)*
X18785000Y-10544000D02*
X22114000Y-7215000D01*
X22114000Y-7215000D02*
X24014000Y-7215000D01*
X18785000Y-14300000D02*
X18785000Y-10544000D01*
G04 #@! TO.N,Net-(D3-Pad1)*
X32731180Y-8032180D02*
X31914000Y-7215000D01*
X31914000Y-7215000D02*
X30014000Y-7215000D01*
X32731180Y-14944582D02*
X32731180Y-8032180D01*
X32047561Y-15628201D02*
X32731180Y-14944582D01*
X26156799Y-15628201D02*
X32047561Y-15628201D01*
X18785000Y-23000000D02*
X26156799Y-15628201D01*
X18785000Y-23700000D02*
X18785000Y-23000000D01*
G04 #@! TO.N,Net-(D4-Pad1)*
X36014000Y-12302697D02*
X36014000Y-7840000D01*
X32235286Y-16081411D02*
X36014000Y-12302697D01*
X26973589Y-16081411D02*
X32235286Y-16081411D01*
X20055000Y-23000000D02*
X26973589Y-16081411D01*
X36014000Y-7840000D02*
X36014000Y-7215000D01*
X20055000Y-23700000D02*
X20055000Y-23000000D01*
G04 #@! TO.N,Net-(D5-Pad1)*
X33319379Y-16534621D02*
X42014000Y-7840000D01*
X42014000Y-7840000D02*
X42014000Y-7215000D01*
X27790379Y-16534621D02*
X33319379Y-16534621D01*
X21325000Y-23000000D02*
X27790379Y-16534621D01*
X21325000Y-23700000D02*
X21325000Y-23000000D01*
G04 #@! TO.N,Net-(D6-Pad1)*
X35716169Y-16987831D02*
X45489000Y-7215000D01*
X28607169Y-16987831D02*
X35716169Y-16987831D01*
X22595000Y-23000000D02*
X28607169Y-16987831D01*
X45489000Y-7215000D02*
X48014000Y-7215000D01*
X22595000Y-23700000D02*
X22595000Y-23000000D01*
G04 #@! TO.N,Net-(D7-Pad1)*
X41262959Y-17441041D02*
X51489000Y-7215000D01*
X29423959Y-17441041D02*
X41262959Y-17441041D01*
X51489000Y-7215000D02*
X54014000Y-7215000D01*
X23865000Y-23000000D02*
X29423959Y-17441041D01*
X23865000Y-23700000D02*
X23865000Y-23000000D01*
G04 #@! TO.N,Net-(D8-Pad1)*
X46809749Y-17894251D02*
X57489000Y-7215000D01*
X57489000Y-7215000D02*
X60014000Y-7215000D01*
X25135000Y-23000000D02*
X30240749Y-17894251D01*
X30240749Y-17894251D02*
X46809749Y-17894251D01*
X25135000Y-23700000D02*
X25135000Y-23000000D01*
G04 #@! TO.N,Net-(D9-Pad1)*
X26405000Y-23000000D02*
X30905000Y-18500000D01*
X26405000Y-23700000D02*
X26405000Y-23000000D01*
X63475000Y-7225000D02*
X66000000Y-7225000D01*
X52200000Y-18500000D02*
X63475000Y-7225000D01*
X30905000Y-18500000D02*
X52200000Y-18500000D01*
G04 #@! TO.N,Net-(D10-Pad1)*
X69475000Y-7225000D02*
X72000000Y-7225000D01*
X57746790Y-18953210D02*
X69475000Y-7225000D01*
X31721790Y-18953210D02*
X57746790Y-18953210D01*
X27675000Y-23000000D02*
X31721790Y-18953210D01*
X27675000Y-23700000D02*
X27675000Y-23000000D01*
G04 #@! TO.N,Net-(D1-Pad1)*
X20055000Y-14300000D02*
X20055000Y-10445000D01*
X20055000Y-10445000D02*
X20500000Y-10000000D01*
X20500000Y-10000000D02*
X20500000Y-10000000D01*
X18014000Y-8014000D02*
X19000000Y-9000000D01*
X18014000Y-7215000D02*
X18014000Y-8014000D01*
G04 #@! TO.N,S2*
X30111471Y-14196471D02*
X30215000Y-14300000D01*
X28990495Y-12000000D02*
X29111471Y-11879024D01*
X28000000Y-12000000D02*
X28990495Y-12000000D01*
X30215000Y-13600000D02*
X30215000Y-14300000D01*
X29111471Y-12496471D02*
X30215000Y-13600000D01*
X29111471Y-11879024D02*
X29111471Y-12496471D01*
G04 #@! TO.N,Net-(D11-Pad1)*
X3287500Y-16000000D02*
X3287500Y-14000000D01*
G04 #@! TO.N,Net-(R1-Pad2)*
X12906699Y-20214909D02*
X12306699Y-19614909D01*
X14356699Y-20214909D02*
X12906699Y-20214909D01*
X12306699Y-19614909D02*
X12306699Y-19409909D01*
X11731699Y-19614909D02*
X12306699Y-19614909D01*
X10873498Y-18756708D02*
X11731699Y-19614909D01*
X5000000Y-20353892D02*
X6597184Y-18756708D01*
X5000000Y-21712500D02*
X5000000Y-20353892D01*
X6597184Y-18756708D02*
X10873498Y-18756708D01*
G04 #@! TO.N,S0*
X29000000Y-23745000D02*
X29045000Y-23700000D01*
X29000000Y-26212500D02*
X29000000Y-23745000D01*
X28787500Y-26000000D02*
X29000000Y-26212500D01*
X28000000Y-26000000D02*
X28787500Y-26000000D01*
G04 #@! TO.N,S1*
X30315000Y-25527500D02*
X30315000Y-23700000D01*
X31000000Y-26212500D02*
X30315000Y-25527500D01*
X31212500Y-26000000D02*
X31000000Y-26212500D01*
X32000000Y-26000000D02*
X31212500Y-26000000D01*
G04 #@! TO.N,COM*
X12331699Y-21789909D02*
X12306699Y-21814909D01*
X14356699Y-21789909D02*
X12331699Y-21789909D01*
X14356699Y-21789909D02*
X14704909Y-21789909D01*
X17515000Y-23000000D02*
X17515000Y-23700000D01*
X14356699Y-21789909D02*
X16304909Y-21789909D01*
X16304909Y-21789909D02*
X17515000Y-23000000D01*
G04 #@! TO.N,S3*
X7000000Y-17500000D02*
X20500000Y-17500000D01*
X32000000Y-13785000D02*
X31485000Y-14300000D01*
X32000000Y-12000000D02*
X32000000Y-13785000D01*
X31879024Y-11879024D02*
X32000000Y-12000000D01*
X30927970Y-11879024D02*
X31879024Y-11879024D01*
G04 #@! TD*
D22*
G04 #@! TO.N,+5V*
G36*
X13213585Y-11896561D02*
X13281899Y-12239996D01*
X13476439Y-12531147D01*
X13767590Y-12725687D01*
X14111025Y-12794001D01*
X15361025Y-12794001D01*
X15704460Y-12725687D01*
X15995611Y-12531147D01*
X16190151Y-12239996D01*
X16258465Y-11896561D01*
X16258465Y-11627000D01*
X17873000Y-11627000D01*
X17873000Y-12665000D01*
X17800750Y-12665000D01*
X17642000Y-12823750D01*
X17642000Y-14173000D01*
X17662000Y-14173000D01*
X17662000Y-14427000D01*
X17642000Y-14427000D01*
X17642000Y-15776250D01*
X17800750Y-15935000D01*
X17873000Y-15935000D01*
X17873000Y-16740000D01*
X7587039Y-16740000D01*
X7539548Y-16692509D01*
X7189464Y-16547500D01*
X6810536Y-16547500D01*
X6460452Y-16692509D01*
X6192509Y-16960452D01*
X6047500Y-17310536D01*
X6047500Y-17689464D01*
X6192509Y-18039548D01*
X6236576Y-18083615D01*
X6049255Y-18208779D01*
X6006855Y-18272235D01*
X5406090Y-18873000D01*
X4220039Y-18873000D01*
X4039548Y-18692509D01*
X3689464Y-18547500D01*
X3310536Y-18547500D01*
X3000000Y-18676128D01*
X2689464Y-18547500D01*
X2310536Y-18547500D01*
X1960452Y-18692509D01*
X1692509Y-18960452D01*
X1547500Y-19310536D01*
X1547500Y-19689464D01*
X1595998Y-19806549D01*
X1545874Y-19881565D01*
X1477560Y-20225000D01*
X1477560Y-20975000D01*
X1545874Y-21318435D01*
X1740414Y-21609586D01*
X1873000Y-21698177D01*
X1873000Y-22301823D01*
X1740414Y-22390414D01*
X1545874Y-22681565D01*
X1477560Y-23025000D01*
X1477560Y-23775000D01*
X1545874Y-24118435D01*
X1740414Y-24409586D01*
X2031565Y-24604126D01*
X2375000Y-24672440D01*
X3625000Y-24672440D01*
X3853441Y-24627000D01*
X4240000Y-24627000D01*
X4240001Y-25462355D01*
X4095000Y-25559241D01*
X3902855Y-25430854D01*
X3571783Y-25365000D01*
X3348217Y-25365000D01*
X3017145Y-25430854D01*
X2825000Y-25559241D01*
X2632855Y-25430854D01*
X2301783Y-25365000D01*
X2078217Y-25365000D01*
X1747145Y-25430854D01*
X1371711Y-25681711D01*
X1120854Y-26057145D01*
X1032765Y-26500000D01*
X1120854Y-26942855D01*
X1249241Y-27135000D01*
X1120854Y-27327145D01*
X1032765Y-27770000D01*
X1120854Y-28212855D01*
X1371711Y-28588289D01*
X1747145Y-28839146D01*
X2078217Y-28905000D01*
X2301783Y-28905000D01*
X2632855Y-28839146D01*
X2825000Y-28710759D01*
X3017145Y-28839146D01*
X3348217Y-28905000D01*
X3571783Y-28905000D01*
X3902855Y-28839146D01*
X4095000Y-28710759D01*
X4287145Y-28839146D01*
X4618217Y-28905000D01*
X4841783Y-28905000D01*
X5172855Y-28839146D01*
X5365000Y-28710759D01*
X5557145Y-28839146D01*
X5888217Y-28905000D01*
X6111783Y-28905000D01*
X6442855Y-28839146D01*
X6818289Y-28588289D01*
X6857236Y-28530000D01*
X7267308Y-28530000D01*
X7413584Y-28748916D01*
X7702706Y-28942102D01*
X8043750Y-29009940D01*
X8956250Y-29009940D01*
X9297294Y-28942102D01*
X9586416Y-28748916D01*
X9779602Y-28459794D01*
X9847440Y-28118750D01*
X9847440Y-27631250D01*
X9779602Y-27290206D01*
X9586416Y-27001084D01*
X9585233Y-27000293D01*
X9738327Y-26847198D01*
X9835000Y-26613809D01*
X9835000Y-26285750D01*
X9676250Y-26127000D01*
X8627000Y-26127000D01*
X8627000Y-26147000D01*
X8373000Y-26147000D01*
X8373000Y-26127000D01*
X7323750Y-26127000D01*
X7165000Y-26285750D01*
X7165000Y-26613809D01*
X7261673Y-26847198D01*
X7414767Y-27000293D01*
X7413584Y-27001084D01*
X7407626Y-27010000D01*
X7135000Y-27010000D01*
X7135000Y-26785750D01*
X6976250Y-26627000D01*
X6127000Y-26627000D01*
X6127000Y-26638027D01*
X6111783Y-26635000D01*
X5888217Y-26635000D01*
X5873000Y-26638027D01*
X5873000Y-26627000D01*
X5861973Y-26627000D01*
X5887235Y-26500000D01*
X5861973Y-26373000D01*
X5873000Y-26373000D01*
X5873000Y-25523750D01*
X6127000Y-25523750D01*
X6127000Y-26373000D01*
X6976250Y-26373000D01*
X7135000Y-26214250D01*
X7135000Y-25873691D01*
X7038327Y-25640302D01*
X6859699Y-25461673D01*
X6677470Y-25386191D01*
X7165000Y-25386191D01*
X7165000Y-25714250D01*
X7323750Y-25873000D01*
X8373000Y-25873000D01*
X8373000Y-25036250D01*
X8627000Y-25036250D01*
X8627000Y-25873000D01*
X9676250Y-25873000D01*
X9835000Y-25714250D01*
X9835000Y-25386191D01*
X9738327Y-25152802D01*
X9559699Y-24974173D01*
X9326310Y-24877500D01*
X8785750Y-24877500D01*
X8627000Y-25036250D01*
X8373000Y-25036250D01*
X8214250Y-24877500D01*
X7673690Y-24877500D01*
X7440301Y-24974173D01*
X7261673Y-25152802D01*
X7165000Y-25386191D01*
X6677470Y-25386191D01*
X6626310Y-25365000D01*
X6285750Y-25365000D01*
X6127000Y-25523750D01*
X5873000Y-25523750D01*
X5760000Y-25410750D01*
X5760000Y-24191396D01*
X5868739Y-24118739D01*
X6056505Y-23837727D01*
X6122440Y-23506250D01*
X6122440Y-23068750D01*
X6056505Y-22737273D01*
X5897964Y-22500000D01*
X6056505Y-22262727D01*
X6122440Y-21931250D01*
X6122440Y-21493750D01*
X6056505Y-21162273D01*
X5868739Y-20881261D01*
X5760000Y-20808604D01*
X5760000Y-20668693D01*
X6328034Y-20100659D01*
X6846699Y-20100659D01*
X6846699Y-20566218D01*
X6943372Y-20799607D01*
X7122000Y-20978236D01*
X7355389Y-21074909D01*
X8070949Y-21074909D01*
X8229699Y-20916159D01*
X8229699Y-19941909D01*
X7005449Y-19941909D01*
X6846699Y-20100659D01*
X6328034Y-20100659D01*
X6873117Y-19555577D01*
X7005449Y-19687909D01*
X8229699Y-19687909D01*
X8229699Y-19667909D01*
X8483699Y-19667909D01*
X8483699Y-19687909D01*
X8503699Y-19687909D01*
X8503699Y-19941909D01*
X8483699Y-19941909D01*
X8483699Y-20916159D01*
X8642449Y-21074909D01*
X9358009Y-21074909D01*
X9496691Y-21017465D01*
X9483542Y-21037144D01*
X9434259Y-21284909D01*
X9434259Y-21483698D01*
X9325134Y-21410783D01*
X8981699Y-21342469D01*
X7731699Y-21342469D01*
X7388264Y-21410783D01*
X7097113Y-21605323D01*
X6902573Y-21896474D01*
X6834259Y-22239909D01*
X6834259Y-22989909D01*
X6902573Y-23333344D01*
X7097113Y-23624495D01*
X7388264Y-23819035D01*
X7731699Y-23887349D01*
X8629466Y-23887349D01*
X8692509Y-24039548D01*
X8960452Y-24307491D01*
X9310536Y-24452500D01*
X9689464Y-24452500D01*
X10039548Y-24307491D01*
X10217971Y-24129068D01*
X10310536Y-24167409D01*
X10689464Y-24167409D01*
X10787020Y-24127000D01*
X11212980Y-24127000D01*
X11310536Y-24167409D01*
X11689464Y-24167409D01*
X11787020Y-24127000D01*
X13947394Y-24127000D01*
X14373000Y-24552606D01*
X14373000Y-29290000D01*
X710000Y-29290000D01*
X710000Y-18057039D01*
X960452Y-18307491D01*
X1310536Y-18452500D01*
X1689464Y-18452500D01*
X2039548Y-18307491D01*
X2307491Y-18039548D01*
X2452500Y-17689464D01*
X2452500Y-17310536D01*
X2328949Y-17012257D01*
X2500000Y-16897964D01*
X2737273Y-17056505D01*
X3068750Y-17122440D01*
X3506250Y-17122440D01*
X3837727Y-17056505D01*
X4118739Y-16868739D01*
X4306505Y-16587727D01*
X4372440Y-16256250D01*
X4372440Y-15743750D01*
X4306505Y-15412273D01*
X4118739Y-15131261D01*
X4047500Y-15083661D01*
X4047500Y-14916339D01*
X4118739Y-14868739D01*
X4293419Y-14607311D01*
X13226025Y-14607311D01*
X13226025Y-15072870D01*
X13322698Y-15306259D01*
X13501326Y-15484888D01*
X13734715Y-15581561D01*
X14450275Y-15581561D01*
X14609025Y-15422811D01*
X14609025Y-14448561D01*
X14863025Y-14448561D01*
X14863025Y-15422811D01*
X15021775Y-15581561D01*
X15737335Y-15581561D01*
X15970724Y-15484888D01*
X16149352Y-15306259D01*
X16246025Y-15072870D01*
X16246025Y-14607311D01*
X16224464Y-14585750D01*
X16580000Y-14585750D01*
X16580000Y-15426309D01*
X16676673Y-15659698D01*
X16855301Y-15838327D01*
X17088690Y-15935000D01*
X17229250Y-15935000D01*
X17388000Y-15776250D01*
X17388000Y-14427000D01*
X16738750Y-14427000D01*
X16580000Y-14585750D01*
X16224464Y-14585750D01*
X16087275Y-14448561D01*
X14863025Y-14448561D01*
X14609025Y-14448561D01*
X13384775Y-14448561D01*
X13226025Y-14607311D01*
X4293419Y-14607311D01*
X4306505Y-14587727D01*
X4372440Y-14256250D01*
X4372440Y-13743750D01*
X4337930Y-13570252D01*
X13226025Y-13570252D01*
X13226025Y-14035811D01*
X13384775Y-14194561D01*
X14609025Y-14194561D01*
X14609025Y-13220311D01*
X14863025Y-13220311D01*
X14863025Y-14194561D01*
X16087275Y-14194561D01*
X16246025Y-14035811D01*
X16246025Y-13570252D01*
X16149352Y-13336863D01*
X15986181Y-13173691D01*
X16580000Y-13173691D01*
X16580000Y-14014250D01*
X16738750Y-14173000D01*
X17388000Y-14173000D01*
X17388000Y-12823750D01*
X17229250Y-12665000D01*
X17088690Y-12665000D01*
X16855301Y-12761673D01*
X16676673Y-12940302D01*
X16580000Y-13173691D01*
X15986181Y-13173691D01*
X15970724Y-13158234D01*
X15737335Y-13061561D01*
X15021775Y-13061561D01*
X14863025Y-13220311D01*
X14609025Y-13220311D01*
X14450275Y-13061561D01*
X13734715Y-13061561D01*
X13501326Y-13158234D01*
X13322698Y-13336863D01*
X13226025Y-13570252D01*
X4337930Y-13570252D01*
X4306505Y-13412273D01*
X4118739Y-13131261D01*
X3837727Y-12943495D01*
X3506250Y-12877560D01*
X3068750Y-12877560D01*
X2737273Y-12943495D01*
X2574969Y-13051943D01*
X2509698Y-12986673D01*
X2276309Y-12890000D01*
X1998250Y-12890000D01*
X1839500Y-13048750D01*
X1839500Y-13873000D01*
X1859500Y-13873000D01*
X1859500Y-14127000D01*
X1839500Y-14127000D01*
X1839500Y-14147000D01*
X1585500Y-14147000D01*
X1585500Y-14127000D01*
X1565500Y-14127000D01*
X1565500Y-13873000D01*
X1585500Y-13873000D01*
X1585500Y-13048750D01*
X1426750Y-12890000D01*
X1148691Y-12890000D01*
X915302Y-12986673D01*
X736673Y-13165301D01*
X710000Y-13229695D01*
X710000Y-11627000D01*
X13213585Y-11627000D01*
X13213585Y-11896561D01*
X13213585Y-11896561D01*
G37*
X13213585Y-11896561D02*
X13281899Y-12239996D01*
X13476439Y-12531147D01*
X13767590Y-12725687D01*
X14111025Y-12794001D01*
X15361025Y-12794001D01*
X15704460Y-12725687D01*
X15995611Y-12531147D01*
X16190151Y-12239996D01*
X16258465Y-11896561D01*
X16258465Y-11627000D01*
X17873000Y-11627000D01*
X17873000Y-12665000D01*
X17800750Y-12665000D01*
X17642000Y-12823750D01*
X17642000Y-14173000D01*
X17662000Y-14173000D01*
X17662000Y-14427000D01*
X17642000Y-14427000D01*
X17642000Y-15776250D01*
X17800750Y-15935000D01*
X17873000Y-15935000D01*
X17873000Y-16740000D01*
X7587039Y-16740000D01*
X7539548Y-16692509D01*
X7189464Y-16547500D01*
X6810536Y-16547500D01*
X6460452Y-16692509D01*
X6192509Y-16960452D01*
X6047500Y-17310536D01*
X6047500Y-17689464D01*
X6192509Y-18039548D01*
X6236576Y-18083615D01*
X6049255Y-18208779D01*
X6006855Y-18272235D01*
X5406090Y-18873000D01*
X4220039Y-18873000D01*
X4039548Y-18692509D01*
X3689464Y-18547500D01*
X3310536Y-18547500D01*
X3000000Y-18676128D01*
X2689464Y-18547500D01*
X2310536Y-18547500D01*
X1960452Y-18692509D01*
X1692509Y-18960452D01*
X1547500Y-19310536D01*
X1547500Y-19689464D01*
X1595998Y-19806549D01*
X1545874Y-19881565D01*
X1477560Y-20225000D01*
X1477560Y-20975000D01*
X1545874Y-21318435D01*
X1740414Y-21609586D01*
X1873000Y-21698177D01*
X1873000Y-22301823D01*
X1740414Y-22390414D01*
X1545874Y-22681565D01*
X1477560Y-23025000D01*
X1477560Y-23775000D01*
X1545874Y-24118435D01*
X1740414Y-24409586D01*
X2031565Y-24604126D01*
X2375000Y-24672440D01*
X3625000Y-24672440D01*
X3853441Y-24627000D01*
X4240000Y-24627000D01*
X4240001Y-25462355D01*
X4095000Y-25559241D01*
X3902855Y-25430854D01*
X3571783Y-25365000D01*
X3348217Y-25365000D01*
X3017145Y-25430854D01*
X2825000Y-25559241D01*
X2632855Y-25430854D01*
X2301783Y-25365000D01*
X2078217Y-25365000D01*
X1747145Y-25430854D01*
X1371711Y-25681711D01*
X1120854Y-26057145D01*
X1032765Y-26500000D01*
X1120854Y-26942855D01*
X1249241Y-27135000D01*
X1120854Y-27327145D01*
X1032765Y-27770000D01*
X1120854Y-28212855D01*
X1371711Y-28588289D01*
X1747145Y-28839146D01*
X2078217Y-28905000D01*
X2301783Y-28905000D01*
X2632855Y-28839146D01*
X2825000Y-28710759D01*
X3017145Y-28839146D01*
X3348217Y-28905000D01*
X3571783Y-28905000D01*
X3902855Y-28839146D01*
X4095000Y-28710759D01*
X4287145Y-28839146D01*
X4618217Y-28905000D01*
X4841783Y-28905000D01*
X5172855Y-28839146D01*
X5365000Y-28710759D01*
X5557145Y-28839146D01*
X5888217Y-28905000D01*
X6111783Y-28905000D01*
X6442855Y-28839146D01*
X6818289Y-28588289D01*
X6857236Y-28530000D01*
X7267308Y-28530000D01*
X7413584Y-28748916D01*
X7702706Y-28942102D01*
X8043750Y-29009940D01*
X8956250Y-29009940D01*
X9297294Y-28942102D01*
X9586416Y-28748916D01*
X9779602Y-28459794D01*
X9847440Y-28118750D01*
X9847440Y-27631250D01*
X9779602Y-27290206D01*
X9586416Y-27001084D01*
X9585233Y-27000293D01*
X9738327Y-26847198D01*
X9835000Y-26613809D01*
X9835000Y-26285750D01*
X9676250Y-26127000D01*
X8627000Y-26127000D01*
X8627000Y-26147000D01*
X8373000Y-26147000D01*
X8373000Y-26127000D01*
X7323750Y-26127000D01*
X7165000Y-26285750D01*
X7165000Y-26613809D01*
X7261673Y-26847198D01*
X7414767Y-27000293D01*
X7413584Y-27001084D01*
X7407626Y-27010000D01*
X7135000Y-27010000D01*
X7135000Y-26785750D01*
X6976250Y-26627000D01*
X6127000Y-26627000D01*
X6127000Y-26638027D01*
X6111783Y-26635000D01*
X5888217Y-26635000D01*
X5873000Y-26638027D01*
X5873000Y-26627000D01*
X5861973Y-26627000D01*
X5887235Y-26500000D01*
X5861973Y-26373000D01*
X5873000Y-26373000D01*
X5873000Y-25523750D01*
X6127000Y-25523750D01*
X6127000Y-26373000D01*
X6976250Y-26373000D01*
X7135000Y-26214250D01*
X7135000Y-25873691D01*
X7038327Y-25640302D01*
X6859699Y-25461673D01*
X6677470Y-25386191D01*
X7165000Y-25386191D01*
X7165000Y-25714250D01*
X7323750Y-25873000D01*
X8373000Y-25873000D01*
X8373000Y-25036250D01*
X8627000Y-25036250D01*
X8627000Y-25873000D01*
X9676250Y-25873000D01*
X9835000Y-25714250D01*
X9835000Y-25386191D01*
X9738327Y-25152802D01*
X9559699Y-24974173D01*
X9326310Y-24877500D01*
X8785750Y-24877500D01*
X8627000Y-25036250D01*
X8373000Y-25036250D01*
X8214250Y-24877500D01*
X7673690Y-24877500D01*
X7440301Y-24974173D01*
X7261673Y-25152802D01*
X7165000Y-25386191D01*
X6677470Y-25386191D01*
X6626310Y-25365000D01*
X6285750Y-25365000D01*
X6127000Y-25523750D01*
X5873000Y-25523750D01*
X5760000Y-25410750D01*
X5760000Y-24191396D01*
X5868739Y-24118739D01*
X6056505Y-23837727D01*
X6122440Y-23506250D01*
X6122440Y-23068750D01*
X6056505Y-22737273D01*
X5897964Y-22500000D01*
X6056505Y-22262727D01*
X6122440Y-21931250D01*
X6122440Y-21493750D01*
X6056505Y-21162273D01*
X5868739Y-20881261D01*
X5760000Y-20808604D01*
X5760000Y-20668693D01*
X6328034Y-20100659D01*
X6846699Y-20100659D01*
X6846699Y-20566218D01*
X6943372Y-20799607D01*
X7122000Y-20978236D01*
X7355389Y-21074909D01*
X8070949Y-21074909D01*
X8229699Y-20916159D01*
X8229699Y-19941909D01*
X7005449Y-19941909D01*
X6846699Y-20100659D01*
X6328034Y-20100659D01*
X6873117Y-19555577D01*
X7005449Y-19687909D01*
X8229699Y-19687909D01*
X8229699Y-19667909D01*
X8483699Y-19667909D01*
X8483699Y-19687909D01*
X8503699Y-19687909D01*
X8503699Y-19941909D01*
X8483699Y-19941909D01*
X8483699Y-20916159D01*
X8642449Y-21074909D01*
X9358009Y-21074909D01*
X9496691Y-21017465D01*
X9483542Y-21037144D01*
X9434259Y-21284909D01*
X9434259Y-21483698D01*
X9325134Y-21410783D01*
X8981699Y-21342469D01*
X7731699Y-21342469D01*
X7388264Y-21410783D01*
X7097113Y-21605323D01*
X6902573Y-21896474D01*
X6834259Y-22239909D01*
X6834259Y-22989909D01*
X6902573Y-23333344D01*
X7097113Y-23624495D01*
X7388264Y-23819035D01*
X7731699Y-23887349D01*
X8629466Y-23887349D01*
X8692509Y-24039548D01*
X8960452Y-24307491D01*
X9310536Y-24452500D01*
X9689464Y-24452500D01*
X10039548Y-24307491D01*
X10217971Y-24129068D01*
X10310536Y-24167409D01*
X10689464Y-24167409D01*
X10787020Y-24127000D01*
X11212980Y-24127000D01*
X11310536Y-24167409D01*
X11689464Y-24167409D01*
X11787020Y-24127000D01*
X13947394Y-24127000D01*
X14373000Y-24552606D01*
X14373000Y-29290000D01*
X710000Y-29290000D01*
X710000Y-18057039D01*
X960452Y-18307491D01*
X1310536Y-18452500D01*
X1689464Y-18452500D01*
X2039548Y-18307491D01*
X2307491Y-18039548D01*
X2452500Y-17689464D01*
X2452500Y-17310536D01*
X2328949Y-17012257D01*
X2500000Y-16897964D01*
X2737273Y-17056505D01*
X3068750Y-17122440D01*
X3506250Y-17122440D01*
X3837727Y-17056505D01*
X4118739Y-16868739D01*
X4306505Y-16587727D01*
X4372440Y-16256250D01*
X4372440Y-15743750D01*
X4306505Y-15412273D01*
X4118739Y-15131261D01*
X4047500Y-15083661D01*
X4047500Y-14916339D01*
X4118739Y-14868739D01*
X4293419Y-14607311D01*
X13226025Y-14607311D01*
X13226025Y-15072870D01*
X13322698Y-15306259D01*
X13501326Y-15484888D01*
X13734715Y-15581561D01*
X14450275Y-15581561D01*
X14609025Y-15422811D01*
X14609025Y-14448561D01*
X14863025Y-14448561D01*
X14863025Y-15422811D01*
X15021775Y-15581561D01*
X15737335Y-15581561D01*
X15970724Y-15484888D01*
X16149352Y-15306259D01*
X16246025Y-15072870D01*
X16246025Y-14607311D01*
X16224464Y-14585750D01*
X16580000Y-14585750D01*
X16580000Y-15426309D01*
X16676673Y-15659698D01*
X16855301Y-15838327D01*
X17088690Y-15935000D01*
X17229250Y-15935000D01*
X17388000Y-15776250D01*
X17388000Y-14427000D01*
X16738750Y-14427000D01*
X16580000Y-14585750D01*
X16224464Y-14585750D01*
X16087275Y-14448561D01*
X14863025Y-14448561D01*
X14609025Y-14448561D01*
X13384775Y-14448561D01*
X13226025Y-14607311D01*
X4293419Y-14607311D01*
X4306505Y-14587727D01*
X4372440Y-14256250D01*
X4372440Y-13743750D01*
X4337930Y-13570252D01*
X13226025Y-13570252D01*
X13226025Y-14035811D01*
X13384775Y-14194561D01*
X14609025Y-14194561D01*
X14609025Y-13220311D01*
X14863025Y-13220311D01*
X14863025Y-14194561D01*
X16087275Y-14194561D01*
X16246025Y-14035811D01*
X16246025Y-13570252D01*
X16149352Y-13336863D01*
X15986181Y-13173691D01*
X16580000Y-13173691D01*
X16580000Y-14014250D01*
X16738750Y-14173000D01*
X17388000Y-14173000D01*
X17388000Y-12823750D01*
X17229250Y-12665000D01*
X17088690Y-12665000D01*
X16855301Y-12761673D01*
X16676673Y-12940302D01*
X16580000Y-13173691D01*
X15986181Y-13173691D01*
X15970724Y-13158234D01*
X15737335Y-13061561D01*
X15021775Y-13061561D01*
X14863025Y-13220311D01*
X14609025Y-13220311D01*
X14450275Y-13061561D01*
X13734715Y-13061561D01*
X13501326Y-13158234D01*
X13322698Y-13336863D01*
X13226025Y-13570252D01*
X4337930Y-13570252D01*
X4306505Y-13412273D01*
X4118739Y-13131261D01*
X3837727Y-12943495D01*
X3506250Y-12877560D01*
X3068750Y-12877560D01*
X2737273Y-12943495D01*
X2574969Y-13051943D01*
X2509698Y-12986673D01*
X2276309Y-12890000D01*
X1998250Y-12890000D01*
X1839500Y-13048750D01*
X1839500Y-13873000D01*
X1859500Y-13873000D01*
X1859500Y-14127000D01*
X1839500Y-14127000D01*
X1839500Y-14147000D01*
X1585500Y-14147000D01*
X1585500Y-14127000D01*
X1565500Y-14127000D01*
X1565500Y-13873000D01*
X1585500Y-13873000D01*
X1585500Y-13048750D01*
X1426750Y-12890000D01*
X1148691Y-12890000D01*
X915302Y-12986673D01*
X736673Y-13165301D01*
X710000Y-13229695D01*
X710000Y-11627000D01*
X13213585Y-11627000D01*
X13213585Y-11896561D01*
G36*
X10553699Y-19741909D02*
X10533699Y-19741909D01*
X10533699Y-19761909D01*
X10279699Y-19761909D01*
X10279699Y-19741909D01*
X10259699Y-19741909D01*
X10259699Y-19516708D01*
X10553699Y-19516708D01*
X10553699Y-19741909D01*
X10553699Y-19741909D01*
G37*
X10553699Y-19741909D02*
X10533699Y-19741909D01*
X10533699Y-19761909D01*
X10279699Y-19761909D01*
X10279699Y-19741909D01*
X10259699Y-19741909D01*
X10259699Y-19516708D01*
X10553699Y-19516708D01*
X10553699Y-19741909D01*
G04 #@! TD*
M02*
