G04 #@! TF.GenerationSoftware,KiCad,Pcbnew,5.0.1*
G04 #@! TF.CreationDate,2019-01-16T19:15:50-05:00*
G04 #@! TF.ProjectId,fydp,667964702E6B696361645F7063620000,rev?*
G04 #@! TF.SameCoordinates,Original*
G04 #@! TF.FileFunction,Legend,Top*
G04 #@! TF.FilePolarity,Positive*
%FSLAX46Y46*%
G04 Gerber Fmt 4.6, Leading zero omitted, Abs format (unit mm)*
G04 Created by KiCad (PCBNEW 5.0.1) date Wed 16 Jan 2019 07:15:50 PM EST*
%MOMM*%
%LPD*%
G01*
G04 APERTURE LIST*
%ADD10C,0.150000*%
%ADD11C,0.120000*%
G04 APERTURE END LIST*
D10*
G04 #@! TO.C,U1*
X16625000Y-22875000D02*
X16900000Y-22875000D01*
X16625000Y-15125000D02*
X16990000Y-15125000D01*
X32375000Y-15125000D02*
X32010000Y-15125000D01*
X32375000Y-22875000D02*
X32010000Y-22875000D01*
X16625000Y-22875000D02*
X16625000Y-15125000D01*
X32375000Y-22875000D02*
X32375000Y-15125000D01*
X16900000Y-22875000D02*
X16900000Y-24700000D01*
D11*
G04 #@! TO.C,R3*
X28601471Y-11254303D02*
X28601471Y-10928745D01*
X29621471Y-11254303D02*
X29621471Y-10928745D01*
G04 #@! TO.C,R2*
X31437970Y-11254303D02*
X31437970Y-10928745D01*
X30417970Y-11254303D02*
X30417970Y-10928745D01*
G04 #@! TO.C,C3*
X3910000Y-22602064D02*
X3910000Y-21397936D01*
X2090000Y-22602064D02*
X2090000Y-21397936D01*
G04 #@! TO.C,R5*
X28490000Y-26837221D02*
X28490000Y-27162779D01*
X29510000Y-26837221D02*
X29510000Y-27162779D01*
G04 #@! TO.C,C1*
X9210000Y-26678922D02*
X9210000Y-27196078D01*
X7790000Y-26678922D02*
X7790000Y-27196078D01*
G04 #@! TO.C,C2*
X9266699Y-20612845D02*
X9266699Y-21816973D01*
X7446699Y-20612845D02*
X7446699Y-21816973D01*
G04 #@! TO.C,C4*
X13826025Y-13523625D02*
X13826025Y-12319497D01*
X15646025Y-13523625D02*
X15646025Y-12319497D01*
G04 #@! TO.C,D11*
X1700000Y-14735000D02*
X3985000Y-14735000D01*
X3985000Y-14735000D02*
X3985000Y-13265000D01*
X3985000Y-13265000D02*
X1700000Y-13265000D01*
G04 #@! TO.C,R4*
X31510000Y-26837221D02*
X31510000Y-27162779D01*
X30490000Y-26837221D02*
X30490000Y-27162779D01*
G04 #@! TO.C,R6*
X4490000Y-22662779D02*
X4490000Y-22337221D01*
X5510000Y-22662779D02*
X5510000Y-22337221D01*
G04 #@! TO.C,R7*
X2662779Y-15490000D02*
X2337221Y-15490000D01*
X2662779Y-16510000D02*
X2337221Y-16510000D01*
G04 #@! TO.C,R1*
X13846699Y-21165188D02*
X13846699Y-20839630D01*
X14866699Y-21165188D02*
X14866699Y-20839630D01*
D10*
G04 #@! TO.C,D4*
X38554000Y-2196000D02*
X38554000Y-6514000D01*
X33474000Y-2196000D02*
X38554000Y-2196000D01*
X33474000Y-6514000D02*
X33474000Y-2196000D01*
X33474000Y-6514000D02*
X33474000Y-7784000D01*
X38554000Y-6514000D02*
X33474000Y-6514000D01*
X38554000Y-7784000D02*
X38554000Y-6514000D01*
X33474000Y-7784000D02*
X38554000Y-7784000D01*
G04 #@! TO.C,D1*
X15474000Y-7784000D02*
X20554000Y-7784000D01*
X20554000Y-7784000D02*
X20554000Y-6514000D01*
X20554000Y-6514000D02*
X15474000Y-6514000D01*
X15474000Y-6514000D02*
X15474000Y-7784000D01*
X15474000Y-6514000D02*
X15474000Y-2196000D01*
X15474000Y-2196000D02*
X20554000Y-2196000D01*
X20554000Y-2196000D02*
X20554000Y-6514000D01*
D11*
G04 #@! TO.C,J1*
X6619677Y-28210000D02*
X6695000Y-28210000D01*
X6695000Y-28210000D02*
X6695000Y-29330000D01*
X6695000Y-29330000D02*
X1495000Y-29330000D01*
X1495000Y-29330000D02*
X1495000Y-28210000D01*
X1495000Y-28210000D02*
X1570323Y-28210000D01*
X6260000Y-29330000D02*
X6260000Y-33330000D01*
X6260000Y-33330000D02*
X5740000Y-33330000D01*
X5740000Y-33330000D02*
X5740000Y-29330000D01*
X6200000Y-29330000D02*
X6200000Y-33330000D01*
X6080000Y-29330000D02*
X6080000Y-33330000D01*
X5960000Y-29330000D02*
X5960000Y-33330000D01*
X5840000Y-29330000D02*
X5840000Y-33330000D01*
X5365000Y-28210000D02*
X5365000Y-29330000D01*
X5380323Y-28210000D02*
X5349677Y-28210000D01*
X4990000Y-29330000D02*
X4990000Y-33330000D01*
X4990000Y-33330000D02*
X4470000Y-33330000D01*
X4470000Y-33330000D02*
X4470000Y-29330000D01*
X4095000Y-28210000D02*
X4095000Y-29330000D01*
X4110323Y-28210000D02*
X4079677Y-28210000D01*
X3720000Y-29330000D02*
X3720000Y-33330000D01*
X3720000Y-33330000D02*
X3200000Y-33330000D01*
X3200000Y-33330000D02*
X3200000Y-29330000D01*
X2825000Y-28210000D02*
X2825000Y-29330000D01*
X2840323Y-28210000D02*
X2809677Y-28210000D01*
X2450000Y-29330000D02*
X2450000Y-33330000D01*
X2450000Y-33330000D02*
X1930000Y-33330000D01*
X1930000Y-33330000D02*
X1930000Y-29330000D01*
X6000000Y-25740000D02*
X6760000Y-25740000D01*
X6760000Y-25740000D02*
X6760000Y-26500000D01*
G04 #@! TO.C,U2*
X12966699Y-21614909D02*
X12966699Y-19814909D01*
X9746699Y-19814909D02*
X9746699Y-22264909D01*
D10*
G04 #@! TO.C,D10*
X74540000Y-2206000D02*
X74540000Y-6524000D01*
X69460000Y-2206000D02*
X74540000Y-2206000D01*
X69460000Y-6524000D02*
X69460000Y-2206000D01*
X69460000Y-6524000D02*
X69460000Y-7794000D01*
X74540000Y-6524000D02*
X69460000Y-6524000D01*
X74540000Y-7794000D02*
X74540000Y-6524000D01*
X69460000Y-7794000D02*
X74540000Y-7794000D01*
G04 #@! TO.C,D9*
X63460000Y-7794000D02*
X68540000Y-7794000D01*
X68540000Y-7794000D02*
X68540000Y-6524000D01*
X68540000Y-6524000D02*
X63460000Y-6524000D01*
X63460000Y-6524000D02*
X63460000Y-7794000D01*
X63460000Y-6524000D02*
X63460000Y-2206000D01*
X63460000Y-2206000D02*
X68540000Y-2206000D01*
X68540000Y-2206000D02*
X68540000Y-6524000D01*
G04 #@! TO.C,D8*
X62554000Y-2196000D02*
X62554000Y-6514000D01*
X57474000Y-2196000D02*
X62554000Y-2196000D01*
X57474000Y-6514000D02*
X57474000Y-2196000D01*
X57474000Y-6514000D02*
X57474000Y-7784000D01*
X62554000Y-6514000D02*
X57474000Y-6514000D01*
X62554000Y-7784000D02*
X62554000Y-6514000D01*
X57474000Y-7784000D02*
X62554000Y-7784000D01*
G04 #@! TO.C,D7*
X51474000Y-7784000D02*
X56554000Y-7784000D01*
X56554000Y-7784000D02*
X56554000Y-6514000D01*
X56554000Y-6514000D02*
X51474000Y-6514000D01*
X51474000Y-6514000D02*
X51474000Y-7784000D01*
X51474000Y-6514000D02*
X51474000Y-2196000D01*
X51474000Y-2196000D02*
X56554000Y-2196000D01*
X56554000Y-2196000D02*
X56554000Y-6514000D01*
G04 #@! TO.C,D6*
X50554000Y-2196000D02*
X50554000Y-6514000D01*
X45474000Y-2196000D02*
X50554000Y-2196000D01*
X45474000Y-6514000D02*
X45474000Y-2196000D01*
X45474000Y-6514000D02*
X45474000Y-7784000D01*
X50554000Y-6514000D02*
X45474000Y-6514000D01*
X50554000Y-7784000D02*
X50554000Y-6514000D01*
X45474000Y-7784000D02*
X50554000Y-7784000D01*
G04 #@! TO.C,D5*
X39474000Y-7784000D02*
X44554000Y-7784000D01*
X44554000Y-7784000D02*
X44554000Y-6514000D01*
X44554000Y-6514000D02*
X39474000Y-6514000D01*
X39474000Y-6514000D02*
X39474000Y-7784000D01*
X39474000Y-6514000D02*
X39474000Y-2196000D01*
X39474000Y-2196000D02*
X44554000Y-2196000D01*
X44554000Y-2196000D02*
X44554000Y-6514000D01*
G04 #@! TO.C,D3*
X27474000Y-7784000D02*
X32554000Y-7784000D01*
X32554000Y-7784000D02*
X32554000Y-6514000D01*
X32554000Y-6514000D02*
X27474000Y-6514000D01*
X27474000Y-6514000D02*
X27474000Y-7784000D01*
X27474000Y-6514000D02*
X27474000Y-2196000D01*
X27474000Y-2196000D02*
X32554000Y-2196000D01*
X32554000Y-2196000D02*
X32554000Y-6514000D01*
G04 #@! TO.C,D2*
X26554000Y-2196000D02*
X26554000Y-6514000D01*
X21474000Y-2196000D02*
X26554000Y-2196000D01*
X21474000Y-6514000D02*
X21474000Y-2196000D01*
X21474000Y-6514000D02*
X21474000Y-7784000D01*
X26554000Y-6514000D02*
X21474000Y-6514000D01*
X26554000Y-7784000D02*
X26554000Y-6514000D01*
X21474000Y-7784000D02*
X26554000Y-7784000D01*
G04 #@! TO.C,H4*
X3238095Y-252380D02*
X3238095Y747619D01*
X3238095Y271428D02*
X3809523Y271428D01*
X3809523Y-252380D02*
X3809523Y747619D01*
X4714285Y414285D02*
X4714285Y-252380D01*
X4476190Y795238D02*
X4238095Y80952D01*
X4857142Y80952D01*
G04 #@! TO.C,H3*
X85238095Y-252380D02*
X85238095Y747619D01*
X85238095Y271428D02*
X85809523Y271428D01*
X85809523Y-252380D02*
X85809523Y747619D01*
X86190476Y747619D02*
X86809523Y747619D01*
X86476190Y366666D01*
X86619047Y366666D01*
X86714285Y319047D01*
X86761904Y271428D01*
X86809523Y176190D01*
X86809523Y-61904D01*
X86761904Y-157142D01*
X86714285Y-204761D01*
X86619047Y-252380D01*
X86333333Y-252380D01*
X86238095Y-204761D01*
X86190476Y-157142D01*
G04 #@! TO.C,H2*
X44238095Y-22252380D02*
X44238095Y-21252380D01*
X44238095Y-21728571D02*
X44809523Y-21728571D01*
X44809523Y-22252380D02*
X44809523Y-21252380D01*
X45238095Y-21347619D02*
X45285714Y-21300000D01*
X45380952Y-21252380D01*
X45619047Y-21252380D01*
X45714285Y-21300000D01*
X45761904Y-21347619D01*
X45809523Y-21442857D01*
X45809523Y-21538095D01*
X45761904Y-21680952D01*
X45190476Y-22252380D01*
X45809523Y-22252380D01*
G04 #@! TO.C,H1*
X85238095Y-22252380D02*
X85238095Y-21252380D01*
X85238095Y-21728571D02*
X85809523Y-21728571D01*
X85809523Y-22252380D02*
X85809523Y-21252380D01*
X86809523Y-22252380D02*
X86238095Y-22252380D01*
X86523809Y-22252380D02*
X86523809Y-21252380D01*
X86428571Y-21395238D01*
X86333333Y-21490476D01*
X86238095Y-21538095D01*
G04 #@! TO.C,U1*
X15152380Y-19761904D02*
X15961904Y-19761904D01*
X16057142Y-19714285D01*
X16104761Y-19666666D01*
X16152380Y-19571428D01*
X16152380Y-19380952D01*
X16104761Y-19285714D01*
X16057142Y-19238095D01*
X15961904Y-19190476D01*
X15152380Y-19190476D01*
X16152380Y-18190476D02*
X16152380Y-18761904D01*
X16152380Y-18476190D02*
X15152380Y-18476190D01*
X15295238Y-18571428D01*
X15390476Y-18666666D01*
X15438095Y-18761904D01*
G04 #@! TO.C,R3*
X28133851Y-11258190D02*
X27657661Y-11591524D01*
X28133851Y-11829619D02*
X27133851Y-11829619D01*
X27133851Y-11448666D01*
X27181471Y-11353428D01*
X27229090Y-11305809D01*
X27324328Y-11258190D01*
X27467185Y-11258190D01*
X27562423Y-11305809D01*
X27610042Y-11353428D01*
X27657661Y-11448666D01*
X27657661Y-11829619D01*
X27133851Y-10924857D02*
X27133851Y-10305809D01*
X27514804Y-10639143D01*
X27514804Y-10496285D01*
X27562423Y-10401047D01*
X27610042Y-10353428D01*
X27705280Y-10305809D01*
X27943375Y-10305809D01*
X28038613Y-10353428D01*
X28086232Y-10401047D01*
X28133851Y-10496285D01*
X28133851Y-10782000D01*
X28086232Y-10877238D01*
X28038613Y-10924857D01*
G04 #@! TO.C,R2*
X29950350Y-11258190D02*
X29474160Y-11591524D01*
X29950350Y-11829619D02*
X28950350Y-11829619D01*
X28950350Y-11448666D01*
X28997970Y-11353428D01*
X29045589Y-11305809D01*
X29140827Y-11258190D01*
X29283684Y-11258190D01*
X29378922Y-11305809D01*
X29426541Y-11353428D01*
X29474160Y-11448666D01*
X29474160Y-11829619D01*
X29045589Y-10877238D02*
X28997970Y-10829619D01*
X28950350Y-10734381D01*
X28950350Y-10496285D01*
X28997970Y-10401047D01*
X29045589Y-10353428D01*
X29140827Y-10305809D01*
X29236065Y-10305809D01*
X29378922Y-10353428D01*
X29950350Y-10924857D01*
X29950350Y-10305809D01*
G04 #@! TO.C,C3*
X1537142Y-22166666D02*
X1584761Y-22214285D01*
X1632380Y-22357142D01*
X1632380Y-22452380D01*
X1584761Y-22595238D01*
X1489523Y-22690476D01*
X1394285Y-22738095D01*
X1203809Y-22785714D01*
X1060952Y-22785714D01*
X870476Y-22738095D01*
X775238Y-22690476D01*
X680000Y-22595238D01*
X632380Y-22452380D01*
X632380Y-22357142D01*
X680000Y-22214285D01*
X727619Y-22166666D01*
X632380Y-21833333D02*
X632380Y-21214285D01*
X1013333Y-21547619D01*
X1013333Y-21404761D01*
X1060952Y-21309523D01*
X1108571Y-21261904D01*
X1203809Y-21214285D01*
X1441904Y-21214285D01*
X1537142Y-21261904D01*
X1584761Y-21309523D01*
X1632380Y-21404761D01*
X1632380Y-21690476D01*
X1584761Y-21785714D01*
X1537142Y-21833333D01*
G04 #@! TO.C,R5*
X30882380Y-27166666D02*
X30406190Y-27500000D01*
X30882380Y-27738095D02*
X29882380Y-27738095D01*
X29882380Y-27357142D01*
X29930000Y-27261904D01*
X29977619Y-27214285D01*
X30072857Y-27166666D01*
X30215714Y-27166666D01*
X30310952Y-27214285D01*
X30358571Y-27261904D01*
X30406190Y-27357142D01*
X30406190Y-27738095D01*
X29882380Y-26261904D02*
X29882380Y-26738095D01*
X30358571Y-26785714D01*
X30310952Y-26738095D01*
X30263333Y-26642857D01*
X30263333Y-26404761D01*
X30310952Y-26309523D01*
X30358571Y-26261904D01*
X30453809Y-26214285D01*
X30691904Y-26214285D01*
X30787142Y-26261904D01*
X30834761Y-26309523D01*
X30882380Y-26404761D01*
X30882380Y-26642857D01*
X30834761Y-26738095D01*
X30787142Y-26785714D01*
G04 #@! TO.C,C1*
X10507142Y-27104166D02*
X10554761Y-27151785D01*
X10602380Y-27294642D01*
X10602380Y-27389880D01*
X10554761Y-27532738D01*
X10459523Y-27627976D01*
X10364285Y-27675595D01*
X10173809Y-27723214D01*
X10030952Y-27723214D01*
X9840476Y-27675595D01*
X9745238Y-27627976D01*
X9650000Y-27532738D01*
X9602380Y-27389880D01*
X9602380Y-27294642D01*
X9650000Y-27151785D01*
X9697619Y-27104166D01*
X10602380Y-26151785D02*
X10602380Y-26723214D01*
X10602380Y-26437500D02*
X9602380Y-26437500D01*
X9745238Y-26532738D01*
X9840476Y-26627976D01*
X9888095Y-26723214D01*
G04 #@! TO.C,C2*
X10533841Y-21381575D02*
X10581460Y-21429194D01*
X10629079Y-21572051D01*
X10629079Y-21667289D01*
X10581460Y-21810147D01*
X10486222Y-21905385D01*
X10390984Y-21953004D01*
X10200508Y-22000623D01*
X10057651Y-22000623D01*
X9867175Y-21953004D01*
X9771937Y-21905385D01*
X9676699Y-21810147D01*
X9629079Y-21667289D01*
X9629079Y-21572051D01*
X9676699Y-21429194D01*
X9724318Y-21381575D01*
X9724318Y-21000623D02*
X9676699Y-20953004D01*
X9629079Y-20857766D01*
X9629079Y-20619670D01*
X9676699Y-20524432D01*
X9724318Y-20476813D01*
X9819556Y-20429194D01*
X9914794Y-20429194D01*
X10057651Y-20476813D01*
X10629079Y-21048242D01*
X10629079Y-20429194D01*
G04 #@! TO.C,C4*
X13273167Y-13088227D02*
X13320786Y-13135846D01*
X13368405Y-13278703D01*
X13368405Y-13373941D01*
X13320786Y-13516799D01*
X13225548Y-13612037D01*
X13130310Y-13659656D01*
X12939834Y-13707275D01*
X12796977Y-13707275D01*
X12606501Y-13659656D01*
X12511263Y-13612037D01*
X12416025Y-13516799D01*
X12368405Y-13373941D01*
X12368405Y-13278703D01*
X12416025Y-13135846D01*
X12463644Y-13088227D01*
X12701739Y-12231084D02*
X13368405Y-12231084D01*
X12320786Y-12469180D02*
X13035072Y-12707275D01*
X13035072Y-12088227D01*
G04 #@! TO.C,D11*
X1285714Y-15882380D02*
X1285714Y-14882380D01*
X1523809Y-14882380D01*
X1666666Y-14930000D01*
X1761904Y-15025238D01*
X1809523Y-15120476D01*
X1857142Y-15310952D01*
X1857142Y-15453809D01*
X1809523Y-15644285D01*
X1761904Y-15739523D01*
X1666666Y-15834761D01*
X1523809Y-15882380D01*
X1285714Y-15882380D01*
X2809523Y-15882380D02*
X2238095Y-15882380D01*
X2523809Y-15882380D02*
X2523809Y-14882380D01*
X2428571Y-15025238D01*
X2333333Y-15120476D01*
X2238095Y-15168095D01*
X3761904Y-15882380D02*
X3190476Y-15882380D01*
X3476190Y-15882380D02*
X3476190Y-14882380D01*
X3380952Y-15025238D01*
X3285714Y-15120476D01*
X3190476Y-15168095D01*
G04 #@! TO.C,R4*
X32882380Y-27166666D02*
X32406190Y-27500000D01*
X32882380Y-27738095D02*
X31882380Y-27738095D01*
X31882380Y-27357142D01*
X31930000Y-27261904D01*
X31977619Y-27214285D01*
X32072857Y-27166666D01*
X32215714Y-27166666D01*
X32310952Y-27214285D01*
X32358571Y-27261904D01*
X32406190Y-27357142D01*
X32406190Y-27738095D01*
X32215714Y-26309523D02*
X32882380Y-26309523D01*
X31834761Y-26547619D02*
X32549047Y-26785714D01*
X32549047Y-26166666D01*
G04 #@! TO.C,R6*
X4022380Y-22666666D02*
X3546190Y-23000000D01*
X4022380Y-23238095D02*
X3022380Y-23238095D01*
X3022380Y-22857142D01*
X3070000Y-22761904D01*
X3117619Y-22714285D01*
X3212857Y-22666666D01*
X3355714Y-22666666D01*
X3450952Y-22714285D01*
X3498571Y-22761904D01*
X3546190Y-22857142D01*
X3546190Y-23238095D01*
X3022380Y-21809523D02*
X3022380Y-22000000D01*
X3070000Y-22095238D01*
X3117619Y-22142857D01*
X3260476Y-22238095D01*
X3450952Y-22285714D01*
X3831904Y-22285714D01*
X3927142Y-22238095D01*
X3974761Y-22190476D01*
X4022380Y-22095238D01*
X4022380Y-21904761D01*
X3974761Y-21809523D01*
X3927142Y-21761904D01*
X3831904Y-21714285D01*
X3593809Y-21714285D01*
X3498571Y-21761904D01*
X3450952Y-21809523D01*
X3403333Y-21904761D01*
X3403333Y-22095238D01*
X3450952Y-22190476D01*
X3498571Y-22238095D01*
X3593809Y-22285714D01*
G04 #@! TO.C,R7*
X2333333Y-17882380D02*
X2000000Y-17406190D01*
X1761904Y-17882380D02*
X1761904Y-16882380D01*
X2142857Y-16882380D01*
X2238095Y-16930000D01*
X2285714Y-16977619D01*
X2333333Y-17072857D01*
X2333333Y-17215714D01*
X2285714Y-17310952D01*
X2238095Y-17358571D01*
X2142857Y-17406190D01*
X1761904Y-17406190D01*
X2666666Y-16882380D02*
X3333333Y-16882380D01*
X2904761Y-17882380D01*
G04 #@! TO.C,R1*
X13379079Y-21169075D02*
X12902889Y-21502409D01*
X13379079Y-21740504D02*
X12379079Y-21740504D01*
X12379079Y-21359551D01*
X12426699Y-21264313D01*
X12474318Y-21216694D01*
X12569556Y-21169075D01*
X12712413Y-21169075D01*
X12807651Y-21216694D01*
X12855270Y-21264313D01*
X12902889Y-21359551D01*
X12902889Y-21740504D01*
X13379079Y-20216694D02*
X13379079Y-20788123D01*
X13379079Y-20502409D02*
X12379079Y-20502409D01*
X12521937Y-20597647D01*
X12617175Y-20692885D01*
X12664794Y-20788123D01*
G04 #@! TO.C,D4*
X34480380Y-1718095D02*
X33480380Y-1718095D01*
X33480380Y-1480000D01*
X33528000Y-1337142D01*
X33623238Y-1241904D01*
X33718476Y-1194285D01*
X33908952Y-1146666D01*
X34051809Y-1146666D01*
X34242285Y-1194285D01*
X34337523Y-1241904D01*
X34432761Y-1337142D01*
X34480380Y-1480000D01*
X34480380Y-1718095D01*
X33813714Y-289523D02*
X34480380Y-289523D01*
X33432761Y-527619D02*
X34147047Y-765714D01*
X34147047Y-146666D01*
G04 #@! TO.C,D1*
X16480380Y-1718095D02*
X15480380Y-1718095D01*
X15480380Y-1480000D01*
X15528000Y-1337142D01*
X15623238Y-1241904D01*
X15718476Y-1194285D01*
X15908952Y-1146666D01*
X16051809Y-1146666D01*
X16242285Y-1194285D01*
X16337523Y-1241904D01*
X16432761Y-1337142D01*
X16480380Y-1480000D01*
X16480380Y-1718095D01*
X16480380Y-194285D02*
X16480380Y-765714D01*
X16480380Y-480000D02*
X15480380Y-479999D01*
X15623238Y-575238D01*
X15718476Y-670476D01*
X15766095Y-765714D01*
G04 #@! TO.C,J1*
X7087380Y-29900833D02*
X7801666Y-29900833D01*
X7944523Y-29948452D01*
X8039761Y-30043690D01*
X8087380Y-30186547D01*
X8087380Y-30281785D01*
X8087380Y-28900833D02*
X8087380Y-29472261D01*
X8087380Y-29186547D02*
X7087380Y-29186547D01*
X7230238Y-29281785D01*
X7325476Y-29377023D01*
X7373095Y-29472261D01*
G04 #@! TO.C,U2*
X7909079Y-21476813D02*
X8718603Y-21476813D01*
X8813841Y-21429194D01*
X8861460Y-21381575D01*
X8909079Y-21286337D01*
X8909079Y-21095861D01*
X8861460Y-21000623D01*
X8813841Y-20953004D01*
X8718603Y-20905385D01*
X7909079Y-20905385D01*
X8004318Y-20476813D02*
X7956699Y-20429194D01*
X7909079Y-20333956D01*
X7909079Y-20095861D01*
X7956699Y-20000623D01*
X8004318Y-19953004D01*
X8099556Y-19905385D01*
X8194794Y-19905385D01*
X8337651Y-19953004D01*
X8909079Y-20524432D01*
X8909079Y-19905385D01*
G04 #@! TO.C,D10*
X69966380Y-1704285D02*
X68966380Y-1704285D01*
X68966380Y-1466190D01*
X69014000Y-1323333D01*
X69109238Y-1228095D01*
X69204476Y-1180476D01*
X69394952Y-1132857D01*
X69537809Y-1132857D01*
X69728285Y-1180476D01*
X69823523Y-1228095D01*
X69918761Y-1323333D01*
X69966380Y-1466190D01*
X69966380Y-1704285D01*
X69966380Y-180476D02*
X69966380Y-751904D01*
X69966380Y-466190D02*
X68966380Y-466190D01*
X69109238Y-561428D01*
X69204476Y-656666D01*
X69252095Y-751904D01*
X68966380Y438571D02*
X68966380Y533809D01*
X69014000Y629047D01*
X69061619Y676666D01*
X69156857Y724285D01*
X69347333Y771904D01*
X69585428Y771904D01*
X69775904Y724285D01*
X69871142Y676666D01*
X69918761Y629047D01*
X69966380Y533809D01*
X69966380Y438571D01*
X69918761Y343333D01*
X69871142Y295714D01*
X69775904Y248095D01*
X69585428Y200476D01*
X69347333Y200476D01*
X69156857Y248095D01*
X69061619Y295714D01*
X69014000Y343333D01*
X68966380Y438571D01*
G04 #@! TO.C,D9*
X63966380Y-1728095D02*
X62966380Y-1728095D01*
X62966380Y-1490000D01*
X63014000Y-1347142D01*
X63109238Y-1251904D01*
X63204476Y-1204285D01*
X63394952Y-1156666D01*
X63537809Y-1156666D01*
X63728285Y-1204285D01*
X63823523Y-1251904D01*
X63918761Y-1347142D01*
X63966380Y-1490000D01*
X63966380Y-1728095D01*
X63966380Y-680476D02*
X63966380Y-490000D01*
X63918761Y-394761D01*
X63871142Y-347142D01*
X63728285Y-251904D01*
X63537809Y-204285D01*
X63156857Y-204285D01*
X63061619Y-251904D01*
X63014000Y-299523D01*
X62966380Y-394761D01*
X62966380Y-585238D01*
X63014000Y-680476D01*
X63061619Y-728095D01*
X63156857Y-775714D01*
X63394952Y-775714D01*
X63490190Y-728095D01*
X63537809Y-680476D01*
X63585428Y-585238D01*
X63585428Y-394761D01*
X63537809Y-299523D01*
X63490190Y-251904D01*
X63394952Y-204285D01*
G04 #@! TO.C,D8*
X57980380Y-1718095D02*
X56980380Y-1718095D01*
X56980380Y-1480000D01*
X57028000Y-1337142D01*
X57123238Y-1241904D01*
X57218476Y-1194285D01*
X57408952Y-1146666D01*
X57551809Y-1146666D01*
X57742285Y-1194285D01*
X57837523Y-1241904D01*
X57932761Y-1337142D01*
X57980380Y-1480000D01*
X57980380Y-1718095D01*
X57408952Y-575238D02*
X57361333Y-670476D01*
X57313714Y-718095D01*
X57218476Y-765714D01*
X57170857Y-765714D01*
X57075619Y-718095D01*
X57028000Y-670476D01*
X56980380Y-575238D01*
X56980380Y-384761D01*
X57028000Y-289523D01*
X57075619Y-241904D01*
X57170857Y-194285D01*
X57218476Y-194285D01*
X57313714Y-241904D01*
X57361333Y-289523D01*
X57408952Y-384761D01*
X57408952Y-575238D01*
X57456571Y-670476D01*
X57504190Y-718095D01*
X57599428Y-765714D01*
X57789904Y-765714D01*
X57885142Y-718095D01*
X57932761Y-670476D01*
X57980380Y-575238D01*
X57980380Y-384761D01*
X57932761Y-289523D01*
X57885142Y-241904D01*
X57789904Y-194285D01*
X57599428Y-194285D01*
X57504190Y-241904D01*
X57456571Y-289523D01*
X57408952Y-384761D01*
G04 #@! TO.C,D7*
X52480380Y-1718095D02*
X51480380Y-1718095D01*
X51480380Y-1480000D01*
X51528000Y-1337142D01*
X51623238Y-1241904D01*
X51718476Y-1194285D01*
X51908952Y-1146666D01*
X52051809Y-1146666D01*
X52242285Y-1194285D01*
X52337523Y-1241904D01*
X52432761Y-1337142D01*
X52480380Y-1480000D01*
X52480380Y-1718095D01*
X51480380Y-813333D02*
X51480380Y-146666D01*
X52480380Y-575238D01*
G04 #@! TO.C,D6*
X46480380Y-1718095D02*
X45480380Y-1718095D01*
X45480380Y-1480000D01*
X45528000Y-1337142D01*
X45623238Y-1241904D01*
X45718476Y-1194285D01*
X45908952Y-1146666D01*
X46051809Y-1146666D01*
X46242285Y-1194285D01*
X46337523Y-1241904D01*
X46432761Y-1337142D01*
X46480380Y-1480000D01*
X46480380Y-1718095D01*
X45480380Y-289523D02*
X45480380Y-479999D01*
X45528000Y-575238D01*
X45575619Y-622857D01*
X45718476Y-718095D01*
X45908952Y-765714D01*
X46289904Y-765714D01*
X46385142Y-718095D01*
X46432761Y-670476D01*
X46480380Y-575238D01*
X46480380Y-384761D01*
X46432761Y-289523D01*
X46385142Y-241904D01*
X46289904Y-194285D01*
X46051809Y-194285D01*
X45956571Y-241904D01*
X45908952Y-289523D01*
X45861333Y-384761D01*
X45861333Y-575238D01*
X45908952Y-670476D01*
X45956571Y-718095D01*
X46051809Y-765714D01*
G04 #@! TO.C,D5*
X40480380Y-1718095D02*
X39480380Y-1718095D01*
X39480380Y-1480000D01*
X39528000Y-1337142D01*
X39623238Y-1241904D01*
X39718476Y-1194285D01*
X39908952Y-1146666D01*
X40051809Y-1146666D01*
X40242285Y-1194285D01*
X40337523Y-1241904D01*
X40432761Y-1337142D01*
X40480380Y-1480000D01*
X40480380Y-1718095D01*
X39480380Y-241904D02*
X39480380Y-718095D01*
X39956571Y-765714D01*
X39908952Y-718095D01*
X39861333Y-622857D01*
X39861333Y-384761D01*
X39908952Y-289523D01*
X39956571Y-241904D01*
X40051809Y-194285D01*
X40289904Y-194285D01*
X40385142Y-241904D01*
X40432761Y-289523D01*
X40480380Y-384761D01*
X40480380Y-622857D01*
X40432761Y-718095D01*
X40385142Y-765714D01*
G04 #@! TO.C,D3*
X28480380Y-1718095D02*
X27480380Y-1718095D01*
X27480380Y-1480000D01*
X27528000Y-1337142D01*
X27623238Y-1241904D01*
X27718476Y-1194285D01*
X27908952Y-1146666D01*
X28051809Y-1146666D01*
X28242285Y-1194285D01*
X28337523Y-1241904D01*
X28432761Y-1337142D01*
X28480380Y-1480000D01*
X28480380Y-1718095D01*
X27480380Y-813333D02*
X27480380Y-194285D01*
X27861333Y-527619D01*
X27861333Y-384761D01*
X27908952Y-289523D01*
X27956571Y-241904D01*
X28051809Y-194285D01*
X28289904Y-194285D01*
X28385142Y-241904D01*
X28432761Y-289523D01*
X28480380Y-384761D01*
X28480380Y-670476D01*
X28432761Y-765714D01*
X28385142Y-813333D01*
G04 #@! TO.C,D2*
X22480380Y-1718095D02*
X21480380Y-1718095D01*
X21480380Y-1480000D01*
X21528000Y-1337142D01*
X21623238Y-1241904D01*
X21718476Y-1194285D01*
X21908952Y-1146666D01*
X22051809Y-1146666D01*
X22242285Y-1194285D01*
X22337523Y-1241904D01*
X22432761Y-1337142D01*
X22480380Y-1480000D01*
X22480380Y-1718095D01*
X21575619Y-765714D02*
X21528000Y-718095D01*
X21480380Y-622857D01*
X21480380Y-384761D01*
X21528000Y-289523D01*
X21575619Y-241904D01*
X21670857Y-194285D01*
X21766095Y-194285D01*
X21908952Y-241904D01*
X22480380Y-813333D01*
X22480380Y-194285D01*
G04 #@! TD*
M02*
