G04 #@! TF.GenerationSoftware,KiCad,Pcbnew,5.0.1*
G04 #@! TF.CreationDate,2019-01-16T19:15:50-05:00*
G04 #@! TF.ProjectId,fydp,667964702E6B696361645F7063620000,rev?*
G04 #@! TF.SameCoordinates,Original*
G04 #@! TF.FileFunction,Soldermask,Bot*
G04 #@! TF.FilePolarity,Negative*
%FSLAX46Y46*%
G04 Gerber Fmt 4.6, Leading zero omitted, Abs format (unit mm)*
G04 Created by KiCad (PCBNEW 5.0.1) date Wed 16 Jan 2019 07:15:50 PM EST*
%MOMM*%
%LPD*%
G01*
G04 APERTURE LIST*
%ADD10C,0.100000*%
G04 APERTURE END LIST*
D10*
G36*
X2298015Y-25956973D02*
X2401879Y-25988479D01*
X2497600Y-26039644D01*
X2581501Y-26108499D01*
X2650356Y-26192400D01*
X2701521Y-26288121D01*
X2705383Y-26300854D01*
X2714760Y-26323493D01*
X2728374Y-26343867D01*
X2745701Y-26361194D01*
X2766076Y-26374808D01*
X2788715Y-26384186D01*
X2812748Y-26388966D01*
X2837252Y-26388966D01*
X2861286Y-26384185D01*
X2883925Y-26374808D01*
X2904299Y-26361194D01*
X2921626Y-26343867D01*
X2935240Y-26323492D01*
X2944617Y-26300854D01*
X2948479Y-26288121D01*
X2999644Y-26192400D01*
X3068499Y-26108499D01*
X3152400Y-26039644D01*
X3248121Y-25988479D01*
X3351985Y-25956973D01*
X3432933Y-25949000D01*
X3487067Y-25949000D01*
X3568015Y-25956973D01*
X3671879Y-25988479D01*
X3767600Y-26039644D01*
X3851501Y-26108499D01*
X3920356Y-26192400D01*
X3971521Y-26288121D01*
X3975383Y-26300854D01*
X3984760Y-26323493D01*
X3998374Y-26343867D01*
X4015701Y-26361194D01*
X4036076Y-26374808D01*
X4058715Y-26384186D01*
X4082748Y-26388966D01*
X4107252Y-26388966D01*
X4131286Y-26384185D01*
X4153925Y-26374808D01*
X4174299Y-26361194D01*
X4191626Y-26343867D01*
X4205240Y-26323492D01*
X4214617Y-26300854D01*
X4218479Y-26288121D01*
X4269644Y-26192400D01*
X4338499Y-26108499D01*
X4422400Y-26039644D01*
X4518121Y-25988479D01*
X4621985Y-25956973D01*
X4702933Y-25949000D01*
X4757067Y-25949000D01*
X4838015Y-25956973D01*
X4941879Y-25988479D01*
X5037600Y-26039644D01*
X5121501Y-26108499D01*
X5190356Y-26192400D01*
X5213766Y-26236195D01*
X5227374Y-26256561D01*
X5244701Y-26273889D01*
X5265076Y-26287502D01*
X5287715Y-26296880D01*
X5311748Y-26301660D01*
X5336252Y-26301660D01*
X5360286Y-26296879D01*
X5382925Y-26287502D01*
X5403299Y-26273888D01*
X5420627Y-26256561D01*
X5434240Y-26236186D01*
X5443618Y-26213547D01*
X5449000Y-26177262D01*
X5449000Y-25949000D01*
X6551000Y-25949000D01*
X6551000Y-27051000D01*
X6322738Y-27051000D01*
X6298352Y-27053402D01*
X6274903Y-27060515D01*
X6253292Y-27072066D01*
X6234350Y-27087612D01*
X6218804Y-27106554D01*
X6207253Y-27128165D01*
X6200140Y-27151614D01*
X6197738Y-27176000D01*
X6200140Y-27200386D01*
X6207253Y-27223835D01*
X6218804Y-27245446D01*
X6234350Y-27264388D01*
X6263808Y-27286236D01*
X6307600Y-27309644D01*
X6391501Y-27378499D01*
X6460356Y-27462400D01*
X6511521Y-27558121D01*
X6543027Y-27661985D01*
X6553666Y-27770000D01*
X6543027Y-27878015D01*
X6511521Y-27981879D01*
X6460356Y-28077600D01*
X6391501Y-28161501D01*
X6307600Y-28230356D01*
X6211879Y-28281521D01*
X6108015Y-28313027D01*
X6027067Y-28321000D01*
X5972933Y-28321000D01*
X5891985Y-28313027D01*
X5788121Y-28281521D01*
X5692400Y-28230356D01*
X5608499Y-28161501D01*
X5539644Y-28077600D01*
X5488479Y-27981879D01*
X5484615Y-27969142D01*
X5475240Y-27946507D01*
X5461626Y-27926133D01*
X5444299Y-27908806D01*
X5423924Y-27895192D01*
X5401285Y-27885814D01*
X5377252Y-27881034D01*
X5352748Y-27881034D01*
X5328714Y-27885815D01*
X5306075Y-27895192D01*
X5285701Y-27908806D01*
X5268374Y-27926133D01*
X5254760Y-27946508D01*
X5245385Y-27969142D01*
X5241521Y-27981879D01*
X5190356Y-28077600D01*
X5121501Y-28161501D01*
X5037600Y-28230356D01*
X4941879Y-28281521D01*
X4838015Y-28313027D01*
X4757067Y-28321000D01*
X4702933Y-28321000D01*
X4621985Y-28313027D01*
X4518121Y-28281521D01*
X4422400Y-28230356D01*
X4338499Y-28161501D01*
X4269644Y-28077600D01*
X4218479Y-27981879D01*
X4214615Y-27969142D01*
X4205240Y-27946507D01*
X4191626Y-27926133D01*
X4174299Y-27908806D01*
X4153924Y-27895192D01*
X4131285Y-27885814D01*
X4107252Y-27881034D01*
X4082748Y-27881034D01*
X4058714Y-27885815D01*
X4036075Y-27895192D01*
X4015701Y-27908806D01*
X3998374Y-27926133D01*
X3984760Y-27946508D01*
X3975385Y-27969142D01*
X3971521Y-27981879D01*
X3920356Y-28077600D01*
X3851501Y-28161501D01*
X3767600Y-28230356D01*
X3671879Y-28281521D01*
X3568015Y-28313027D01*
X3487067Y-28321000D01*
X3432933Y-28321000D01*
X3351985Y-28313027D01*
X3248121Y-28281521D01*
X3152400Y-28230356D01*
X3068499Y-28161501D01*
X2999644Y-28077600D01*
X2948479Y-27981879D01*
X2944615Y-27969142D01*
X2935240Y-27946507D01*
X2921626Y-27926133D01*
X2904299Y-27908806D01*
X2883924Y-27895192D01*
X2861285Y-27885814D01*
X2837252Y-27881034D01*
X2812748Y-27881034D01*
X2788714Y-27885815D01*
X2766075Y-27895192D01*
X2745701Y-27908806D01*
X2728374Y-27926133D01*
X2714760Y-27946508D01*
X2705385Y-27969142D01*
X2701521Y-27981879D01*
X2650356Y-28077600D01*
X2581501Y-28161501D01*
X2497600Y-28230356D01*
X2401879Y-28281521D01*
X2298015Y-28313027D01*
X2217067Y-28321000D01*
X2162933Y-28321000D01*
X2081985Y-28313027D01*
X1978121Y-28281521D01*
X1882400Y-28230356D01*
X1798499Y-28161501D01*
X1729644Y-28077600D01*
X1678479Y-27981879D01*
X1646973Y-27878015D01*
X1636334Y-27770000D01*
X1646973Y-27661985D01*
X1678479Y-27558121D01*
X1729644Y-27462400D01*
X1798499Y-27378499D01*
X1882400Y-27309644D01*
X1978121Y-27258479D01*
X1990858Y-27254615D01*
X2013493Y-27245240D01*
X2033867Y-27231626D01*
X2051194Y-27214299D01*
X2064808Y-27193924D01*
X2074186Y-27171285D01*
X2078966Y-27147252D01*
X2078966Y-27122748D01*
X2301034Y-27122748D01*
X2301034Y-27147252D01*
X2305815Y-27171286D01*
X2315192Y-27193925D01*
X2328806Y-27214299D01*
X2346133Y-27231626D01*
X2366508Y-27245240D01*
X2389142Y-27254615D01*
X2401879Y-27258479D01*
X2497600Y-27309644D01*
X2581501Y-27378499D01*
X2650356Y-27462400D01*
X2701521Y-27558121D01*
X2705383Y-27570854D01*
X2714760Y-27593493D01*
X2728374Y-27613867D01*
X2745701Y-27631194D01*
X2766076Y-27644808D01*
X2788715Y-27654186D01*
X2812748Y-27658966D01*
X2837252Y-27658966D01*
X2861286Y-27654185D01*
X2883925Y-27644808D01*
X2904299Y-27631194D01*
X2921626Y-27613867D01*
X2935240Y-27593492D01*
X2944617Y-27570854D01*
X2948479Y-27558121D01*
X2999644Y-27462400D01*
X3068499Y-27378499D01*
X3152400Y-27309644D01*
X3248121Y-27258479D01*
X3260858Y-27254615D01*
X3283493Y-27245240D01*
X3303867Y-27231626D01*
X3321194Y-27214299D01*
X3334808Y-27193924D01*
X3344186Y-27171285D01*
X3348966Y-27147252D01*
X3348966Y-27122748D01*
X3571034Y-27122748D01*
X3571034Y-27147252D01*
X3575815Y-27171286D01*
X3585192Y-27193925D01*
X3598806Y-27214299D01*
X3616133Y-27231626D01*
X3636508Y-27245240D01*
X3659142Y-27254615D01*
X3671879Y-27258479D01*
X3767600Y-27309644D01*
X3851501Y-27378499D01*
X3920356Y-27462400D01*
X3971521Y-27558121D01*
X3975383Y-27570854D01*
X3984760Y-27593493D01*
X3998374Y-27613867D01*
X4015701Y-27631194D01*
X4036076Y-27644808D01*
X4058715Y-27654186D01*
X4082748Y-27658966D01*
X4107252Y-27658966D01*
X4131286Y-27654185D01*
X4153925Y-27644808D01*
X4174299Y-27631194D01*
X4191626Y-27613867D01*
X4205240Y-27593492D01*
X4214617Y-27570854D01*
X4218479Y-27558121D01*
X4269644Y-27462400D01*
X4338499Y-27378499D01*
X4422400Y-27309644D01*
X4518121Y-27258479D01*
X4530858Y-27254615D01*
X4553493Y-27245240D01*
X4573867Y-27231626D01*
X4591194Y-27214299D01*
X4604808Y-27193924D01*
X4614186Y-27171285D01*
X4618966Y-27147252D01*
X4618966Y-27122748D01*
X4841034Y-27122748D01*
X4841034Y-27147252D01*
X4845815Y-27171286D01*
X4855192Y-27193925D01*
X4868806Y-27214299D01*
X4886133Y-27231626D01*
X4906508Y-27245240D01*
X4929142Y-27254615D01*
X4941879Y-27258479D01*
X5037600Y-27309644D01*
X5121501Y-27378499D01*
X5190356Y-27462400D01*
X5241521Y-27558121D01*
X5245383Y-27570854D01*
X5254760Y-27593493D01*
X5268374Y-27613867D01*
X5285701Y-27631194D01*
X5306076Y-27644808D01*
X5328715Y-27654186D01*
X5352748Y-27658966D01*
X5377252Y-27658966D01*
X5401286Y-27654185D01*
X5423925Y-27644808D01*
X5444299Y-27631194D01*
X5461626Y-27613867D01*
X5475240Y-27593492D01*
X5484617Y-27570854D01*
X5488479Y-27558121D01*
X5539644Y-27462400D01*
X5608499Y-27378499D01*
X5692400Y-27309644D01*
X5736195Y-27286234D01*
X5756561Y-27272626D01*
X5773889Y-27255299D01*
X5787502Y-27234924D01*
X5796880Y-27212285D01*
X5801660Y-27188252D01*
X5801660Y-27163748D01*
X5796879Y-27139714D01*
X5787502Y-27117075D01*
X5773888Y-27096701D01*
X5756561Y-27079373D01*
X5736186Y-27065760D01*
X5713547Y-27056382D01*
X5677262Y-27051000D01*
X5449000Y-27051000D01*
X5449000Y-26822738D01*
X5446598Y-26798352D01*
X5439485Y-26774903D01*
X5427934Y-26753292D01*
X5412388Y-26734350D01*
X5393446Y-26718804D01*
X5371835Y-26707253D01*
X5348386Y-26700140D01*
X5324000Y-26697738D01*
X5299614Y-26700140D01*
X5276165Y-26707253D01*
X5254554Y-26718804D01*
X5235612Y-26734350D01*
X5213764Y-26763808D01*
X5190356Y-26807600D01*
X5121501Y-26891501D01*
X5037600Y-26960356D01*
X4941879Y-27011521D01*
X4929142Y-27015385D01*
X4906507Y-27024760D01*
X4886133Y-27038374D01*
X4868806Y-27055701D01*
X4855192Y-27076076D01*
X4845814Y-27098715D01*
X4841034Y-27122748D01*
X4618966Y-27122748D01*
X4614185Y-27098714D01*
X4604808Y-27076075D01*
X4591194Y-27055701D01*
X4573867Y-27038374D01*
X4553492Y-27024760D01*
X4530858Y-27015385D01*
X4518121Y-27011521D01*
X4422400Y-26960356D01*
X4338499Y-26891501D01*
X4269644Y-26807600D01*
X4218479Y-26711879D01*
X4214615Y-26699142D01*
X4205240Y-26676507D01*
X4191626Y-26656133D01*
X4174299Y-26638806D01*
X4153924Y-26625192D01*
X4131285Y-26615814D01*
X4107252Y-26611034D01*
X4082748Y-26611034D01*
X4058714Y-26615815D01*
X4036075Y-26625192D01*
X4015701Y-26638806D01*
X3998374Y-26656133D01*
X3984760Y-26676508D01*
X3975385Y-26699142D01*
X3971521Y-26711879D01*
X3920356Y-26807600D01*
X3851501Y-26891501D01*
X3767600Y-26960356D01*
X3671879Y-27011521D01*
X3659142Y-27015385D01*
X3636507Y-27024760D01*
X3616133Y-27038374D01*
X3598806Y-27055701D01*
X3585192Y-27076076D01*
X3575814Y-27098715D01*
X3571034Y-27122748D01*
X3348966Y-27122748D01*
X3344185Y-27098714D01*
X3334808Y-27076075D01*
X3321194Y-27055701D01*
X3303867Y-27038374D01*
X3283492Y-27024760D01*
X3260858Y-27015385D01*
X3248121Y-27011521D01*
X3152400Y-26960356D01*
X3068499Y-26891501D01*
X2999644Y-26807600D01*
X2948479Y-26711879D01*
X2944615Y-26699142D01*
X2935240Y-26676507D01*
X2921626Y-26656133D01*
X2904299Y-26638806D01*
X2883924Y-26625192D01*
X2861285Y-26615814D01*
X2837252Y-26611034D01*
X2812748Y-26611034D01*
X2788714Y-26615815D01*
X2766075Y-26625192D01*
X2745701Y-26638806D01*
X2728374Y-26656133D01*
X2714760Y-26676508D01*
X2705385Y-26699142D01*
X2701521Y-26711879D01*
X2650356Y-26807600D01*
X2581501Y-26891501D01*
X2497600Y-26960356D01*
X2401879Y-27011521D01*
X2389142Y-27015385D01*
X2366507Y-27024760D01*
X2346133Y-27038374D01*
X2328806Y-27055701D01*
X2315192Y-27076076D01*
X2305814Y-27098715D01*
X2301034Y-27122748D01*
X2078966Y-27122748D01*
X2074185Y-27098714D01*
X2064808Y-27076075D01*
X2051194Y-27055701D01*
X2033867Y-27038374D01*
X2013492Y-27024760D01*
X1990858Y-27015385D01*
X1978121Y-27011521D01*
X1882400Y-26960356D01*
X1798499Y-26891501D01*
X1729644Y-26807600D01*
X1678479Y-26711879D01*
X1646973Y-26608015D01*
X1636334Y-26500000D01*
X1646973Y-26391985D01*
X1678479Y-26288121D01*
X1729644Y-26192400D01*
X1798499Y-26108499D01*
X1882400Y-26039644D01*
X1978121Y-25988479D01*
X2081985Y-25956973D01*
X2162933Y-25949000D01*
X2217067Y-25949000D01*
X2298015Y-25956973D01*
X2298015Y-25956973D01*
G37*
G36*
X86375256Y-24391298D02*
X86481579Y-24412447D01*
X86782042Y-24536903D01*
X87048852Y-24715180D01*
X87052454Y-24717587D01*
X87282413Y-24947546D01*
X87463098Y-25217960D01*
X87587553Y-25518422D01*
X87651000Y-25837389D01*
X87651000Y-26162611D01*
X87618998Y-26323493D01*
X87587553Y-26481579D01*
X87463097Y-26782042D01*
X87343952Y-26960355D01*
X87282413Y-27052454D01*
X87052454Y-27282413D01*
X87052451Y-27282415D01*
X86782042Y-27463097D01*
X86481579Y-27587553D01*
X86375256Y-27608702D01*
X86162611Y-27651000D01*
X85837389Y-27651000D01*
X85624744Y-27608702D01*
X85518421Y-27587553D01*
X85217958Y-27463097D01*
X84947549Y-27282415D01*
X84947546Y-27282413D01*
X84717587Y-27052454D01*
X84656048Y-26960355D01*
X84536903Y-26782042D01*
X84412447Y-26481579D01*
X84381002Y-26323493D01*
X84349000Y-26162611D01*
X84349000Y-25837389D01*
X84412447Y-25518422D01*
X84536902Y-25217960D01*
X84717587Y-24947546D01*
X84947546Y-24717587D01*
X84951148Y-24715180D01*
X85217958Y-24536903D01*
X85518421Y-24412447D01*
X85624744Y-24391298D01*
X85837389Y-24349000D01*
X86162611Y-24349000D01*
X86375256Y-24391298D01*
X86375256Y-24391298D01*
G37*
G36*
X45375256Y-24391298D02*
X45481579Y-24412447D01*
X45782042Y-24536903D01*
X46048852Y-24715180D01*
X46052454Y-24717587D01*
X46282413Y-24947546D01*
X46463098Y-25217960D01*
X46587553Y-25518422D01*
X46651000Y-25837389D01*
X46651000Y-26162611D01*
X46618998Y-26323493D01*
X46587553Y-26481579D01*
X46463097Y-26782042D01*
X46343952Y-26960355D01*
X46282413Y-27052454D01*
X46052454Y-27282413D01*
X46052451Y-27282415D01*
X45782042Y-27463097D01*
X45481579Y-27587553D01*
X45375256Y-27608702D01*
X45162611Y-27651000D01*
X44837389Y-27651000D01*
X44624744Y-27608702D01*
X44518421Y-27587553D01*
X44217958Y-27463097D01*
X43947549Y-27282415D01*
X43947546Y-27282413D01*
X43717587Y-27052454D01*
X43656048Y-26960355D01*
X43536903Y-26782042D01*
X43412447Y-26481579D01*
X43381002Y-26323493D01*
X43349000Y-26162611D01*
X43349000Y-25837389D01*
X43412447Y-25518422D01*
X43536902Y-25217960D01*
X43717587Y-24947546D01*
X43947546Y-24717587D01*
X43951148Y-24715180D01*
X44217958Y-24536903D01*
X44518421Y-24412447D01*
X44624744Y-24391298D01*
X44837389Y-24349000D01*
X45162611Y-24349000D01*
X45375256Y-24391298D01*
X45375256Y-24391298D01*
G37*
G36*
X86375256Y-2391298D02*
X86481579Y-2412447D01*
X86782042Y-2536903D01*
X87048852Y-2715180D01*
X87052454Y-2717587D01*
X87282413Y-2947546D01*
X87463098Y-3217960D01*
X87587553Y-3518422D01*
X87651000Y-3837389D01*
X87651000Y-4162611D01*
X87587553Y-4481578D01*
X87463098Y-4782040D01*
X87282413Y-5052454D01*
X87052454Y-5282413D01*
X87052451Y-5282415D01*
X86782042Y-5463097D01*
X86481579Y-5587553D01*
X86375256Y-5608702D01*
X86162611Y-5651000D01*
X85837389Y-5651000D01*
X85624744Y-5608702D01*
X85518421Y-5587553D01*
X85217958Y-5463097D01*
X84947549Y-5282415D01*
X84947546Y-5282413D01*
X84717587Y-5052454D01*
X84536902Y-4782040D01*
X84412447Y-4481578D01*
X84349000Y-4162611D01*
X84349000Y-3837389D01*
X84412447Y-3518422D01*
X84536902Y-3217960D01*
X84717587Y-2947546D01*
X84947546Y-2717587D01*
X84951148Y-2715180D01*
X85217958Y-2536903D01*
X85518421Y-2412447D01*
X85624744Y-2391298D01*
X85837389Y-2349000D01*
X86162611Y-2349000D01*
X86375256Y-2391298D01*
X86375256Y-2391298D01*
G37*
G36*
X4375256Y-2391298D02*
X4481579Y-2412447D01*
X4782042Y-2536903D01*
X5048852Y-2715180D01*
X5052454Y-2717587D01*
X5282413Y-2947546D01*
X5463098Y-3217960D01*
X5587553Y-3518422D01*
X5651000Y-3837389D01*
X5651000Y-4162611D01*
X5587553Y-4481578D01*
X5463098Y-4782040D01*
X5282413Y-5052454D01*
X5052454Y-5282413D01*
X5052451Y-5282415D01*
X4782042Y-5463097D01*
X4481579Y-5587553D01*
X4375256Y-5608702D01*
X4162611Y-5651000D01*
X3837389Y-5651000D01*
X3624744Y-5608702D01*
X3518421Y-5587553D01*
X3217958Y-5463097D01*
X2947549Y-5282415D01*
X2947546Y-5282413D01*
X2717587Y-5052454D01*
X2536902Y-4782040D01*
X2412447Y-4481578D01*
X2349000Y-4162611D01*
X2349000Y-3837389D01*
X2412447Y-3518422D01*
X2536902Y-3217960D01*
X2717587Y-2947546D01*
X2947546Y-2717587D01*
X2951148Y-2715180D01*
X3217958Y-2536903D01*
X3518421Y-2412447D01*
X3624744Y-2391298D01*
X3837389Y-2349000D01*
X4162611Y-2349000D01*
X4375256Y-2391298D01*
X4375256Y-2391298D01*
G37*
M02*
